<?xml version="1.0" encoding="UTF-8" standalone="no"?>
<!DOCTYPE svg PUBLIC "-//W3C//DTD SVG 1.1//EN"
 "http://www.w3.org/Graphics/SVG/1.1/DTD/svg11.dtd">
<!-- Generated by graphviz version 2.43.0 (0)
 -->
<!-- Title: Zappy::IEntity::getEntityType Pages: 1 -->
<svg width="766pt" height="364pt"
 viewBox="0.00 0.00 766.00 364.00" xmlns="http://www.w3.org/2000/svg" xmlns:xlink="http://www.w3.org/1999/xlink">
<g id="graph0" class="graph" transform="scale(1 1) rotate(0) translate(4 360)">
<title>Zappy::IEntity::getEntityType</title>
<!-- Node1 -->
<g id="Node000001" class="node">
<title>Node1</title>
<g id="a_Node000001"><a xlink:title="Open category of the entity.">
<polygon fill="#999999" stroke="#666666" points="758,-144.5 602,-144.5 602,-125.5 758,-125.5 758,-144.5"/>
<text text-anchor="middle" x="680" y="-132.5" font-family="Helvetica,sans-Serif" font-size="10.00">Zappy::IEntity::getEntityType</text>
</a>
</g>
</g>
<!-- Node2 -->
<g id="Node000002" class="node">
<title>Node2</title>
<g id="a_Node000002"><a xlink:href="classZappy_1_1GameState.html#a6e91382f136bccb7ff1396281247a119" target="_top" xlink:title="Inserts or replaces an entity, keyed by its entity type and number.">
<polygon fill="white" stroke="#666666" points="566,-278.5 406,-278.5 406,-259.5 566,-259.5 566,-278.5"/>
<text text-anchor="middle" x="486" y="-266.5" font-family="Helvetica,sans-Serif" font-size="10.00">Zappy::GameState::addEntity</text>
</a>
</g>
</g>
<!-- Node1&#45;&gt;Node2 -->
<g id="edge1_Node000001_Node000002" class="edge">
<title>Node1&#45;&gt;Node2</title>
<g id="a_edge1_Node000001_Node000002"><a xlink:title=" ">
<path fill="none" stroke="#63b8ff" d="M656.89,-150.43C616.87,-178.36 533.49,-236.55 500.68,-259.45"/>
<polygon fill="#63b8ff" stroke="#63b8ff" points="658.99,-153.23 665.19,-144.64 654.99,-147.49 658.99,-153.23"/>
</a>
</g>
</g>
<!-- Node9 -->
<g id="Node000009" class="node">
<title>Node9</title>
<g id="a_Node000009"><a xlink:href="classZappy_1_1AMapEntity.html#ac37155be777f11113dce6039bb7f7244" target="_top" xlink:title="Base info lines shared by every entity: identity and position.">
<polygon fill="white" stroke="#666666" points="543,-174 429,-174 429,-144 543,-144 543,-174"/>
<text text-anchor="start" x="437" y="-162" font-family="Helvetica,sans-Serif" font-size="10.00">Zappy::AMapEntity::</text>
<text text-anchor="middle" x="486" y="-151" font-family="Helvetica,sans-Serif" font-size="10.00">infoLines</text>
</a>
</g>
</g>
<!-- Node1&#45;&gt;Node9 -->
<g id="edge8_Node000001_Node000009" class="edge">
<title>Node1&#45;&gt;Node9</title>
<g id="a_edge8_Node000001_Node000009"><a xlink:title=" ">
<path fill="none" stroke="#63b8ff" d="M592.5,-145.81C575.77,-147.9 558.66,-150.04 543.22,-151.97"/>
<polygon fill="#63b8ff" stroke="#63b8ff" points="593.35,-149.23 602.84,-144.52 592.48,-142.29 593.35,-149.23"/>
</a>
</g>
</g>
<!-- Node12 -->
<g id="Node000012" class="node">
<title>Node12</title>
<g id="a_Node000012"><a xlink:href="classZappy_1_1RenderSystem.html#a69ac1b3aa829d3329a879e22afdda150" target="_top" xlink:title="Resolves the entity currently followed, auto&#45;detaching if it is gone or not a player.">
<polygon fill="white" stroke="#666666" points="548,-126 424,-126 424,-96 548,-96 548,-126"/>
<text text-anchor="start" x="432" y="-114" font-family="Helvetica,sans-Serif" font-size="10.00">Zappy::RenderSystem</text>
<text text-anchor="middle" x="486" y="-103" font-family="Helvetica,sans-Serif" font-size="10.00">::resolveFollowed</text>
</a>
</g>
</g>
<!-- Node1&#45;&gt;Node12 -->
<g id="edge11_Node000001_Node000012" class="edge">
<title>Node1&#45;&gt;Node12</title>
<g id="a_edge11_Node000001_Node000012"><a xlink:title=" ">
<path fill="none" stroke="#63b8ff" d="M592.57,-124.2C577.63,-122.33 562.38,-120.42 548.28,-118.66"/>
<polygon fill="#63b8ff" stroke="#63b8ff" points="592.48,-127.71 602.84,-125.48 593.35,-120.77 592.48,-127.71"/>
</a>
</g>
</g>
<!-- Node14 -->
<g id="Node000014" class="node">
<title>Node14</title>
<g id="a_Node000014"><a xlink:href="classZappy_1_1RenderSystem.html#a41599751520d5cc014f9843c47e1b0a2" target="_top" xlink:title="Selects the entity standing on a tile (preferring players), or clears the selection.">
<polygon fill="white" stroke="#666666" points="548,-78 424,-78 424,-48 548,-48 548,-78"/>
<text text-anchor="start" x="432" y="-66" font-family="Helvetica,sans-Serif" font-size="10.00">Zappy::RenderSystem</text>
<text text-anchor="middle" x="486" y="-55" font-family="Helvetica,sans-Serif" font-size="10.00">::selectEntityAt</text>
</a>
</g>
</g>
<!-- Node1&#45;&gt;Node14 -->
<g id="edge13_Node000001_Node000014" class="edge">
<title>Node1&#45;&gt;Node14</title>
<g id="a_edge13_Node000001_Node000014"><a xlink:title=" ">
<path fill="none" stroke="#63b8ff" d="M649.07,-121.25C626.49,-111.13 594.62,-97.39 566,-87 557.51,-83.92 548.42,-80.9 539.53,-78.1"/>
<polygon fill="#63b8ff" stroke="#63b8ff" points="647.88,-124.56 658.44,-125.48 650.76,-118.18 647.88,-124.56"/>
</a>
</g>
</g>
<!-- Node3 -->
<g id="Node000003" class="node">
<title>Node3</title>
<g id="a_Node000003"><a xlink:href="classZappy_1_1EggEventHandler.html#ae99537c5f3c48c2278c930ba2089120e" target="_top" xlink:title="Creates an egg from an enw message (egg laid by a player).">
<polygon fill="white" stroke="#666666" points="355,-356 218,-356 218,-326 355,-326 355,-356"/>
<text text-anchor="start" x="226" y="-344" font-family="Helvetica,sans-Serif" font-size="10.00">Zappy::EggEventHandler</text>
<text text-anchor="middle" x="286.5" y="-333" font-family="Helvetica,sans-Serif" font-size="10.00">::handleEggLaid</text>
</a>
</g>
</g>
<!-- Node2&#45;&gt;Node3 -->
<g id="edge2_Node000002_Node000003" class="edge">
<title>Node2&#45;&gt;Node3</title>
<g id="a_edge2_Node000002_Node000003"><a xlink:title=" ">
<path fill="none" stroke="#63b8ff" d="M454.85,-282.68C431.87,-292.84 399.28,-306.67 370,-317 361.14,-320.13 351.64,-323.17 342.36,-325.98"/>
<polygon fill="#63b8ff" stroke="#63b8ff" points="456.37,-285.83 464.08,-278.57 453.52,-279.44 456.37,-285.83"/>
</a>
</g>
</g>
<!-- Node5 -->
<g id="Node000005" class="node">
<title>Node5</title>
<g id="a_Node000005"><a xlink:href="classZappy_1_1EntityCommonHandler.html#af0f6fa45f4e559190921684821d73776" target="_top" xlink:title="Updates a player&#39;s position and orientation from a ppo message.">
<polygon fill="white" stroke="#666666" points="368.5,-308 204.5,-308 204.5,-278 368.5,-278 368.5,-308"/>
<text text-anchor="start" x="212.5" y="-296" font-family="Helvetica,sans-Serif" font-size="10.00">Zappy::EntityCommonHandler</text>
<text text-anchor="middle" x="286.5" y="-285" font-family="Helvetica,sans-Serif" font-size="10.00">::handlePosition</text>
</a>
</g>
</g>
<!-- Node2&#45;&gt;Node5 -->
<g id="edge4_Node000002_Node000005" class="edge">
<title>Node2&#45;&gt;Node5</title>
<g id="a_edge4_Node000002_Node000005"><a xlink:title=" ">
<path fill="none" stroke="#63b8ff" d="M396.62,-279.74C387.32,-280.87 377.88,-282.02 368.66,-283.14"/>
<polygon fill="#63b8ff" stroke="#63b8ff" points="397.15,-283.2 406.66,-278.52 396.31,-276.25 397.15,-283.2"/>
</a>
</g>
</g>
<!-- Node7 -->
<g id="Node000007" class="node">
<title>Node7</title>
<g id="a_Node000007"><a xlink:href="classZappy_1_1TrantorianEventHandler.html#a499edc947d19f72ea021ac491d7ec048" target="_top" xlink:title="Creates a Trantorian from a pnw message.">
<polygon fill="white" stroke="#666666" points="370,-260 203,-260 203,-230 370,-230 370,-260"/>
<text text-anchor="start" x="211" y="-248" font-family="Helvetica,sans-Serif" font-size="10.00">Zappy::TrantorianEventHandler</text>
<text text-anchor="middle" x="286.5" y="-237" font-family="Helvetica,sans-Serif" font-size="10.00">::handleTrantorianSpawned</text>
</a>
</g>
</g>
<!-- Node2&#45;&gt;Node7 -->
<g id="edge6_Node000002_Node000007" class="edge">
<title>Node2&#45;&gt;Node7</title>
<g id="a_edge6_Node000002_Node000007"><a xlink:title=" ">
<path fill="none" stroke="#63b8ff" d="M396.49,-258.24C387.77,-257.18 378.95,-256.11 370.29,-255.06"/>
<polygon fill="#63b8ff" stroke="#63b8ff" points="396.31,-261.75 406.66,-259.48 397.15,-254.8 396.31,-261.75"/>
</a>
</g>
</g>
<!-- Node4 -->
<g id="Node000004" class="node">
<title>Node4</title>
<g id="a_Node000004"><a xlink:href="classZappy_1_1EggEventHandler.html#af10d8140274bf77c4609eb8cecdc72b7" target="_top" xlink:title="Applies an egg message to the state.">
<polygon fill="white" stroke="#666666" points="152,-356 15,-356 15,-326 152,-326 152,-356"/>
<text text-anchor="start" x="23" y="-344" font-family="Helvetica,sans-Serif" font-size="10.00">Zappy::EggEventHandler</text>
<text text-anchor="middle" x="83.5" y="-333" font-family="Helvetica,sans-Serif" font-size="10.00">::handle</text>
</a>
</g>
</g>
<!-- Node3&#45;&gt;Node4 -->
<g id="edge3_Node000003_Node000004" class="edge">
<title>Node3&#45;&gt;Node4</title>
<g id="a_edge3_Node000003_Node000004"><a xlink:title=" ">
<path fill="none" stroke="#63b8ff" d="M207.71,-341C189.44,-341 170.11,-341 152.32,-341"/>
<polygon fill="#63b8ff" stroke="#63b8ff" points="207.73,-344.5 217.73,-341 207.73,-337.5 207.73,-344.5"/>
</a>
</g>
</g>
<!-- Node6 -->
<g id="Node000006" class="node">
<title>Node6</title>
<g id="a_Node000006"><a xlink:href="classZappy_1_1EntityCommonHandler.html#ab1e49f6db3b5b5acf66d561c43ea5058" target="_top" xlink:title="Applies a common entity message to the state.">
<polygon fill="white" stroke="#666666" points="165.5,-308 1.5,-308 1.5,-278 165.5,-278 165.5,-308"/>
<text text-anchor="start" x="9.5" y="-296" font-family="Helvetica,sans-Serif" font-size="10.00">Zappy::EntityCommonHandler</text>
<text text-anchor="middle" x="83.5" y="-285" font-family="Helvetica,sans-Serif" font-size="10.00">::handle</text>
</a>
</g>
</g>
<!-- Node5&#45;&gt;Node6 -->
<g id="edge5_Node000005_Node000006" class="edge">
<title>Node5&#45;&gt;Node6</title>
<g id="a_edge5_Node000005_Node000006"><a xlink:title=" ">
<path fill="none" stroke="#63b8ff" d="M194.09,-293C184.61,-293 175.01,-293 165.65,-293"/>
<polygon fill="#63b8ff" stroke="#63b8ff" points="194.33,-296.5 204.32,-293 194.32,-289.5 194.33,-296.5"/>
</a>
</g>
</g>
<!-- Node8 -->
<g id="Node000008" class="node">
<title>Node8</title>
<g id="a_Node000008"><a xlink:href="classZappy_1_1TrantorianEventHandler.html#ac0f18428ea3bebd13edcd95914ba5663" target="_top" xlink:title="Applies a Trantorian message to the state.">
<polygon fill="white" stroke="#666666" points="167,-260 0,-260 0,-230 167,-230 167,-260"/>
<text text-anchor="start" x="8" y="-248" font-family="Helvetica,sans-Serif" font-size="10.00">Zappy::TrantorianEventHandler</text>
<text text-anchor="middle" x="83.5" y="-237" font-family="Helvetica,sans-Serif" font-size="10.00">::handle</text>
</a>
</g>
</g>
<!-- Node7&#45;&gt;Node8 -->
<g id="edge7_Node000007_Node000008" class="edge">
<title>Node7&#45;&gt;Node8</title>
<g id="a_edge7_Node000007_Node000008"><a xlink:title=" ">
<path fill="none" stroke="#63b8ff" d="M192.85,-245C184.27,-245 175.61,-245 167.13,-245"/>
<polygon fill="#63b8ff" stroke="#63b8ff" points="192.88,-248.5 202.88,-245 192.88,-241.5 192.88,-248.5"/>
</a>
</g>
</g>
<!-- Node10 -->
<g id="Node000010" class="node">
<title>Node10</title>
<g id="a_Node000010"><a xlink:href="classZappy_1_1Egg.html#a96c7517168c42b2dc73b8c2e3dd271e4" target="_top" xlink:title="Info lines: identity, position and owning team.">
<polygon fill="white" stroke="#666666" points="347,-211.5 226,-211.5 226,-192.5 347,-192.5 347,-211.5"/>
<text text-anchor="middle" x="286.5" y="-199.5" font-family="Helvetica,sans-Serif" font-size="10.00">Zappy::Egg::infoLines</text>
</a>
</g>
</g>
<!-- Node9&#45;&gt;Node10 -->
<g id="edge9_Node000009_Node000010" class="edge">
<title>Node9&#45;&gt;Node10</title>
<g id="a_edge9_Node000009_Node000010"><a xlink:title=" ">
<path fill="none" stroke="#63b8ff" d="M418.9,-173.39C390,-179.68 356.9,-186.89 331.15,-192.5"/>
<polygon fill="#63b8ff" stroke="#63b8ff" points="419.91,-176.75 428.93,-171.21 418.42,-169.91 419.91,-176.75"/>
</a>
</g>
</g>
<!-- Node11 -->
<g id="Node000011" class="node">
<title>Node11</title>
<g id="a_Node000011"><a xlink:href="classZappy_1_1Trantorian.html#a90e88f0baf030f74940046c3933076e4" target="_top" xlink:title="Info lines: identity, position, team, level and inventory.">
<polygon fill="white" stroke="#666666" points="340,-174 233,-174 233,-144 340,-144 340,-174"/>
<text text-anchor="start" x="241" y="-162" font-family="Helvetica,sans-Serif" font-size="10.00">Zappy::Trantorian::</text>
<text text-anchor="middle" x="286.5" y="-151" font-family="Helvetica,sans-Serif" font-size="10.00">infoLines</text>
</a>
</g>
</g>
<!-- Node9&#45;&gt;Node11 -->
<g id="edge10_Node000009_Node000011" class="edge">
<title>Node9&#45;&gt;Node11</title>
<g id="a_edge10_Node000009_Node000011"><a xlink:title=" ">
<path fill="none" stroke="#63b8ff" d="M418.6,-159C393.1,-159 364.37,-159 340.31,-159"/>
<polygon fill="#63b8ff" stroke="#63b8ff" points="418.93,-162.5 428.93,-159 418.93,-155.5 418.93,-162.5"/>
</a>
</g>
</g>
<!-- Node13 -->
<g id="Node000013" class="node">
<title>Node13</title>
<g id="a_Node000013"><a xlink:href="classZappy_1_1RenderSystem.html#a3fa8ea9f652b5de2ef12401086df2875" target="_top" xlink:title="Draws one frame from the given state.">
<polygon fill="white" stroke="#666666" points="348.5,-126 224.5,-126 224.5,-96 348.5,-96 348.5,-126"/>
<text text-anchor="start" x="232.5" y="-114" font-family="Helvetica,sans-Serif" font-size="10.00">Zappy::RenderSystem</text>
<text text-anchor="middle" x="286.5" y="-103" font-family="Helvetica,sans-Serif" font-size="10.00">::render</text>
</a>
</g>
</g>
<!-- Node12&#45;&gt;Node13 -->
<g id="edge12_Node000012_Node000013" class="edge">
<title>Node12&#45;&gt;Node13</title>
<g id="a_edge12_Node000012_Node000013"><a xlink:title=" ">
<path fill="none" stroke="#63b8ff" d="M413.59,-111C392.33,-111 369.24,-111 348.69,-111"/>
<polygon fill="#63b8ff" stroke="#63b8ff" points="413.86,-114.5 423.86,-111 413.86,-107.5 413.86,-114.5"/>
</a>
</g>
</g>
<!-- Node15 -->
<g id="Node000015" class="node">
<title>Node15</title>
<g id="a_Node000015"><a xlink:href="classZappy_1_1RenderSystem.html#ac94c2b0bb1b34c74fbc18359405968fa" target="_top" xlink:title="Picks the entity under a 2D (top&#45;down) click and updates the selection.">
<polygon fill="white" stroke="#666666" points="348.5,-78 224.5,-78 224.5,-48 348.5,-48 348.5,-78"/>
<text text-anchor="start" x="232.5" y="-66" font-family="Helvetica,sans-Serif" font-size="10.00">Zappy::RenderSystem</text>
<text text-anchor="middle" x="286.5" y="-55" font-family="Helvetica,sans-Serif" font-size="10.00">::selectAt</text>
</a>
</g>
</g>
<!-- Node14&#45;&gt;Node15 -->
<g id="edge14_Node000014_Node000015" class="edge">
<title>Node14&#45;&gt;Node15</title>
<g id="a_edge14_Node000014_Node000015"><a xlink:title=" ">
<path fill="none" stroke="#63b8ff" d="M413.59,-63C392.33,-63 369.24,-63 348.69,-63"/>
<polygon fill="#63b8ff" stroke="#63b8ff" points="413.86,-66.5 423.86,-63 413.86,-59.5 413.86,-66.5"/>
</a>
</g>
</g>
<!-- Node17 -->
<g id="Node000017" class="node">
<title>Node17</title>
<g id="a_Node000017"><a xlink:href="classZappy_1_1RenderSystem.html#a1c7eed6821b73667148ba9b9f2e3b547" target="_top" xlink:title="Picks the entity under a 3D click by casting a ray onto the ground.">
<polygon fill="white" stroke="#666666" points="348.5,-30 224.5,-30 224.5,0 348.5,0 348.5,-30"/>
<text text-anchor="start" x="232.5" y="-18" font-family="Helvetica,sans-Serif" font-size="10.00">Zappy::RenderSystem</text>
<text text-anchor="middle" x="286.5" y="-7" font-family="Helvetica,sans-Serif" font-size="10.00">::selectAt3D</text>
</a>
</g>
</g>
<!-- Node14&#45;&gt;Node17 -->
<g id="edge16_Node000014_Node000017" class="edge">
<title>Node14&#45;&gt;Node17</title>
<g id="a_edge16_Node000014_Node000017"><a xlink:title=" ">
<path fill="none" stroke="#63b8ff" d="M413.88,-45.72C392.54,-40.53 369.33,-34.89 348.69,-29.87"/>
<polygon fill="#63b8ff" stroke="#63b8ff" points="413.32,-49.18 423.86,-48.14 414.97,-42.38 413.32,-49.18"/>
</a>
</g>
</g>
<!-- Node16 -->
<g id="Node000016" class="node">
<title>Node16</title>
<g id="a_Node000016"><a xlink:href="classZappy_1_1RenderSystem.html#a27989df681554438f03fcaab6338cac3" target="_top" xlink:title="Polls input and updates the camera and selection.">
<polygon fill="white" stroke="#666666" points="145.5,-54 21.5,-54 21.5,-24 145.5,-24 145.5,-54"/>
<text text-anchor="start" x="29.5" y="-42" font-family="Helvetica,sans-Serif" font-size="10.00">Zappy::RenderSystem</text>
<text text-anchor="middle" x="83.5" y="-31" font-family="Helvetica,sans-Serif" font-size="10.00">::processInput</text>
</a>
</g>
</g>
<!-- Node15&#45;&gt;Node16 -->
<g id="edge15_Node000015_Node000016" class="edge">
<title>Node15&#45;&gt;Node16</title>
<g id="a_edge15_Node000015_Node000016"><a xlink:title=" ">
<path fill="none" stroke="#63b8ff" d="M214.25,-54.49C191.85,-51.82 167.32,-48.89 145.68,-46.31"/>
<polygon fill="#63b8ff" stroke="#63b8ff" points="214.03,-57.99 224.37,-55.7 214.86,-51.04 214.03,-57.99"/>
</a>
</g>
</g>
<!-- Node17&#45;&gt;Node16 -->
<g id="edge17_Node000017_Node000016" class="edge">
<title>Node17&#45;&gt;Node16</title>
<g id="a_edge17_Node000017_Node000016"><a xlink:title=" ">
<path fill="none" stroke="#63b8ff" d="M214.25,-23.51C191.85,-26.18 167.32,-29.11 145.68,-31.69"/>
<polygon fill="#63b8ff" stroke="#63b8ff" points="214.86,-26.96 224.37,-22.3 214.03,-20.01 214.86,-26.96"/>
</a>
</g>
</g>
</g>
</svg>
