<?xml version="1.0" encoding="UTF-8" standalone="no"?>
<!DOCTYPE svg PUBLIC "-//W3C//DTD SVG 1.1//EN"
 "http://www.w3.org/Graphics/SVG/1.1/DTD/svg11.dtd">
<!-- Generated by graphviz version 2.43.0 (0)
 -->
<!-- Title: Zappy::AssetCache::mesh Pages: 1 -->
<svg width="305pt" height="86pt"
 viewBox="0.00 0.00 305.00 86.00" xmlns="http://www.w3.org/2000/svg" xmlns:xlink="http://www.w3.org/1999/xlink">
<g id="graph0" class="graph" transform="scale(1 1) rotate(0) translate(4 82)">
<title>Zappy::AssetCache::mesh</title>
<!-- Node1 -->
<g id="Node000001" class="node">
<title>Node1</title>
<g id="a_Node000001"><a xlink:title="Looks up a mesh by id.">
<polygon fill="#999999" stroke="#666666" points="297,-48.5 154,-48.5 154,-29.5 297,-29.5 297,-48.5"/>
<text text-anchor="middle" x="225.5" y="-36.5" font-family="Helvetica,sans-Serif" font-size="10.00">Zappy::AssetCache::mesh</text>
</a>
</g>
</g>
<!-- Node2 -->
<g id="Node000002" class="node">
<title>Node2</title>
<g id="a_Node000002"><a xlink:href="classZappy_1_1HudRenderer.html#a811888ec303fe1cfdfa3373f70decbc1" target="_top" xlink:title="Draws the styled HUD overlay for the current frame.">
<polygon fill="white" stroke="#666666" points="117,-78 1,-78 1,-48 117,-48 117,-78"/>
<text text-anchor="start" x="9" y="-66" font-family="Helvetica,sans-Serif" font-size="10.00">Zappy::HudRenderer</text>
<text text-anchor="middle" x="59" y="-55" font-family="Helvetica,sans-Serif" font-size="10.00">::render</text>
</a>
</g>
</g>
<!-- Node1&#45;&gt;Node2 -->
<g id="edge1_Node000001_Node000002" class="edge">
<title>Node1&#45;&gt;Node2</title>
<g id="a_edge1_Node000001_Node000002"><a xlink:title=" ">
<path fill="none" stroke="#63b8ff" d="M148.83,-50.04C138.13,-51.6 127.29,-53.18 117.03,-54.68"/>
<polygon fill="#63b8ff" stroke="#63b8ff" points="149.62,-53.46 159.01,-48.55 148.61,-46.53 149.62,-53.46"/>
</a>
</g>
</g>
<!-- Node3 -->
<g id="Node000003" class="node">
<title>Node3</title>
<g id="a_Node000003"><a xlink:href="classZappy_1_1MapRenderer.html#a0b2fcc444f807a100f47ffc96c4153f6" target="_top" xlink:title="Draws the terrain and ground resources.">
<polygon fill="white" stroke="#666666" points="118,-30 0,-30 0,0 118,0 118,-30"/>
<text text-anchor="start" x="8" y="-18" font-family="Helvetica,sans-Serif" font-size="10.00">Zappy::MapRenderer</text>
<text text-anchor="middle" x="59" y="-7" font-family="Helvetica,sans-Serif" font-size="10.00">::render</text>
</a>
</g>
</g>
<!-- Node1&#45;&gt;Node3 -->
<g id="edge2_Node000001_Node000003" class="edge">
<title>Node1&#45;&gt;Node3</title>
<g id="a_edge2_Node000001_Node000003"><a xlink:title=" ">
<path fill="none" stroke="#63b8ff" d="M149.09,-28C138.68,-26.48 128.11,-24.94 118.08,-23.47"/>
<polygon fill="#63b8ff" stroke="#63b8ff" points="148.61,-31.47 159.01,-29.45 149.62,-24.54 148.61,-31.47"/>
</a>
</g>
</g>
</g>
</svg>
