<?xml version="1.0" encoding="UTF-8" standalone="no"?>
<!DOCTYPE svg PUBLIC "-//W3C//DTD SVG 1.1//EN"
 "http://www.w3.org/Graphics/SVG/1.1/DTD/svg11.dtd">
<!-- Generated by graphviz version 2.43.0 (0)
 -->
<!-- Title: zappy::Commands::Eject Pages: 1 -->
<svg width="543pt" height="762pt"
 viewBox="0.00 0.00 543.00 762.00" xmlns="http://www.w3.org/2000/svg" xmlns:xlink="http://www.w3.org/1999/xlink">
<g id="graph0" class="graph" transform="scale(1 1) rotate(0) translate(4 758)">
<title>zappy::Commands::Eject</title>
<!-- Node1 -->
<g id="Node000001" class="node">
<title>Node1</title>
<g id="a_Node000001"><a xlink:title="Pushes every other player off the current tile.">
<polygon fill="#999999" stroke="#666666" points="137,-347 0,-347 0,-328 137,-328 137,-347"/>
<text text-anchor="middle" x="68.5" y="-335" font-family="Helvetica,sans-Serif" font-size="10.00">zappy::Commands::Eject</text>
</a>
</g>
</g>
<!-- Node2 -->
<g id="Node000002" class="node">
<title>Node2</title>
<g id="a_Node000002"><a xlink:href="classzappy_1_1Commands.html#ab80dd4d34e9f778e13d3ddba78134a15" target="_top" xlink:title="Builds a passive &quot;pipi&quot; snapshot line (position, orientation, level, inventory) for one player.">
<polygon fill="white" stroke="#666666" points="334.5,-691.5 179.5,-691.5 179.5,-661.5 334.5,-661.5 334.5,-691.5"/>
<text text-anchor="start" x="187.5" y="-679.5" font-family="Helvetica,sans-Serif" font-size="10.00">zappy::Commands::buildPipi</text>
<text text-anchor="middle" x="257" y="-668.5" font-family="Helvetica,sans-Serif" font-size="10.00">Message</text>
</a>
</g>
</g>
<!-- Node1&#45;&gt;Node2 -->
<g id="edge1_Node000001_Node000002" class="edge">
<title>Node1&#45;&gt;Node2</title>
<g id="a_edge1_Node000001_Node000002"><a xlink:title=" ">
<path fill="none" stroke="#63b8ff" d="M69.6,-347.12C70.6,-389.72 80.41,-563.18 173,-652.5 174.11,-653.57 175.27,-654.6 176.47,-655.58"/>
<polygon fill="#63b8ff" stroke="#63b8ff" points="174.68,-658.6 184.89,-661.42 178.67,-652.84 174.68,-658.6"/>
</a>
</g>
</g>
<!-- Node3 -->
<g id="Node000003" class="node">
<title>Node3</title>
<g id="a_Node000003"><a xlink:href="classzappy_1_1Player.html#a33f33f30fdbf95af468119bc63bd7caa" target="_top" xlink:title="This player&#39;s stable logical id (its GUI player number).">
<polygon fill="white" stroke="#666666" points="512.5,-557 399.5,-557 399.5,-538 512.5,-538 512.5,-557"/>
<text text-anchor="middle" x="456" y="-545" font-family="Helvetica,sans-Serif" font-size="10.00">zappy::Player::getId</text>
</a>
</g>
</g>
<!-- Node1&#45;&gt;Node3 -->
<g id="edge12_Node000001_Node000003" class="edge">
<title>Node1&#45;&gt;Node3</title>
<g id="a_edge12_Node000001_Node000003"><a xlink:title=" ">
<path fill="none" stroke="#63b8ff" d="M71.36,-347.26C78.14,-379.75 104.76,-484.69 173,-528.5 241.11,-572.23 338.54,-567.49 399.21,-558.59"/>
<polygon fill="#63b8ff" stroke="#63b8ff" points="400.02,-562.01 409.36,-557.01 398.94,-555.09 400.02,-562.01"/>
</a>
</g>
</g>
<!-- Node8 -->
<g id="Node000008" class="node">
<title>Node8</title>
<g id="a_Node000008"><a xlink:href="classzappy_1_1Player.html#aff283e814b7f01d4ad7398d7c20794e6" target="_top" xlink:title="Current tile position.">
<polygon fill="white" stroke="#666666" points="527.5,-606 384.5,-606 384.5,-587 527.5,-587 527.5,-606"/>
<text text-anchor="middle" x="456" y="-594" font-family="Helvetica,sans-Serif" font-size="10.00">zappy::Player::getPosition</text>
</a>
</g>
</g>
<!-- Node1&#45;&gt;Node8 -->
<g id="edge17_Node000001_Node000008" class="edge">
<title>Node1&#45;&gt;Node8</title>
<g id="a_edge17_Node000001_Node000008"><a xlink:title=" ">
<path fill="none" stroke="#63b8ff" d="M70.7,-347.15C75.65,-382.48 97.9,-505.56 173,-560.5 204.09,-583.24 302.08,-591.63 373.85,-594.72"/>
<polygon fill="#63b8ff" stroke="#63b8ff" points="374.11,-598.23 384.24,-595.14 374.39,-591.24 374.11,-598.23"/>
</a>
</g>
</g>
<!-- Node9 -->
<g id="Node000009" class="node">
<title>Node9</title>
<g id="a_Node000009"><a xlink:href="classzappy_1_1Commands.html#aaf731a65205404334d3f8bf78981cb3c" target="_top" xlink:title="Builds a &quot;ppo&quot; broadcast line (position, orientation) for one player.">
<polygon fill="white" stroke="#666666" points="334.5,-643.5 179.5,-643.5 179.5,-613.5 334.5,-613.5 334.5,-643.5"/>
<text text-anchor="start" x="187.5" y="-631.5" font-family="Helvetica,sans-Serif" font-size="10.00">zappy::Commands::buildPpo</text>
<text text-anchor="middle" x="257" y="-620.5" font-family="Helvetica,sans-Serif" font-size="10.00">Message</text>
</a>
</g>
</g>
<!-- Node1&#45;&gt;Node9 -->
<g id="edge8_Node000001_Node000009" class="edge">
<title>Node1&#45;&gt;Node9</title>
<g id="a_edge8_Node000001_Node000009"><a xlink:title=" ">
<path fill="none" stroke="#63b8ff" d="M70.46,-347.16C74.74,-385.04 95.41,-524.96 173,-599.5 176.53,-602.89 180.48,-605.89 184.68,-608.53"/>
<polygon fill="#63b8ff" stroke="#63b8ff" points="183.18,-611.7 193.62,-613.49 186.58,-605.58 183.18,-611.7"/>
</a>
</g>
</g>
<!-- Node10 -->
<g id="Node000010" class="node">
<title>Node10</title>
<g id="a_Node000010"><a xlink:href="classzappy_1_1World.html#ad35316e4e1203c45ad2f853319775432" target="_top" xlink:title="Map dimensions as (width, height).">
<polygon fill="white" stroke="#666666" points="328,-519 186,-519 186,-500 328,-500 328,-519"/>
<text text-anchor="middle" x="257" y="-507" font-family="Helvetica,sans-Serif" font-size="10.00">zappy::World::getMapSize</text>
</a>
</g>
</g>
<!-- Node1&#45;&gt;Node10 -->
<g id="edge13_Node000001_Node000010" class="edge">
<title>Node1&#45;&gt;Node10</title>
<g id="a_edge13_Node000001_Node000010"><a xlink:title=" ">
<path fill="none" stroke="#63b8ff" d="M73.05,-347.34C83.56,-374.97 117.29,-453.69 173,-491.5 175.27,-493.04 177.64,-494.45 180.1,-495.74"/>
<polygon fill="#63b8ff" stroke="#63b8ff" points="178.74,-498.97 189.29,-499.92 181.64,-492.6 178.74,-498.97"/>
</a>
</g>
</g>
<!-- Node11 -->
<g id="Node000011" class="node">
<title>Node11</title>
<g id="a_Node000011"><a xlink:href="classzappy_1_1World.html#a43fb08ea54d522c20d2c27ed281297f4" target="_top" xlink:title="Looks up a player by its logical id, or nullptr if none matches.">
<polygon fill="white" stroke="#666666" points="333.5,-482 180.5,-482 180.5,-463 333.5,-463 333.5,-482"/>
<text text-anchor="middle" x="257" y="-470" font-family="Helvetica,sans-Serif" font-size="10.00">zappy::World::getPlayerById</text>
</a>
</g>
</g>
<!-- Node1&#45;&gt;Node11 -->
<g id="edge14_Node000001_Node000011" class="edge">
<title>Node1&#45;&gt;Node11</title>
<g id="a_edge14_Node000001_Node000011"><a xlink:title=" ">
<path fill="none" stroke="#63b8ff" d="M75.75,-347.15C90.18,-368.68 128.1,-420.91 173,-448.5 180.43,-453.06 188.76,-456.79 197.21,-459.83"/>
<polygon fill="#63b8ff" stroke="#63b8ff" points="196.16,-463.17 206.75,-462.97 198.35,-456.52 196.16,-463.17"/>
</a>
</g>
</g>
<!-- Node12 -->
<g id="Node000012" class="node">
<title>Node12</title>
<g id="a_Node000012"><a xlink:href="classzappy_1_1Client.html#ade4edd70698f2497e09f736734d77ab0" target="_top" xlink:title="Returns the logical id of this client&#39;s player, or &#45;1 if it has none.">
<polygon fill="white" stroke="#666666" points="526.5,-404 385.5,-404 385.5,-385 526.5,-385 526.5,-404"/>
<text text-anchor="middle" x="456" y="-392" font-family="Helvetica,sans-Serif" font-size="10.00">zappy::Client::getPlayerId</text>
</a>
</g>
</g>
<!-- Node1&#45;&gt;Node12 -->
<g id="edge16_Node000001_Node000012" class="edge">
<title>Node1&#45;&gt;Node12</title>
<g id="a_edge16_Node000001_Node000012"><a xlink:title=" ">
<path fill="none" stroke="#63b8ff" d="M77.99,-347.12C94.3,-364.77 132.03,-401.79 173,-415.5 255.84,-443.22 359.75,-422.26 415.43,-406.9"/>
<polygon fill="#63b8ff" stroke="#63b8ff" points="416.58,-410.21 425.24,-404.11 414.67,-403.48 416.58,-410.21"/>
</a>
</g>
</g>
<!-- Node13 -->
<g id="Node000013" class="node">
<title>Node13</title>
<g id="a_Node000013"><a xlink:href="classzappy_1_1Player.html#a90f0e1c135399b478553f45d2eea9af2" target="_top" xlink:title="Current facing, in degrees (see Degrees).">
<polygon fill="white" stroke="#666666" points="329.5,-406 184.5,-406 184.5,-387 329.5,-387 329.5,-406"/>
<text text-anchor="middle" x="257" y="-394" font-family="Helvetica,sans-Serif" font-size="10.00">zappy::Player::getRotation</text>
</a>
</g>
</g>
<!-- Node1&#45;&gt;Node13 -->
<g id="edge18_Node000001_Node000013" class="edge">
<title>Node1&#45;&gt;Node13</title>
<g id="a_edge18_Node000001_Node000013"><a xlink:title=" ">
<path fill="none" stroke="#63b8ff" d="M90.55,-347.02C111.21,-356.08 143.79,-369.61 173,-378.5 180.34,-380.73 188.12,-382.8 195.87,-384.68"/>
<polygon fill="#63b8ff" stroke="#63b8ff" points="195.09,-388.09 205.62,-386.96 196.68,-381.28 195.09,-388.09"/>
</a>
</g>
</g>
<!-- Node14 -->
<g id="Node000014" class="node">
<title>Node14</title>
<g id="a_Node000014"><a xlink:href="classzappy_1_1Player.html#ad714c54e4fcee0484d05ad253ab10ccb" target="_top" xlink:title=" ">
<polygon fill="white" stroke="#666666" points="322,-369 192,-369 192,-350 322,-350 322,-369"/>
<text text-anchor="middle" x="257" y="-357" font-family="Helvetica,sans-Serif" font-size="10.00">zappy::Player::getTeam</text>
</a>
</g>
</g>
<!-- Node1&#45;&gt;Node14 -->
<g id="edge19_Node000001_Node000014" class="edge">
<title>Node1&#45;&gt;Node14</title>
<g id="a_edge19_Node000001_Node000014"><a xlink:title=" ">
<path fill="none" stroke="#63b8ff" d="M137.09,-345.47C151.58,-347.18 166.96,-349 181.68,-350.73"/>
<polygon fill="#63b8ff" stroke="#63b8ff" points="181.41,-354.22 191.75,-351.92 182.23,-347.27 181.41,-354.22"/>
</a>
</g>
</g>
<!-- Node15 -->
<g id="Node000015" class="node">
<title>Node15</title>
<g id="a_Node000015"><a xlink:href="classzappy_1_1World.html#a9fce895cc2d62e61b943f7d9e03471db" target="_top" xlink:title="Returns the tile at the given coordinates.">
<polygon fill="white" stroke="#666666" points="520.5,-132 391.5,-132 391.5,-113 520.5,-113 520.5,-132"/>
<text text-anchor="middle" x="456" y="-120" font-family="Helvetica,sans-Serif" font-size="10.00">zappy::World::getTileAt</text>
</a>
</g>
</g>
<!-- Node1&#45;&gt;Node15 -->
<g id="edge20_Node000001_Node000015" class="edge">
<title>Node1&#45;&gt;Node15</title>
<g id="a_edge20_Node000001_Node000015"><a xlink:title=" ">
<path fill="none" stroke="#63b8ff" d="M71.19,-327.96C77.54,-295.19 103.3,-186.78 173,-141.5 241.17,-97.22 339.21,-102.29 399.91,-111.39"/>
<polygon fill="#63b8ff" stroke="#63b8ff" points="399.63,-114.88 410.05,-113 400.72,-107.97 399.63,-114.88"/>
</a>
</g>
</g>
<!-- Node16 -->
<g id="Node000016" class="node">
<title>Node16</title>
<g id="a_Node000016"><a xlink:href="structzappy_1_1Team.html#a06e9cb5bf9415912467bb4843fb12ce0" target="_top" xlink:title="True if at least one egg is currently sitting on the given tile.">
<polygon fill="white" stroke="#666666" points="341,-246 173,-246 173,-227 341,-227 341,-246"/>
<text text-anchor="middle" x="257" y="-234" font-family="Helvetica,sans-Serif" font-size="10.00">zappy::Team::hasEggAtPosition</text>
</a>
</g>
</g>
<!-- Node1&#45;&gt;Node16 -->
<g id="edge21_Node000001_Node000016" class="edge">
<title>Node1&#45;&gt;Node16</title>
<g id="a_edge21_Node000001_Node000016"><a xlink:title=" ">
<path fill="none" stroke="#63b8ff" d="M78.49,-327.99C95.34,-310.77 133.53,-274.45 173,-255.5 178,-253.1 183.31,-251 188.74,-249.15"/>
<polygon fill="#63b8ff" stroke="#63b8ff" points="190.08,-252.4 198.6,-246.11 188.01,-245.72 190.08,-252.4"/>
</a>
</g>
</g>
<!-- Node17 -->
<g id="Node000017" class="node">
<title>Node17</title>
<g id="a_Node000017"><a xlink:href="namespacezappy.html#a6f4c56af6fff80513c2388249fd217f4" target="_top" xlink:title=" ">
<polygon fill="white" stroke="#666666" points="510.5,-246 401.5,-246 401.5,-227 510.5,-227 510.5,-246"/>
<text text-anchor="middle" x="456" y="-234" font-family="Helvetica,sans-Serif" font-size="10.00">zappy::operator==</text>
</a>
</g>
</g>
<!-- Node1&#45;&gt;Node17 -->
<g id="edge25_Node000001_Node000017" class="edge">
<title>Node1&#45;&gt;Node17</title>
<g id="a_edge25_Node000001_Node000017"><a xlink:title=" ">
<path fill="none" stroke="#63b8ff" d="M74.08,-327.91C86.2,-303.81 121.72,-240.99 173,-217.5 254.9,-179.99 364.35,-206.04 419.72,-223.79"/>
<polygon fill="#63b8ff" stroke="#63b8ff" points="418.82,-227.18 429.41,-226.99 421.02,-220.53 418.82,-227.18"/>
</a>
</g>
</g>
<!-- Node18 -->
<g id="Node000018" class="node">
<title>Node18</title>
<g id="a_Node000018"><a xlink:href="classzappy_1_1Logger.html#abab39dcd03894b824e5c7b03462dc483" target="_top" xlink:title="Prints one log line to stdout. Omits the &quot;(...)&quot; group when fields is empty.">
<polygon fill="white" stroke="#666666" points="508.5,-75 403.5,-75 403.5,-56 508.5,-56 508.5,-75"/>
<text text-anchor="middle" x="456" y="-63" font-family="Helvetica,sans-Serif" font-size="10.00">zappy::Logger::log</text>
</a>
</g>
</g>
<!-- Node1&#45;&gt;Node18 -->
<g id="edge23_Node000001_Node000018" class="edge">
<title>Node1&#45;&gt;Node18</title>
<g id="a_edge23_Node000001_Node000018"><a xlink:title=" ">
<path fill="none" stroke="#63b8ff" d="M70.44,-327.81C74.58,-291.18 94.54,-160.19 173,-101.5 206.71,-76.28 320.74,-68.69 393.06,-66.43"/>
<polygon fill="#63b8ff" stroke="#63b8ff" points="393.51,-69.91 403.41,-66.13 393.31,-62.92 393.51,-69.91"/>
</a>
</g>
</g>
<!-- Node19 -->
<g id="Node000019" class="node">
<title>Node19</title>
<g id="a_Node000019"><a xlink:href="classzappy_1_1Player.html#a8b9c6f16cad62adb3f85f645c300393f" target="_top" xlink:title="Tile the player would land on if it moved one step forward, with wrap&#45;around.">
<polygon fill="white" stroke="#666666" points="331.5,-170 182.5,-170 182.5,-151 331.5,-151 331.5,-170"/>
<text text-anchor="middle" x="257" y="-158" font-family="Helvetica,sans-Serif" font-size="10.00">zappy::Player::nextPosition</text>
</a>
</g>
</g>
<!-- Node1&#45;&gt;Node19 -->
<g id="edge24_Node000001_Node000019" class="edge">
<title>Node1&#45;&gt;Node19</title>
<g id="a_edge24_Node000001_Node000019"><a xlink:title=" ">
<path fill="none" stroke="#63b8ff" d="M73.2,-327.91C84.11,-300.95 118.79,-223.92 173,-184.5 179.01,-180.13 185.79,-176.56 192.83,-173.63"/>
<polygon fill="#63b8ff" stroke="#63b8ff" points="194.38,-176.79 202.54,-170.03 191.95,-170.23 194.38,-176.79"/>
</a>
</g>
</g>
<!-- Node20 -->
<g id="Node000020" class="node">
<title>Node20</title>
<g id="a_Node000020"><a xlink:href="structzappy_1_1Team.html#aad0897588cd6ebe5a589f0ff710a3ee1" target="_top" xlink:title="Removes eggs at a tile (and their slots). With eggID set, removes just that one egg; with count == &#45;1...">
<polygon fill="white" stroke="#666666" points="326.5,-283 187.5,-283 187.5,-264 326.5,-264 326.5,-283"/>
<text text-anchor="middle" x="257" y="-271" font-family="Helvetica,sans-Serif" font-size="10.00">zappy::Team::removeEgg</text>
</a>
</g>
</g>
<!-- Node1&#45;&gt;Node20 -->
<g id="edge26_Node000001_Node000020" class="edge">
<title>Node1&#45;&gt;Node20</title>
<g id="a_edge26_Node000001_Node000020"><a xlink:title=" ">
<path fill="none" stroke="#63b8ff" d="M88.54,-327.95C109,-317.99 142.66,-302.47 173,-292.5 180.79,-289.94 189.1,-287.6 197.33,-285.5"/>
<polygon fill="#63b8ff" stroke="#63b8ff" points="198.42,-288.84 207.31,-283.06 196.76,-282.04 198.42,-288.84"/>
</a>
</g>
</g>
<!-- Node21 -->
<g id="Node000021" class="node">
<title>Node21</title>
<g id="a_Node000021"><a xlink:href="classzappy_1_1World.html#a16e90e4f9247dcfdc66d275ab5fc2888" target="_top" xlink:title="Sends a message to every player currently standing on the given tile.">
<polygon fill="white" stroke="#666666" points="333,-331.5 181,-331.5 181,-301.5 333,-301.5 333,-331.5"/>
<text text-anchor="start" x="189" y="-319.5" font-family="Helvetica,sans-Serif" font-size="10.00">zappy::World::sendMessage</text>
<text text-anchor="middle" x="257" y="-308.5" font-family="Helvetica,sans-Serif" font-size="10.00">ToPlayersThatAreOnTile</text>
</a>
</g>
</g>
<!-- Node1&#45;&gt;Node21 -->
<g id="edge28_Node000001_Node000021" class="edge">
<title>Node1&#45;&gt;Node21</title>
<g id="a_edge28_Node000001_Node000021"><a xlink:title=" ">
<path fill="none" stroke="#63b8ff" d="M137.09,-329.89C147.95,-328.67 159.31,-327.39 170.51,-326.13"/>
<polygon fill="#63b8ff" stroke="#63b8ff" points="171.2,-329.57 180.74,-324.97 170.41,-322.61 171.2,-329.57"/>
</a>
</g>
</g>
<!-- Node23 -->
<g id="Node000023" class="node">
<title>Node23</title>
<g id="a_Node000023"><a xlink:href="classzappy_1_1Player.html#a16e2f2ea6458b369a60a87f6e26a663c" target="_top" xlink:title="Places the player at (x, y), wrapping into the map bounds.">
<polygon fill="white" stroke="#666666" points="328,-56 186,-56 186,-37 328,-37 328,-56"/>
<text text-anchor="middle" x="257" y="-44" font-family="Helvetica,sans-Serif" font-size="10.00">zappy::Player::setPosition</text>
</a>
</g>
</g>
<!-- Node1&#45;&gt;Node23 -->
<g id="edge33_Node000001_Node000023" class="edge">
<title>Node1&#45;&gt;Node23</title>
<g id="a_edge33_Node000001_Node000023"><a xlink:title=" ">
<path fill="none" stroke="#63b8ff" d="M70.25,-327.79C73.79,-289.11 92.14,-144.52 173,-70.5 177.39,-66.48 182.42,-63.13 187.78,-60.33"/>
<polygon fill="#63b8ff" stroke="#63b8ff" points="189.39,-63.45 197.07,-56.14 186.51,-57.07 189.39,-63.45"/>
</a>
</g>
</g>
<!-- Node24 -->
<g id="Node000024" class="node">
<title>Node24</title>
<g id="a_Node000024"><a xlink:href="classzappy_1_1World.html#a3d970927132d48c4440f41db095da4eb" target="_top" xlink:title="Sets the absolute count of a resource on a tile.">
<polygon fill="white" stroke="#666666" points="321,-19 193,-19 193,0 321,0 321,-19"/>
<text text-anchor="middle" x="257" y="-7" font-family="Helvetica,sans-Serif" font-size="10.00">zappy::World::setTileAt</text>
</a>
</g>
</g>
<!-- Node1&#45;&gt;Node24 -->
<g id="edge34_Node000001_Node000024" class="edge">
<title>Node1&#45;&gt;Node24</title>
<g id="a_edge34_Node000001_Node000024"><a xlink:title=" ">
<path fill="none" stroke="#63b8ff" d="M69.52,-327.87C70.14,-285.28 78.59,-112.17 173,-27.5 176.21,-24.62 179.77,-22.16 183.56,-20.07"/>
<polygon fill="#63b8ff" stroke="#63b8ff" points="185.15,-23.19 192.76,-15.82 182.21,-16.84 185.15,-23.19"/>
</a>
</g>
</g>
<!-- Node2&#45;&gt;Node3 -->
<g id="edge2_Node000002_Node000003" class="edge">
<title>Node2&#45;&gt;Node3</title>
<g id="a_edge2_Node000002_Node000003"><a xlink:title=" ">
<path fill="none" stroke="#63b8ff" d="M327.38,-661.5C332.26,-658.95 336.87,-655.98 341,-652.5 368.98,-628.95 350.19,-603.38 377,-578.5 385.1,-570.99 395.23,-565.2 405.5,-560.79"/>
<polygon fill="#63b8ff" stroke="#63b8ff" points="406.87,-564.01 414.9,-557.1 404.32,-557.49 406.87,-564.01"/>
</a>
</g>
</g>
<!-- Node4 -->
<g id="Node000004" class="node">
<title>Node4</title>
<g id="a_Node000004"><a xlink:href="classzappy_1_1Player.html#a7583690b204dac5e1382ba3a80256695" target="_top" xlink:title="This player&#39;s inventory.">
<polygon fill="white" stroke="#666666" points="531,-754 381,-754 381,-735 531,-735 531,-754"/>
<text text-anchor="middle" x="456" y="-742" font-family="Helvetica,sans-Serif" font-size="10.00">zappy::Player::getInventory</text>
</a>
</g>
</g>
<!-- Node2&#45;&gt;Node4 -->
<g id="edge3_Node000002_Node000004" class="edge">
<title>Node2&#45;&gt;Node4</title>
<g id="a_edge3_Node000002_Node000004"><a xlink:title=" ">
<path fill="none" stroke="#63b8ff" d="M289.76,-691.6C313.42,-702.41 346.72,-716.72 377,-726.5 383.58,-728.62 390.54,-730.6 397.49,-732.41"/>
<polygon fill="#63b8ff" stroke="#63b8ff" points="397.07,-735.91 407.62,-734.93 398.77,-729.12 397.07,-735.91"/>
</a>
</g>
</g>
<!-- Node5 -->
<g id="Node000005" class="node">
<title>Node5</title>
<g id="a_Node000005"><a xlink:href="classzappy_1_1Inventory.html#ae39a467d579b96abd514a9068b914959" target="_top" xlink:title="Mutable access to the underlying item counts, indexed by ItemType.">
<polygon fill="white" stroke="#666666" points="529,-717 383,-717 383,-698 529,-698 529,-717"/>
<text text-anchor="middle" x="456" y="-705" font-family="Helvetica,sans-Serif" font-size="10.00">zappy::Inventory::getItems</text>
</a>
</g>
</g>
<!-- Node2&#45;&gt;Node5 -->
<g id="edge4_Node000002_Node000005" class="edge">
<title>Node2&#45;&gt;Node5</title>
<g id="a_edge4_Node000002_Node000005"><a xlink:title=" ">
<path fill="none" stroke="#63b8ff" d="M334.73,-688.57C351.1,-691.15 368.32,-693.86 384.45,-696.4"/>
<polygon fill="#63b8ff" stroke="#63b8ff" points="383.91,-699.86 394.33,-697.95 385,-692.94 383.91,-699.86"/>
</a>
</g>
</g>
<!-- Node6 -->
<g id="Node000006" class="node">
<title>Node6</title>
<g id="a_Node000006"><a xlink:href="classzappy_1_1Player.html#a70dc9f5c05ea552c47350da37b3bd027" target="_top" xlink:title="Current elevation level (1..8).">
<polygon fill="white" stroke="#666666" points="521,-680 391,-680 391,-661 521,-661 521,-680"/>
<text text-anchor="middle" x="456" y="-668" font-family="Helvetica,sans-Serif" font-size="10.00">zappy::Player::getLevel</text>
</a>
</g>
</g>
<!-- Node2&#45;&gt;Node6 -->
<g id="edge5_Node000002_Node000006" class="edge">
<title>Node2&#45;&gt;Node6</title>
<g id="a_edge5_Node000002_Node000006"><a xlink:title=" ">
<path fill="none" stroke="#63b8ff" d="M334.73,-674.16C349.83,-673.7 365.64,-673.22 380.66,-672.76"/>
<polygon fill="#63b8ff" stroke="#63b8ff" points="381.02,-676.25 390.91,-672.45 380.81,-669.26 381.02,-676.25"/>
</a>
</g>
</g>
<!-- Node7 -->
<g id="Node000007" class="node">
<title>Node7</title>
<g id="a_Node000007"><a xlink:href="classzappy_1_1Player.html#a179f8fcc7fbb9a11bda72d37982bc30b" target="_top" xlink:title="Current facing as the protocol&#39;s 1..4 orientation (NORTH=1, EAST=2, SOUTH=3, WEST=4).">
<polygon fill="white" stroke="#666666" points="535,-643 377,-643 377,-624 535,-624 535,-643"/>
<text text-anchor="middle" x="456" y="-631" font-family="Helvetica,sans-Serif" font-size="10.00">zappy::Player::getOrientation</text>
</a>
</g>
</g>
<!-- Node2&#45;&gt;Node7 -->
<g id="edge6_Node000002_Node000007" class="edge">
<title>Node2&#45;&gt;Node7</title>
<g id="a_edge6_Node000002_Node000007"><a xlink:title=" ">
<path fill="none" stroke="#63b8ff" d="M326.9,-661.46C351.35,-656.12 378.49,-650.2 401.47,-645.18"/>
<polygon fill="#63b8ff" stroke="#63b8ff" points="402.35,-648.57 411.37,-643.02 400.86,-641.74 402.35,-648.57"/>
</a>
</g>
</g>
<!-- Node2&#45;&gt;Node8 -->
<g id="edge7_Node000002_Node000008" class="edge">
<title>Node2&#45;&gt;Node8</title>
<g id="a_edge7_Node000002_Node000008"><a xlink:title=" ">
<path fill="none" stroke="#63b8ff" d="M322.84,-661.37C329.17,-658.83 335.34,-655.89 341,-652.5 360.68,-640.7 357.08,-626.88 377,-615.5 380.92,-613.26 385.09,-611.29 389.4,-609.54"/>
<polygon fill="#63b8ff" stroke="#63b8ff" points="390.76,-612.77 398.97,-606.08 388.38,-606.19 390.76,-612.77"/>
</a>
</g>
</g>
<!-- Node9&#45;&gt;Node3 -->
<g id="edge9_Node000009_Node000003" class="edge">
<title>Node9&#45;&gt;Node3</title>
<g id="a_edge9_Node000009_Node000003"><a xlink:title=" ">
<path fill="none" stroke="#63b8ff" d="M293.33,-613.44C316.97,-603.42 348.79,-590.03 377,-578.5 391.44,-572.6 407.43,-566.21 421.17,-560.78"/>
<polygon fill="#63b8ff" stroke="#63b8ff" points="422.69,-563.94 430.71,-557.01 420.12,-557.43 422.69,-563.94"/>
</a>
</g>
</g>
<!-- Node9&#45;&gt;Node7 -->
<g id="edge10_Node000009_Node000007" class="edge">
<title>Node9&#45;&gt;Node7</title>
<g id="a_edge10_Node000009_Node000007"><a xlink:title=" ">
<path fill="none" stroke="#63b8ff" d="M334.73,-630.45C345.21,-630.71 356.03,-630.99 366.7,-631.26"/>
<polygon fill="#63b8ff" stroke="#63b8ff" points="366.77,-634.76 376.86,-631.52 366.95,-627.76 366.77,-634.76"/>
</a>
</g>
</g>
<!-- Node9&#45;&gt;Node8 -->
<g id="edge11_Node000009_Node000008" class="edge">
<title>Node9&#45;&gt;Node8</title>
<g id="a_edge11_Node000009_Node000008"><a xlink:title=" ">
<path fill="none" stroke="#63b8ff" d="M334.73,-616.04C351.73,-613.28 369.64,-610.37 386.29,-607.66"/>
<polygon fill="#63b8ff" stroke="#63b8ff" points="387.17,-611.06 396.48,-606.01 386.05,-604.15 387.17,-611.06"/>
</a>
</g>
</g>
<!-- Node11&#45;&gt;Node3 -->
<g id="edge15_Node000011_Node000003" class="edge">
<title>Node11&#45;&gt;Node3</title>
<g id="a_edge15_Node000011_Node000003"><a xlink:title=" ">
<path fill="none" stroke="#63b8ff" d="M308.13,-482.01C319.1,-484.63 330.55,-487.79 341,-491.5 372.64,-502.72 406.97,-520.4 429.6,-532.89"/>
<polygon fill="#63b8ff" stroke="#63b8ff" points="428.1,-536.06 438.53,-537.89 431.52,-529.95 428.1,-536.06"/>
</a>
</g>
</g>
<!-- Node16&#45;&gt;Node17 -->
<g id="edge22_Node000016_Node000017" class="edge">
<title>Node16&#45;&gt;Node17</title>
<g id="a_edge22_Node000016_Node000017"><a xlink:title=" ">
<path fill="none" stroke="#63b8ff" d="M341.26,-236.5C357.97,-236.5 375.28,-236.5 391.21,-236.5"/>
<polygon fill="#63b8ff" stroke="#63b8ff" points="391.45,-240 401.45,-236.5 391.45,-233 391.45,-240"/>
</a>
</g>
</g>
<!-- Node20&#45;&gt;Node17 -->
<g id="edge27_Node000020_Node000017" class="edge">
<title>Node20&#45;&gt;Node17</title>
<g id="a_edge27_Node000020_Node000017"><a xlink:title=" ">
<path fill="none" stroke="#63b8ff" d="M308.73,-263.97C334.83,-259.07 366.82,-253.06 394.23,-247.91"/>
<polygon fill="#63b8ff" stroke="#63b8ff" points="394.92,-251.35 404.1,-246.06 393.62,-244.47 394.92,-251.35"/>
</a>
</g>
</g>
<!-- Node21&#45;&gt;Node3 -->
<g id="edge29_Node000021_Node000003" class="edge">
<title>Node21&#45;&gt;Node3</title>
<g id="a_edge29_Node000021_Node000003"><a xlink:title=" ">
<path fill="none" stroke="#63b8ff" d="M325.72,-331.58C331.2,-334.35 336.4,-337.62 341,-341.5 368.37,-364.54 359.99,-382.02 377,-413.5 399.69,-455.5 428.38,-503.61 443.86,-529.22"/>
<polygon fill="#63b8ff" stroke="#63b8ff" points="440.93,-531.13 449.11,-537.87 446.92,-527.5 440.93,-531.13"/>
</a>
</g>
</g>
<!-- Node21&#45;&gt;Node12 -->
<g id="edge30_Node000021_Node000012" class="edge">
<title>Node21&#45;&gt;Node12</title>
<g id="a_edge30_Node000021_Node000012"><a xlink:title=" ">
<path fill="none" stroke="#63b8ff" d="M311.96,-331.53C321.71,-334.59 331.72,-337.97 341,-341.5 371.16,-352.99 404.52,-368.89 427.31,-380.27"/>
<polygon fill="#63b8ff" stroke="#63b8ff" points="425.89,-383.47 436.39,-384.85 429.04,-377.22 425.89,-383.47"/>
</a>
</g>
</g>
<!-- Node21&#45;&gt;Node15 -->
<g id="edge31_Node000021_Node000015" class="edge">
<title>Node21&#45;&gt;Node15</title>
<g id="a_edge31_Node000021_Node000015"><a xlink:title=" ">
<path fill="none" stroke="#63b8ff" d="M327.81,-301.31C332.53,-298.8 336.99,-295.89 341,-292.5 369.22,-268.61 357.13,-248.68 377,-217.5 395.6,-188.32 421.93,-157.99 438.74,-139.67"/>
<polygon fill="#63b8ff" stroke="#63b8ff" points="441.49,-141.86 445.73,-132.15 436.36,-137.09 441.49,-141.86"/>
</a>
</g>
</g>
<!-- Node22 -->
<g id="Node000022" class="node">
<title>Node22</title>
<g id="a_Node000022"><a xlink:href="classzappy_1_1Client.html#afd9816d0a687764ad9ee4772739a326e" target="_top" xlink:title="Writes the given message to the client socket, if it is valid. Logs an error if the write fails.">
<polygon fill="white" stroke="#666666" points="511,-326 401,-326 401,-307 511,-307 511,-326"/>
<text text-anchor="middle" x="456" y="-314" font-family="Helvetica,sans-Serif" font-size="10.00">zappy::Client::write</text>
</a>
</g>
</g>
<!-- Node21&#45;&gt;Node22 -->
<g id="edge32_Node000021_Node000022" class="edge">
<title>Node21&#45;&gt;Node22</title>
<g id="a_edge32_Node000021_Node000022"><a xlink:title=" ">
<path fill="none" stroke="#63b8ff" d="M333.04,-316.5C352.12,-316.5 372.45,-316.5 390.93,-316.5"/>
<polygon fill="#63b8ff" stroke="#63b8ff" points="390.99,-320 400.99,-316.5 390.99,-313 390.99,-320"/>
</a>
</g>
</g>
<!-- Node24&#45;&gt;Node15 -->
<g id="edge35_Node000024_Node000015" class="edge">
<title>Node24&#45;&gt;Node15</title>
<g id="a_edge35_Node000024_Node000015"><a xlink:title=" ">
<path fill="none" stroke="#63b8ff" d="M321.4,-17.7C328.36,-20.18 335.06,-23.38 341,-27.5 365.31,-44.37 354.98,-63.73 377,-83.5 388.81,-94.1 404.02,-102.56 417.87,-108.85"/>
<polygon fill="#63b8ff" stroke="#63b8ff" points="416.62,-112.12 427.19,-112.86 419.39,-105.69 416.62,-112.12"/>
</a>
</g>
</g>
<!-- Node24&#45;&gt;Node18 -->
<g id="edge37_Node000024_Node000018" class="edge">
<title>Node24&#45;&gt;Node18</title>
<g id="a_edge37_Node000024_Node000018"><a xlink:title=" ">
<path fill="none" stroke="#63b8ff" d="M306.49,-19.09C317.87,-21.6 329.91,-24.46 341,-27.5 367.52,-34.77 396.95,-44.63 419.27,-52.48"/>
<polygon fill="#63b8ff" stroke="#63b8ff" points="418.39,-55.89 428.98,-55.93 420.73,-49.29 418.39,-55.89"/>
</a>
</g>
</g>
<!-- Node25 -->
<g id="Node000025" class="node">
<title>Node25</title>
<g id="a_Node000025"><a xlink:href="namespacezappy.html#aef0d81865578aa094dcbd509e0055a81" target="_top" xlink:title="Converts an ItemType to its protocol name (e.g. LINEMATE &#45;&gt; &quot;linemate&quot;).">
<polygon fill="white" stroke="#666666" points="523.5,-19 388.5,-19 388.5,0 523.5,0 523.5,-19"/>
<text text-anchor="middle" x="456" y="-7" font-family="Helvetica,sans-Serif" font-size="10.00">zappy::itemTypeToString</text>
</a>
</g>
</g>
<!-- Node24&#45;&gt;Node25 -->
<g id="edge36_Node000024_Node000025" class="edge">
<title>Node24&#45;&gt;Node25</title>
<g id="a_edge36_Node000024_Node000025"><a xlink:title=" ">
<path fill="none" stroke="#63b8ff" d="M321.14,-9.5C339.37,-9.5 359.45,-9.5 378.39,-9.5"/>
<polygon fill="#63b8ff" stroke="#63b8ff" points="378.48,-13 388.48,-9.5 378.48,-6 378.48,-13"/>
</a>
</g>
</g>
</g>
</svg>
