<?xml version="1.0" encoding="UTF-8" standalone="no"?>
<!DOCTYPE svg PUBLIC "-//W3C//DTD SVG 1.1//EN"
 "http://www.w3.org/Graphics/SVG/1.1/DTD/svg11.dtd">
<!-- Generated by graphviz version 2.43.0 (0)
 -->
<!-- Title: Zappy::Shader::uniformLocation Pages: 1 -->
<svg width="363pt" height="64pt"
 viewBox="0.00 0.00 363.00 64.00" xmlns="http://www.w3.org/2000/svg" xmlns:xlink="http://www.w3.org/1999/xlink">
<g id="graph0" class="graph" transform="scale(1 1) rotate(0) translate(4 60)">
<title>Zappy::Shader::uniformLocation</title>
<!-- Node1 -->
<g id="Node000001" class="node">
<title>Node1</title>
<g id="a_Node000001"><a xlink:title="Resolves a uniform location, warning (without throwing) if it is missing.">
<polygon fill="#999999" stroke="#666666" points="355,-37 183,-37 183,-18 355,-18 355,-37"/>
<text text-anchor="middle" x="269" y="-25" font-family="Helvetica,sans-Serif" font-size="10.00">Zappy::Shader::uniformLocation</text>
</a>
</g>
</g>
<!-- Node2 -->
<g id="Node000002" class="node">
<title>Node2</title>
<g id="a_Node000002"><a xlink:href="classZappy_1_1Shader.html#a0d2cf44781028e8b7b958914e42fde62" target="_top" xlink:title="Sets a float uniform.">
<polygon fill="white" stroke="#666666" points="147,-56 0,-56 0,-37 147,-37 147,-56"/>
<text text-anchor="middle" x="73.5" y="-44" font-family="Helvetica,sans-Serif" font-size="10.00">Zappy::Shader::setUniform</text>
</a>
</g>
</g>
<!-- Node1&#45;&gt;Node2 -->
<g id="edge1_Node000001_Node000002" class="edge">
<title>Node1&#45;&gt;Node2</title>
<g id="a_edge1_Node000001_Node000002"><a xlink:title=" ">
<path fill="none" stroke="#63b8ff" d="M172.8,-36.85C164.22,-37.69 155.62,-38.53 147.28,-39.35"/>
<polygon fill="#63b8ff" stroke="#63b8ff" points="173.24,-40.32 182.85,-35.86 172.55,-33.36 173.24,-40.32"/>
</a>
</g>
</g>
<!-- Node3 -->
<g id="Node000003" class="node">
<title>Node3</title>
<g id="a_Node000003"><a xlink:href="classZappy_1_1Shader.html#a4c8fd3916af02b5a7393a78f8e24af65" target="_top" xlink:title="Sets an int uniform.">
<polygon fill="white" stroke="#666666" points="147,-19 0,-19 0,0 147,0 147,-19"/>
<text text-anchor="middle" x="73.5" y="-7" font-family="Helvetica,sans-Serif" font-size="10.00">Zappy::Shader::setUniform</text>
</a>
</g>
</g>
<!-- Node1&#45;&gt;Node3 -->
<g id="edge2_Node000001_Node000003" class="edge">
<title>Node1&#45;&gt;Node3</title>
<g id="a_edge2_Node000001_Node000003"><a xlink:title=" ">
<path fill="none" stroke="#63b8ff" d="M172.8,-18.64C164.22,-17.85 155.62,-17.05 147.28,-16.27"/>
<polygon fill="#63b8ff" stroke="#63b8ff" points="172.57,-22.14 182.85,-19.58 173.21,-15.17 172.57,-22.14"/>
</a>
</g>
</g>
</g>
</svg>
