<?xml version="1.0" encoding="UTF-8" standalone="no"?>
<!DOCTYPE svg PUBLIC "-//W3C//DTD SVG 1.1//EN"
 "http://www.w3.org/Graphics/SVG/1.1/DTD/svg11.dtd">
<!-- Generated by graphviz version 2.43.0 (0)
 -->
<!-- Title: zappy::World::isIncantationValid Pages: 1 -->
<svg width="1082pt" height="86pt"
 viewBox="0.00 0.00 1082.00 86.00" xmlns="http://www.w3.org/2000/svg" xmlns:xlink="http://www.w3.org/1999/xlink">
<g id="graph0" class="graph" transform="scale(1 1) rotate(0) translate(4 82)">
<title>zappy::World::isIncantationValid</title>
<!-- Node1 -->
<g id="Node000001" class="node">
<title>Node1</title>
<g id="a_Node000001"><a xlink:title="Checks whether an elevation from level to level + 1 can take place on the tile. Verifies both the min...">
<polygon fill="#999999" stroke="#666666" points="1074,-53 926,-53 926,-23 1074,-23 1074,-53"/>
<text text-anchor="start" x="934" y="-41" font-family="Helvetica,sans-Serif" font-size="10.00">zappy::World::isIncantation</text>
<text text-anchor="middle" x="1000" y="-30" font-family="Helvetica,sans-Serif" font-size="10.00">Valid</text>
</a>
</g>
</g>
<!-- Node2 -->
<g id="Node000002" class="node">
<title>Node2</title>
<g id="a_Node000002"><a xlink:href="classzappy_1_1Commands.html#afc2159b221207ae6bf4ac860fab8db5f" target="_top" xlink:title="Starts an incantation: validates prerequisites, notifies the initiator and the GUI,...">
<polygon fill="white" stroke="#666666" points="890,-69.5 696,-69.5 696,-50.5 890,-50.5 890,-69.5"/>
<text text-anchor="middle" x="793" y="-57.5" font-family="Helvetica,sans-Serif" font-size="10.00">zappy::Commands::beginIncantation</text>
</a>
</g>
</g>
<!-- Node1&#45;&gt;Node2 -->
<g id="edge1_Node000001_Node000002" class="edge">
<title>Node1&#45;&gt;Node2</title>
<g id="a_edge1_Node000001_Node000002"><a xlink:title=" ">
<path fill="none" stroke="#63b8ff" d="M915.88,-46.92C904.9,-48.1 893.61,-49.31 882.55,-50.5"/>
<polygon fill="#63b8ff" stroke="#63b8ff" points="916.29,-50.4 925.86,-45.85 915.54,-43.44 916.29,-50.4"/>
</a>
</g>
</g>
<!-- Node8 -->
<g id="Node000008" class="node">
<title>Node8</title>
<g id="a_Node000008"><a xlink:href="classzappy_1_1Commands.html#a54be59514213eff7dcab5bd0ffbf273d" target="_top" xlink:title="Attempts to start an elevation ritual on the current tile (see beginIncantation).">
<polygon fill="white" stroke="#666666" points="876.5,-29.5 709.5,-29.5 709.5,-10.5 876.5,-10.5 876.5,-29.5"/>
<text text-anchor="middle" x="793" y="-17.5" font-family="Helvetica,sans-Serif" font-size="10.00">zappy::Commands::Incantation</text>
</a>
</g>
</g>
<!-- Node1&#45;&gt;Node8 -->
<g id="edge7_Node000001_Node000008" class="edge">
<title>Node1&#45;&gt;Node8</title>
<g id="a_edge7_Node000001_Node000008"><a xlink:title=" ">
<path fill="none" stroke="#63b8ff" d="M915.62,-30.68C902.72,-29.55 889.41,-28.38 876.53,-27.25"/>
<polygon fill="#63b8ff" stroke="#63b8ff" points="915.59,-34.19 925.86,-31.58 916.2,-27.22 915.59,-34.19"/>
</a>
</g>
</g>
<!-- Node3 -->
<g id="Node000003" class="node">
<title>Node3</title>
<g id="a_Node000003"><a xlink:href="classzappy_1_1CommandParser.html#a2eaa3e9cec905216d43b7286e6c018a7" target="_top" xlink:title="Reads pending data from the client socket into the command queue.">
<polygon fill="white" stroke="#666666" points="660,-78 529,-78 529,-48 660,-48 660,-78"/>
<text text-anchor="start" x="537" y="-66" font-family="Helvetica,sans-Serif" font-size="10.00">zappy::CommandParser</text>
<text text-anchor="middle" x="594.5" y="-55" font-family="Helvetica,sans-Serif" font-size="10.00">::feed</text>
</a>
</g>
</g>
<!-- Node2&#45;&gt;Node3 -->
<g id="edge2_Node000002_Node000003" class="edge">
<title>Node2&#45;&gt;Node3</title>
<g id="a_edge2_Node000002_Node000003"><a xlink:title=" ">
<path fill="none" stroke="#63b8ff" d="M685.6,-61.62C676.96,-61.76 668.4,-61.89 660.2,-62.01"/>
<polygon fill="#63b8ff" stroke="#63b8ff" points="685.82,-65.12 695.76,-61.47 685.71,-58.12 685.82,-65.12"/>
</a>
</g>
</g>
<!-- Node4 -->
<g id="Node000004" class="node">
<title>Node4</title>
<g id="a_Node000004"><a xlink:href="classzappy_1_1ClientHandler.html#a1ed7cca92089d8c0c1743aa93167af4b" target="_top" xlink:title=" ">
<polygon fill="white" stroke="#666666" points="488,-78 367,-78 367,-48 488,-48 488,-78"/>
<text text-anchor="start" x="375" y="-66" font-family="Helvetica,sans-Serif" font-size="10.00">zappy::ClientHandler</text>
<text text-anchor="middle" x="427.5" y="-55" font-family="Helvetica,sans-Serif" font-size="10.00">::clientEventHandling</text>
</a>
</g>
</g>
<!-- Node3&#45;&gt;Node4 -->
<g id="edge3_Node000003_Node000004" class="edge">
<title>Node3&#45;&gt;Node4</title>
<g id="a_edge3_Node000003_Node000004"><a xlink:title=" ">
<path fill="none" stroke="#63b8ff" d="M518.64,-63C508.44,-63 498.09,-63 488.21,-63"/>
<polygon fill="#63b8ff" stroke="#63b8ff" points="518.76,-66.5 528.76,-63 518.76,-59.5 518.76,-66.5"/>
</a>
</g>
</g>
<!-- Node5 -->
<g id="Node000005" class="node">
<title>Node5</title>
<g id="a_Node000005"><a xlink:href="classzappy_1_1ClientHandler.html#afdb8fe8ed8f6188e930880e315fb2c4a" target="_top" xlink:title="Runs the blocking event loop: polls for I/O, accepts new clients, dispatches commands,...">
<polygon fill="white" stroke="#666666" points="326,-78 208,-78 208,-48 326,-48 326,-78"/>
<text text-anchor="start" x="216" y="-66" font-family="Helvetica,sans-Serif" font-size="10.00">zappy::ClientHandler</text>
<text text-anchor="middle" x="267" y="-55" font-family="Helvetica,sans-Serif" font-size="10.00">::handleClients</text>
</a>
</g>
</g>
<!-- Node4&#45;&gt;Node5 -->
<g id="edge4_Node000004_Node000005" class="edge">
<title>Node4&#45;&gt;Node5</title>
<g id="a_edge4_Node000004_Node000005"><a xlink:title=" ">
<path fill="none" stroke="#63b8ff" d="M356.53,-63C346.39,-63 336.05,-63 326.17,-63"/>
<polygon fill="#63b8ff" stroke="#63b8ff" points="356.58,-66.5 366.58,-63 356.58,-59.5 356.58,-66.5"/>
</a>
</g>
</g>
<!-- Node6 -->
<g id="Node000006" class="node">
<title>Node6</title>
<g id="a_Node000006"><a xlink:href="classzappy_1_1Core.html#a6cedeb79a573e46f2131b71d3ca17a31" target="_top" xlink:title="Builds the world and network handler, then runs the blocking event loop.">
<polygon fill="white" stroke="#666666" points="172,-72.5 77,-72.5 77,-53.5 172,-53.5 172,-72.5"/>
<text text-anchor="middle" x="124.5" y="-60.5" font-family="Helvetica,sans-Serif" font-size="10.00">zappy::Core::run</text>
</a>
</g>
</g>
<!-- Node5&#45;&gt;Node6 -->
<g id="edge5_Node000005_Node000006" class="edge">
<title>Node5&#45;&gt;Node6</title>
<g id="a_edge5_Node000005_Node000006"><a xlink:title=" ">
<path fill="none" stroke="#63b8ff" d="M197.63,-63C189.07,-63 180.47,-63 172.35,-63"/>
<polygon fill="#63b8ff" stroke="#63b8ff" points="197.64,-66.5 207.64,-63 197.64,-59.5 197.64,-66.5"/>
</a>
</g>
</g>
<!-- Node7 -->
<g id="Node000007" class="node">
<title>Node7</title>
<g id="a_Node000007"><a xlink:href="main_8cpp.html#a0c99d968a34e803d378692bde2e3f18f" target="_top" xlink:title=" ">
<polygon fill="white" stroke="#666666" points="41,-72.5 0,-72.5 0,-53.5 41,-53.5 41,-72.5"/>
<text text-anchor="middle" x="20.5" y="-60.5" font-family="Helvetica,sans-Serif" font-size="10.00">main</text>
</a>
</g>
</g>
<!-- Node6&#45;&gt;Node7 -->
<g id="edge6_Node000006_Node000007" class="edge">
<title>Node6&#45;&gt;Node7</title>
<g id="a_edge6_Node000006_Node000007"><a xlink:title=" ">
<path fill="none" stroke="#63b8ff" d="M66.91,-63C57.67,-63 48.67,-63 41.16,-63"/>
<polygon fill="#63b8ff" stroke="#63b8ff" points="66.98,-66.5 76.98,-63 66.98,-59.5 66.98,-66.5"/>
</a>
</g>
</g>
<!-- Node9 -->
<g id="Node000009" class="node">
<title>Node9</title>
<g id="a_Node000009"><a xlink:href="classzappy_1_1CommandParser.html#a629df3248cf7038782f23805ea6c806e" target="_top" xlink:title="Fills _aiCommands with the AI protocol commands and their durations.">
<polygon fill="white" stroke="#666666" points="660,-30 529,-30 529,0 660,0 660,-30"/>
<text text-anchor="start" x="537" y="-18" font-family="Helvetica,sans-Serif" font-size="10.00">zappy::CommandParser</text>
<text text-anchor="middle" x="594.5" y="-7" font-family="Helvetica,sans-Serif" font-size="10.00">::_initAICommands</text>
</a>
</g>
</g>
<!-- Node8&#45;&gt;Node9 -->
<g id="edge8_Node000008_Node000009" class="edge">
<title>Node8&#45;&gt;Node9</title>
<g id="a_edge8_Node000008_Node000009"><a xlink:title=" ">
<path fill="none" stroke="#63b8ff" d="M699.21,-17.64C686.04,-17.3 672.74,-16.97 660.26,-16.65"/>
<polygon fill="#63b8ff" stroke="#63b8ff" points="699.15,-21.14 709.24,-17.89 699.33,-14.14 699.15,-21.14"/>
</a>
</g>
</g>
<!-- Node10 -->
<g id="Node000010" class="node">
<title>Node10</title>
<g id="a_Node000010"><a xlink:href="classzappy_1_1CommandParser.html#a741addd675a90a09b183e9518b626962" target="_top" xlink:title="Builds a parser for one client.">
<polygon fill="white" stroke="#666666" points="493,-30 362,-30 362,0 493,0 493,-30"/>
<text text-anchor="start" x="370" y="-18" font-family="Helvetica,sans-Serif" font-size="10.00">zappy::CommandParser</text>
<text text-anchor="middle" x="427.5" y="-7" font-family="Helvetica,sans-Serif" font-size="10.00">::CommandParser</text>
</a>
</g>
</g>
<!-- Node9&#45;&gt;Node10 -->
<g id="edge9_Node000009_Node000010" class="edge">
<title>Node9&#45;&gt;Node10</title>
<g id="a_edge9_Node000009_Node000010"><a xlink:title=" ">
<path fill="none" stroke="#63b8ff" d="M518.76,-15C510.18,-15 501.48,-15 493.05,-15"/>
<polygon fill="#63b8ff" stroke="#63b8ff" points="518.76,-18.5 528.76,-15 518.76,-11.5 518.76,-18.5"/>
</a>
</g>
</g>
</g>
</svg>
