<?xml version="1.0" encoding="UTF-8" standalone="no"?>
<!DOCTYPE svg PUBLIC "-//W3C//DTD SVG 1.1//EN"
 "http://www.w3.org/Graphics/SVG/1.1/DTD/svg11.dtd">
<!-- Generated by graphviz version 2.43.0 (0)
 -->
<!-- Title: Zappy::IEntity::level Pages: 1 -->
<!--zoomable 354 -->

<svg id="main" version="1.1" xmlns="http://www.w3.org/2000/svg" xmlns:xlink="http://www.w3.org/1999/xlink" xml:space="preserve" onload="init(evt)">
<style type="text/css"><![CDATA[
.node, .edge {opacity: 0.7;}
.node.selected, .edge.selected {opacity: 1;}
.edge:hover path { stroke: red; }
.edge:hover polygon { stroke: red; fill: red; }
]]></style>

<defs>
  <circle id="rim" cx="0" cy="0" r="7"/>
  <circle id="rim2" cx="0" cy="0" r="3.5"/>
  <g id="zoomPlus">
    <use xlink:href="#rim" fill="#404040"><set attributeName="fill" to="#808080" begin="zoomplus.mouseover" end="zoomplus.mouseout"/></use>
    <path d="M-4,0h8M0,-4v8" fill="none" stroke="white" stroke-width="1.5" pointer-events="none"/>
  </g>
  <g id="zoomMin">
    <use xlink:href="#rim" fill="#404040"><set attributeName="fill" to="#808080" begin="zoomminus.mouseover" end="zoomminus.mouseout"/></use>
    <path d="M-4,0h8" fill="none" stroke="white" stroke-width="1.5" pointer-events="none"/>
  </g>
  <g id="arrowUp" transform="translate(30 24)">
    <use xlink:href="#rim"/>
    <path pointer-events="none" fill="none" stroke="white" stroke-width="1.5" d="M0,-3.0v7 M-2.5,-0.5L0,-3.0L2.5,-0.5"/>
  </g>
  <g id="arrowRight" transform="rotate(90) translate(36 -43)">
    <use xlink:href="#rim"/>
    <path pointer-events="none" fill="none" stroke="white" stroke-width="1.5" d="M0,-3.0v7 M-2.5,-0.5L0,-3.0L2.5,-0.5"/>
  </g>
  <g id="arrowDown" transform="rotate(180) translate(-30 -48)">
    <use xlink:href="#rim"/>
    <path pointer-events="none" fill="none" stroke="white" stroke-width="1.5" d="M0,-3.0v7 M-2.5,-0.5L0,-3.0L2.5,-0.5"/>
  </g>
  <g id="arrowLeft" transform="rotate(270) translate(-36 17)">
    <use xlink:href="#rim"/>
    <path pointer-events="none" fill="none" stroke="white" stroke-width="1.5" d="M0,-3.0v7 M-2.5,-0.5L0,-3.0L2.5,-0.5"/>
  </g>
  <g id="resetDef">
    <use xlink:href="#rim2" fill="#404040"><set attributeName="fill" to="#808080" begin="reset.mouseover" end="reset.mouseout"/></use>
  </g>
</defs>
<script type="application/ecmascript">
var viewWidth = 903;
var viewHeight = 354;
var sectionId = 'dynsection-3';
</script>
<script type="application/ecmascript" xlink:href="svg.min.js"/>
<svg id="graph" class="graph">
<g id="viewport">
<title>Zappy::IEntity::level</title>
<!-- Node1 -->
<g id="Node000001" class="node">
<title>Node1</title>
<g id="a_Node000001"><a xlink:title="Player elevation level, or 0 for entities without a level (e.g.">
<polygon fill="#999999" stroke="#666666" points="895,-193.5 782,-193.5 782,-174.5 895,-174.5 895,-193.5"/>
<text text-anchor="middle" x="838.5" y="-181.5" font-family="Helvetica,sans-Serif" font-size="10.00">Zappy::IEntity::level</text>
</a>
</g>
</g>
<!-- Node2 -->
<g id="Node000002" class="node">
<title>Node2</title>
<g id="a_Node000002"><a xlink:href="classia_1_1strategy_1_1Strategy.html#ae73928a77981d633504d13b65602df2e" target="_top" xlink:title=" ">
<polygon fill="white" stroke="#666666" points="582,-163 469,-163 469,-133 582,-133 582,-163"/>
<text text-anchor="start" x="477" y="-151" font-family="Helvetica,sans-Serif" font-size="10.00">ia.strategy.Strategy.</text>
<text text-anchor="middle" x="525.5" y="-140" font-family="Helvetica,sans-Serif" font-size="10.00">_do_incanting</text>
</a>
</g>
</g>
<!-- Node1&#45;&gt;Node2 -->
<g id="edge1_Node000001_Node000002" class="edge">
<title>Node1&#45;&gt;Node2</title>
<g id="a_edge1_Node000001_Node000002"><a xlink:title=" ">
<path fill="none" stroke="#63b8ff" d="M771.82,-173.53C763.15,-172.27 754.37,-171.06 746,-170 690.34,-162.96 626.5,-156.77 582.07,-152.77"/>
<polygon fill="#63b8ff" stroke="#63b8ff" points="771.52,-177.02 781.92,-175.02 772.54,-170.1 771.52,-177.02"/>
</a>
</g>
</g>
<!-- Node4 -->
<g id="Node000004" class="node">
<title>Node4</title>
<g id="a_Node000004"><a xlink:href="classia_1_1strategy_1_1Strategy.html#a9a38a8af29b18d2f8683ec0b65a0982c" target="_top" xlink:title=" ">
<polygon fill="white" stroke="#666666" points="134,-166.5 0,-166.5 0,-147.5 134,-147.5 134,-166.5"/>
<text text-anchor="middle" x="67" y="-154.5" font-family="Helvetica,sans-Serif" font-size="10.00">ia.strategy.Strategy.step</text>
</a>
</g>
</g>
<!-- Node1&#45;&gt;Node4 -->
<g id="edge20_Node000001_Node000004" class="edge">
<title>Node1&#45;&gt;Node4</title>
<g id="a_edge20_Node000001_Node000004"><a xlink:title=" ">
<path fill="none" stroke="#63b8ff" d="M827.7,-202.72C813.33,-228.23 784.07,-273.4 746,-297 661.04,-349.66 626.46,-346 526.5,-346 526.5,-346 526.5,-346 375.5,-346 237.01,-346 108.47,-205.15 75.91,-166.63"/>
<polygon fill="#63b8ff" stroke="#63b8ff" points="830.9,-204.16 832.62,-193.7 824.75,-200.81 830.9,-204.16"/>
</a>
</g>
</g>
<!-- Node5 -->
<g id="Node000005" class="node">
<title>Node5</title>
<g id="a_Node000005"><a xlink:href="classia_1_1strategy_1_1Strategy.html#abfcac0e166ce9275850bb113ebc28a42" target="_top" xlink:title=" ">
<polygon fill="white" stroke="#666666" points="433,-206 320,-206 320,-176 433,-176 433,-206"/>
<text text-anchor="start" x="328" y="-194" font-family="Helvetica,sans-Serif" font-size="10.00">ia.strategy.Strategy.</text>
<text text-anchor="middle" x="376.5" y="-183" font-family="Helvetica,sans-Serif" font-size="10.00">_do_waiting</text>
</a>
</g>
</g>
<!-- Node1&#45;&gt;Node5 -->
<g id="edge4_Node000001_Node000005" class="edge">
<title>Node1&#45;&gt;Node5</title>
<g id="a_edge4_Node000001_Node000005"><a xlink:title=" ">
<path fill="none" stroke="#63b8ff" d="M771.36,-185.01C680.35,-186.39 518.13,-188.86 433.06,-190.15"/>
<polygon fill="#63b8ff" stroke="#63b8ff" points="771.61,-188.5 781.55,-184.85 771.5,-181.5 771.61,-188.5"/>
</a>
</g>
</g>
<!-- Node6 -->
<g id="Node000006" class="node">
<title>Node6</title>
<g id="a_Node000006"><a xlink:href="classia_1_1strategy_1_1Strategy.html#a4d8561ad2e9f0762e5b9bd065648dfad" target="_top" xlink:title=" ">
<polygon fill="white" stroke="#666666" points="582,-309 469,-309 469,-279 582,-279 582,-309"/>
<text text-anchor="start" x="477" y="-297" font-family="Helvetica,sans-Serif" font-size="10.00">ia.strategy.Strategy.</text>
<text text-anchor="middle" x="525.5" y="-286" font-family="Helvetica,sans-Serif" font-size="10.00">_is_ready</text>
</a>
</g>
</g>
<!-- Node1&#45;&gt;Node6 -->
<g id="edge6_Node000001_Node000006" class="edge">
<title>Node1&#45;&gt;Node6</title>
<g id="a_edge6_Node000001_Node000006"><a xlink:title=" ">
<path fill="none" stroke="#63b8ff" d="M824.57,-201.71C808.62,-222.05 779.46,-254.59 746,-270 694.12,-293.9 628.27,-298.11 582.29,-297.45"/>
<polygon fill="#63b8ff" stroke="#63b8ff" points="827.49,-203.65 830.76,-193.58 821.92,-199.42 827.49,-203.65"/>
</a>
</g>
</g>
<!-- Node8 -->
<g id="Node000008" class="node">
<title>Node8</title>
<g id="a_Node000008"><a xlink:href="classia_1_1strategy_1_1Strategy.html#ab7259dc958e7734bdbac77afafde24d3" target="_top" xlink:title=" ">
<polygon fill="white" stroke="#666666" points="738.5,-242 625.5,-242 625.5,-212 738.5,-212 738.5,-242"/>
<text text-anchor="start" x="633.5" y="-230" font-family="Helvetica,sans-Serif" font-size="10.00">ia.strategy.Strategy.</text>
<text text-anchor="middle" x="682" y="-219" font-family="Helvetica,sans-Serif" font-size="10.00">_own_contribution</text>
</a>
</g>
</g>
<!-- Node1&#45;&gt;Node8 -->
<g id="edge9_Node000001_Node000008" class="edge">
<title>Node1&#45;&gt;Node8</title>
<g id="a_edge9_Node000001_Node000008"><a xlink:title=" ">
<path fill="none" stroke="#63b8ff" d="M793.23,-196.32C775.68,-201.21 755.32,-206.87 736.92,-211.99"/>
<polygon fill="#63b8ff" stroke="#63b8ff" points="794.52,-199.6 803.21,-193.54 792.64,-192.85 794.52,-199.6"/>
</a>
</g>
</g>
<!-- Node9 -->
<g id="Node000009" class="node">
<title>Node9</title>
<g id="a_Node000009"><a xlink:href="classia_1_1strategy_1_1Strategy.html#a58693c49048a2657bc49cd562b2202c4" target="_top" xlink:title=" ">
<polygon fill="white" stroke="#666666" points="582,-252 469,-252 469,-222 582,-222 582,-252"/>
<text text-anchor="start" x="477" y="-240" font-family="Helvetica,sans-Serif" font-size="10.00">ia.strategy.Strategy.</text>
<text text-anchor="middle" x="525.5" y="-229" font-family="Helvetica,sans-Serif" font-size="10.00">_send_ready_ping</text>
</a>
</g>
</g>
<!-- Node1&#45;&gt;Node9 -->
<g id="edge19_Node000001_Node000009" class="edge">
<title>Node1&#45;&gt;Node9</title>
<g id="a_edge19_Node000001_Node000009"><a xlink:title=" ">
<path fill="none" stroke="#63b8ff" d="M821.13,-201.12C804.14,-217.53 775.91,-241.22 746,-251 692.28,-268.56 627.31,-261.14 582.06,-251.75"/>
<polygon fill="#63b8ff" stroke="#63b8ff" points="823.92,-203.28 828.52,-193.74 818.97,-198.32 823.92,-203.28"/>
</a>
</g>
</g>
<!-- Node10 -->
<g id="Node000010" class="node">
<title>Node10</title>
<g id="a_Node000010"><a xlink:href="classia_1_1strategy_1_1Strategy.html#a7b7b297b6fbc6fe701318661b3cad9b5" target="_top" xlink:title=" ">
<polygon fill="white" stroke="#666666" points="284,-129 170,-129 170,-99 284,-99 284,-129"/>
<text text-anchor="start" x="178" y="-117" font-family="Helvetica,sans-Serif" font-size="10.00">ia.strategy.Strategy.</text>
<text text-anchor="middle" x="227" y="-106" font-family="Helvetica,sans-Serif" font-size="10.00">_process_messages</text>
</a>
</g>
</g>
<!-- Node1&#45;&gt;Node10 -->
<g id="edge13_Node000001_Node000010" class="edge">
<title>Node1&#45;&gt;Node10</title>
<g id="a_edge13_Node000001_Node000010"><a xlink:title=" ">
<path fill="none" stroke="#63b8ff" d="M804.18,-170.84C787.01,-164.44 765.61,-157.07 746,-152 582.3,-109.72 380.52,-108.99 284.25,-111.62"/>
<polygon fill="#63b8ff" stroke="#63b8ff" points="803.17,-174.2 813.76,-174.46 805.64,-167.65 803.17,-174.2"/>
</a>
</g>
</g>
<!-- Node11 -->
<g id="Node000011" class="node">
<title>Node11</title>
<g id="a_Node000011"><a xlink:href="classia_1_1strategy_1_1Strategy.html#adb095813776b33560638b7d96a882d9f" target="_top" xlink:title=" ">
<polygon fill="white" stroke="#666666" points="746,-78 618,-78 618,-48 746,-48 746,-78"/>
<text text-anchor="start" x="626" y="-66" font-family="Helvetica,sans-Serif" font-size="10.00">ia.strategy.Strategy.</text>
<text text-anchor="middle" x="682" y="-55" font-family="Helvetica,sans-Serif" font-size="10.00">_ready_for_incantation</text>
</a>
</g>
</g>
<!-- Node1&#45;&gt;Node11 -->
<g id="edge15_Node000001_Node000011" class="edge">
<title>Node1&#45;&gt;Node11</title>
<g id="a_edge15_Node000001_Node000011"><a xlink:title=" ">
<path fill="none" stroke="#63b8ff" d="M823.5,-166.54C806.74,-146.52 777.02,-113.67 746,-92 738.5,-86.76 729.9,-82.07 721.51,-78.08"/>
<polygon fill="#63b8ff" stroke="#63b8ff" points="820.8,-168.77 829.85,-174.27 826.2,-164.32 820.8,-168.77"/>
</a>
</g>
</g>
<!-- Node12 -->
<g id="Node000012" class="node">
<title>Node12</title>
<g id="a_Node000012"><a xlink:href="classia_1_1strategy_1_1Strategy.html#a70feeaa9c9999c42c6514c1e37aaf10e" target="_top" xlink:title=" ">
<polygon fill="white" stroke="#666666" points="738.5,-30 625.5,-30 625.5,0 738.5,0 738.5,-30"/>
<text text-anchor="start" x="633.5" y="-18" font-family="Helvetica,sans-Serif" font-size="10.00">ia.strategy.Strategy.</text>
<text text-anchor="middle" x="682" y="-7" font-family="Helvetica,sans-Serif" font-size="10.00">_required_players</text>
</a>
</g>
</g>
<!-- Node1&#45;&gt;Node12 -->
<g id="edge16_Node000001_Node000012" class="edge">
<title>Node1&#45;&gt;Node12</title>
<g id="a_edge16_Node000001_Node000012"><a xlink:title=" ">
<path fill="none" stroke="#63b8ff" d="M830.16,-164.86C817.47,-134.18 788.65,-73.91 746,-39 741.83,-35.59 737.13,-32.63 732.22,-30.07"/>
<polygon fill="#63b8ff" stroke="#63b8ff" points="827,-166.4 833.97,-174.39 833.5,-163.8 827,-166.4"/>
</a>
</g>
</g>
<!-- Node3 -->
<g id="Node000003" class="node">
<title>Node3</title>
<g id="a_Node000003"><a xlink:href="classia_1_1strategy_1_1Strategy.html#a80efd785879b0eedb51c45e704cb1c4a" target="_top" xlink:title=" ">
<polygon fill="white" stroke="#666666" points="283.5,-192 170.5,-192 170.5,-162 283.5,-162 283.5,-192"/>
<text text-anchor="start" x="178.5" y="-180" font-family="Helvetica,sans-Serif" font-size="10.00">ia.strategy.Strategy.</text>
<text text-anchor="middle" x="227" y="-169" font-family="Helvetica,sans-Serif" font-size="10.00">_run_state</text>
</a>
</g>
</g>
<!-- Node2&#45;&gt;Node3 -->
<g id="edge2_Node000002_Node000003" class="edge">
<title>Node2&#45;&gt;Node3</title>
<g id="a_edge2_Node000002_Node000003"><a xlink:title=" ">
<path fill="none" stroke="#63b8ff" d="M458.74,-153.85C418.64,-157.48 366.34,-162.33 320,-167 308.33,-168.18 295.84,-169.49 283.93,-170.78"/>
<polygon fill="#63b8ff" stroke="#63b8ff" points="459.28,-157.31 468.93,-152.93 458.65,-150.34 459.28,-157.31"/>
</a>
</g>
</g>
<!-- Node3&#45;&gt;Node4 -->
<g id="edge3_Node000003_Node000004" class="edge">
<title>Node3&#45;&gt;Node4</title>
<g id="a_edge3_Node000003_Node000004"><a xlink:title=" ">
<path fill="none" stroke="#63b8ff" d="M160.25,-168.68C151.58,-167.58 142.69,-166.45 134.02,-165.36"/>
<polygon fill="#63b8ff" stroke="#63b8ff" points="159.93,-172.17 170.3,-169.95 160.81,-165.22 159.93,-172.17"/>
</a>
</g>
</g>
<!-- Node5&#45;&gt;Node3 -->
<g id="edge5_Node000005_Node000003" class="edge">
<title>Node5&#45;&gt;Node3</title>
<g id="a_edge5_Node000005_Node000003"><a xlink:title=" ">
<path fill="none" stroke="#63b8ff" d="M309.7,-184.75C301.07,-183.94 292.29,-183.1 283.84,-182.3"/>
<polygon fill="#63b8ff" stroke="#63b8ff" points="309.45,-188.25 319.74,-185.71 310.11,-181.28 309.45,-188.25"/>
</a>
</g>
</g>
<!-- Node7 -->
<g id="Node000007" class="node">
<title>Node7</title>
<g id="a_Node000007"><a xlink:href="classia_1_1strategy_1_1Strategy.html#ad52d3664f5831789d358a334496fab41" target="_top" xlink:title=" ">
<polygon fill="white" stroke="#666666" points="433,-254 320,-254 320,-224 433,-224 433,-254"/>
<text text-anchor="start" x="328" y="-242" font-family="Helvetica,sans-Serif" font-size="10.00">ia.strategy.Strategy.</text>
<text text-anchor="middle" x="376.5" y="-231" font-family="Helvetica,sans-Serif" font-size="10.00">_do_gathering</text>
</a>
</g>
</g>
<!-- Node6&#45;&gt;Node7 -->
<g id="edge7_Node000006_Node000007" class="edge">
<title>Node6&#45;&gt;Node7</title>
<g id="a_edge7_Node000006_Node000007"><a xlink:title=" ">
<path fill="none" stroke="#63b8ff" d="M474.83,-275.42C456.2,-268.44 435.28,-260.62 417.62,-254.01"/>
<polygon fill="#63b8ff" stroke="#63b8ff" points="473.74,-278.74 484.33,-278.97 476.19,-272.19 473.74,-278.74"/>
</a>
</g>
</g>
<!-- Node7&#45;&gt;Node3 -->
<g id="edge8_Node000007_Node000003" class="edge">
<title>Node7&#45;&gt;Node3</title>
<g id="a_edge8_Node000007_Node000003"><a xlink:title=" ">
<path fill="none" stroke="#63b8ff" d="M330.29,-220C308.97,-211.03 283.88,-200.49 263.89,-192.09"/>
<polygon fill="#63b8ff" stroke="#63b8ff" points="329.22,-223.34 339.79,-223.99 331.93,-216.89 329.22,-223.34"/>
</a>
</g>
</g>
<!-- Node8&#45;&gt;Node9 -->
<g id="edge10_Node000008_Node000009" class="edge">
<title>Node8&#45;&gt;Node9</title>
<g id="a_edge10_Node000008_Node000009"><a xlink:title=" ">
<path fill="none" stroke="#63b8ff" d="M615.23,-231.26C604.23,-231.97 592.91,-232.7 582.2,-233.4"/>
<polygon fill="#63b8ff" stroke="#63b8ff" points="615.47,-234.75 625.22,-230.61 615.02,-227.76 615.47,-234.75"/>
</a>
</g>
</g>
<!-- Node9&#45;&gt;Node5 -->
<g id="edge12_Node000009_Node000005" class="edge">
<title>Node9&#45;&gt;Node5</title>
<g id="a_edge12_Node000009_Node000005"><a xlink:title=" ">
<path fill="none" stroke="#63b8ff" d="M466.61,-218.88C452.99,-214.62 438.62,-210.13 425.49,-206.02"/>
<polygon fill="#63b8ff" stroke="#63b8ff" points="465.78,-222.29 476.37,-221.94 467.87,-215.61 465.78,-222.29"/>
</a>
</g>
</g>
<!-- Node9&#45;&gt;Node7 -->
<g id="edge11_Node000009_Node000007" class="edge">
<title>Node9&#45;&gt;Node7</title>
<g id="a_edge11_Node000009_Node000007"><a xlink:title=" ">
<path fill="none" stroke="#63b8ff" d="M458.92,-237.89C450.32,-238.01 441.57,-238.13 433.15,-238.24"/>
<polygon fill="#63b8ff" stroke="#63b8ff" points="458.97,-241.39 468.93,-237.76 458.88,-234.39 458.97,-241.39"/>
</a>
</g>
</g>
<!-- Node10&#45;&gt;Node4 -->
<g id="edge14_Node000010_Node000004" class="edge">
<title>Node10&#45;&gt;Node4</title>
<g id="a_edge14_Node000010_Node000004"><a xlink:title=" ">
<path fill="none" stroke="#63b8ff" d="M160.86,-131.73C141.13,-137.1 120.21,-142.79 103.22,-147.41"/>
<polygon fill="#63b8ff" stroke="#63b8ff" points="162.01,-135.04 170.74,-129.04 160.17,-128.29 162.01,-135.04"/>
</a>
</g>
</g>
<!-- Node13 -->
<g id="Node000013" class="node">
<title>Node13</title>
<g id="a_Node000013"><a xlink:href="classia_1_1strategy_1_1Strategy.html#afc69edfb6b5741dcae17abb06b0aa312" target="_top" xlink:title=" ">
<polygon fill="white" stroke="#666666" points="433,-68 320,-68 320,-38 433,-38 433,-68"/>
<text text-anchor="start" x="328" y="-56" font-family="Helvetica,sans-Serif" font-size="10.00">ia.strategy.Strategy.</text>
<text text-anchor="middle" x="376.5" y="-45" font-family="Helvetica,sans-Serif" font-size="10.00">_select_state</text>
</a>
</g>
</g>
<!-- Node12&#45;&gt;Node13 -->
<g id="edge17_Node000012_Node000013" class="edge">
<title>Node12&#45;&gt;Node13</title>
<g id="a_edge17_Node000012_Node000013"><a xlink:title=" ">
<path fill="none" stroke="#63b8ff" d="M615.1,-23.25C560.72,-30.06 484.4,-39.62 433.07,-46.04"/>
<polygon fill="#63b8ff" stroke="#63b8ff" points="615.85,-26.69 625.33,-21.97 614.98,-19.74 615.85,-26.69"/>
</a>
</g>
</g>
<!-- Node13&#45;&gt;Node4 -->
<g id="edge18_Node000013_Node000004" class="edge">
<title>Node13&#45;&gt;Node4</title>
<g id="a_edge18_Node000013_Node000004"><a xlink:title=" ">
<path fill="none" stroke="#63b8ff" d="M309.81,-58.04C268.52,-62.84 214.79,-72.13 170,-90 133.99,-104.37 97.34,-132.43 79.37,-147.27"/>
<polygon fill="#63b8ff" stroke="#63b8ff" points="310.2,-61.52 319.76,-56.94 309.43,-54.56 310.2,-61.52"/>
</a>
</g>
</g>
</g>
</svg>

<g id="navigator" transform="translate(0 0)" fill="#404254">
  <rect fill="#f2f5e9" fill-opacity="0.5" stroke="#606060" stroke-width=".5" x="0" y="0" width="60" height="60"/>
  <use id="zoomplus" xlink:href="#zoomPlus" x="17" y="9" onmousedown="handleZoom(evt,'in')"/>
  <use id="zoomminus" xlink:href="#zoomMin" x="42" y="9" onmousedown="handleZoom(evt,'out')"/>
  <use id="reset" xlink:href="#resetDef" x="30" y="36" onmousedown="handleReset()"/>
   <use id="arrowup" xlink:href="#arrowUp" x="0" y="0" onmousedown="handlePan(0,-1)"/>
  <use id="arrowright" xlink:href="#arrowRight" x="0" y="0" onmousedown="handlePan(1,0)"/>
  <use id="arrowdown" xlink:href="#arrowDown" x="0" y="0" onmousedown="handlePan(0,1)"/>
  <use id="arrowleft" xlink:href="#arrowLeft" x="0" y="0" onmousedown="handlePan(-1,0)"/>
</g>
<svg viewBox="0 0 15 15" width="100%" height="30px" preserveAspectRatio="xMaxYMin meet">
 <g id="arrow_out" transform="scale(0.3 0.3)">
  <a xlink:href="classZappy_1_1IEntity_aa4bf5ab5fd6ae0bf0d5db8090abc7bd2_icgraph_org.svg" target="_base">
   <rect id="button" ry="5" rx="5" y="6" x="6" height="38" width="38"
        fill="#f2f5e9" fill-opacity="0.5" stroke="#606060" stroke-width="1.0"/>
   <path id="arrow"
     d="M 11.500037,31.436501 C 11.940474,20.09759 22.043105,11.32322 32.158766,21.979434 L 37.068811,17.246167 C 37.068811,17.246167 37.088388,32 37.088388,32 L 22.160133,31.978069 C 22.160133,31.978069 26.997745,27.140456 26.997745,27.140456 C 18.528582,18.264221 13.291696,25.230495 11.500037,31.436501 z"
     style="fill:#404040;"/>
  </a>
 </g>
</svg>

<style type='text/css'>
<![CDATA[
[data-mouse-over-selected='false'] { opacity: 0.7; }
[data-mouse-over-selected='true']  { opacity: 1.0; }
]]>
</style>
<script type="application/ecmascript"><![CDATA[
document.addEventListener('DOMContentLoaded', (event) => {
  highlightEdges();
  highlightAdjacentNodes();
});
]]></script>
</svg>
