<?xml version="1.0" encoding="UTF-8" standalone="no"?>
<!DOCTYPE svg PUBLIC "-//W3C//DTD SVG 1.1//EN"
 "http://www.w3.org/Graphics/SVG/1.1/DTD/svg11.dtd">
<!-- Generated by graphviz version 2.43.0 (0)
 -->
<!-- Title: ia.client.ZappyAIClient.run Pages: 1 -->
<svg width="359pt" height="82pt"
 viewBox="0.00 0.00 359.00 82.00" xmlns="http://www.w3.org/2000/svg" xmlns:xlink="http://www.w3.org/1999/xlink">
<g id="graph0" class="graph" transform="scale(1 1) rotate(0) translate(4 78)">
<title>ia.client.ZappyAIClient.run</title>
<!-- Node1 -->
<g id="Node000001" class="node">
<title>Node1</title>
<g id="a_Node000001"><a xlink:title=" ">
<polygon fill="#999999" stroke="#666666" points="146,-37 0,-37 0,-18 146,-18 146,-37"/>
<text text-anchor="middle" x="73" y="-25" font-family="Helvetica,sans-Serif" font-size="10.00">ia.client.ZappyAIClient.run</text>
</a>
</g>
</g>
<!-- Node2 -->
<g id="Node000002" class="node">
<title>Node2</title>
<g id="a_Node000002"><a xlink:href="classia_1_1client_1_1ZappyAIClient.html#a38d9776ebf2b7139f9ea3a2e3d13af6d" target="_top" xlink:title=" ">
<polygon fill="white" stroke="#666666" points="344.5,-56 188.5,-56 188.5,-37 344.5,-37 344.5,-56"/>
<text text-anchor="middle" x="266.5" y="-44" font-family="Helvetica,sans-Serif" font-size="10.00">ia.client.ZappyAIClient.close</text>
</a>
</g>
</g>
<!-- Node1&#45;&gt;Node2 -->
<g id="edge1_Node000001_Node000002" class="edge">
<title>Node1&#45;&gt;Node2</title>
<g id="a_edge1_Node000001_Node000002"><a xlink:title=" ">
<path fill="none" stroke="#63b8ff" d="M146.13,-34.66C156.57,-35.69 167.42,-36.77 178.12,-37.83"/>
<polygon fill="#63b8ff" stroke="#63b8ff" points="178.03,-41.34 188.32,-38.84 178.72,-34.37 178.03,-41.34"/>
</a>
</g>
</g>
<!-- Node3 -->
<g id="Node000003" class="node">
<title>Node3</title>
<g id="a_Node000003"><a xlink:href="classia_1_1client_1_1ZappyAIClient.html#a86f72541ea0ce3d93d815c0ecfeeed9f" target="_top" xlink:title=" ">
<polygon fill="white" stroke="#666666" points="351,-19 182,-19 182,0 351,0 351,-19"/>
<text text-anchor="middle" x="266.5" y="-7" font-family="Helvetica,sans-Serif" font-size="10.00">ia.client.ZappyAIClient.connect</text>
</a>
</g>
</g>
<!-- Node1&#45;&gt;Node3 -->
<g id="edge3_Node000001_Node000003" class="edge">
<title>Node1&#45;&gt;Node3</title>
<g id="a_edge3_Node000001_Node000003"><a xlink:title=" ">
<path fill="none" stroke="#63b8ff" d="M146.13,-20.72C154.51,-19.93 163.15,-19.12 171.77,-18.31"/>
<polygon fill="#63b8ff" stroke="#63b8ff" points="172.23,-21.78 181.86,-17.36 171.57,-14.81 172.23,-21.78"/>
</a>
</g>
</g>
<!-- Node2&#45;&gt;Node2 -->
<g id="edge2_Node000002_Node000002" class="edge">
<title>Node2&#45;&gt;Node2</title>
<g id="a_edge2_Node000002_Node000002"><a xlink:title=" ">
<path fill="none" stroke="#63b8ff" d="M236.91,-56.08C222.51,-64.73 232.38,-74 266.5,-74 289.96,-74 301.95,-69.62 302.48,-64.07"/>
<polygon fill="#63b8ff" stroke="#63b8ff" points="305.07,-61.71 296.09,-56.08 299.61,-66.08 305.07,-61.71"/>
</a>
</g>
</g>
</g>
</svg>
