<?xml version="1.0" encoding="UTF-8" standalone="no"?>
<!DOCTYPE svg PUBLIC "-//W3C//DTD SVG 1.1//EN"
 "http://www.w3.org/Graphics/SVG/1.1/DTD/svg11.dtd">
<!-- Generated by graphviz version 2.43.0 (0)
 -->
<!-- Title: cgltf_volume Pages: 1 -->
<svg width="736pt" height="1216pt"
 viewBox="0.00 0.00 736.00 1216.00" xmlns="http://www.w3.org/2000/svg" xmlns:xlink="http://www.w3.org/1999/xlink">
<g id="graph0" class="graph" transform="scale(1 1) rotate(0) translate(4 1212)">
<title>cgltf_volume</title>
<!-- Node1 -->
<g id="Node000001" class="node">
<title>Node1</title>
<g id="a_Node000001"><a xlink:title=" ">
<polygon fill="#999999" stroke="transparent" points="691,-79 567,-79 567,0 691,0 691,-79"/>
<text text-anchor="start" x="597" y="-66.5" font-family="Helvetica,sans-Serif" font-size="10.00">cgltf_volume</text>
<text text-anchor="start" x="571" y="-51.5" font-family="Helvetica,sans-Serif" font-size="10.00">+</text>
<text text-anchor="start" x="584" y="-51.5" font-family="Helvetica,sans-Serif" font-size="10.00">thickness_factor</text>
<text text-anchor="start" x="571" y="-36.5" font-family="Helvetica,sans-Serif" font-size="10.00">+</text>
<text text-anchor="start" x="584" y="-36.5" font-family="Helvetica,sans-Serif" font-size="10.00">attenuation_color</text>
<text text-anchor="start" x="571" y="-21.5" font-family="Helvetica,sans-Serif" font-size="10.00">+</text>
<text text-anchor="start" x="584" y="-21.5" font-family="Helvetica,sans-Serif" font-size="10.00">attenuation_distance</text>
<text text-anchor="start" x="627" y="-6.5" font-family="Helvetica,sans-Serif" font-size="10.00"> </text>
<polygon fill="#666666" stroke="#666666" points="567,-61.5 567,-61.5 691,-61.5 691,-61.5 567,-61.5"/>
<polygon fill="#666666" stroke="#666666" points="567,-16.5 567,-16.5 582,-16.5 582,-16.5 567,-16.5"/>
<polygon fill="#666666" stroke="#666666" points="582,-16.5 582,-16.5 691,-16.5 691,-16.5 582,-16.5"/>
<polygon fill="none" stroke="#666666" points="567,0 567,-79 691,-79 691,0 567,0"/>
</a>
</g>
</g>
<!-- Node2 -->
<g id="Node000002" class="node">
<title>Node2</title>
<g id="a_Node000002"><a xlink:href="structcgltf__texture__view.html" target="_top" xlink:title=" ">
<polygon fill="white" stroke="transparent" points="679.5,-205 578.5,-205 578.5,-126 679.5,-126 679.5,-205"/>
<text text-anchor="start" x="584" y="-192.5" font-family="Helvetica,sans-Serif" font-size="10.00">cgltf_texture_view</text>
<text text-anchor="start" x="585" y="-177.5" font-family="Helvetica,sans-Serif" font-size="10.00">+</text>
<text text-anchor="start" x="600" y="-177.5" font-family="Helvetica,sans-Serif" font-size="10.00">texcoord</text>
<text text-anchor="start" x="585" y="-162.5" font-family="Helvetica,sans-Serif" font-size="10.00">+</text>
<text text-anchor="start" x="600" y="-162.5" font-family="Helvetica,sans-Serif" font-size="10.00">scale</text>
<text text-anchor="start" x="585" y="-147.5" font-family="Helvetica,sans-Serif" font-size="10.00">+</text>
<text text-anchor="start" x="600" y="-147.5" font-family="Helvetica,sans-Serif" font-size="10.00">has_transform</text>
<text text-anchor="start" x="627.5" y="-132.5" font-family="Helvetica,sans-Serif" font-size="10.00"> </text>
<polygon fill="#666666" stroke="#666666" points="579,-187.5 579,-187.5 680,-187.5 680,-187.5 579,-187.5"/>
<polygon fill="#666666" stroke="#666666" points="579,-142.5 579,-142.5 598,-142.5 598,-142.5 579,-142.5"/>
<polygon fill="#666666" stroke="#666666" points="598,-142.5 598,-142.5 680,-142.5 680,-142.5 598,-142.5"/>
<polygon fill="none" stroke="#666666" points="578.5,-126 578.5,-205 679.5,-205 679.5,-126 578.5,-126"/>
</a>
</g>
</g>
<!-- Node2&#45;&gt;Node1 -->
<g id="edge1_Node000001_Node000002" class="edge">
<title>Node2&#45;&gt;Node1</title>
<g id="a_edge1_Node000001_Node000002"><a xlink:title=" ">
<path fill="none" stroke="#63b8ff" d="M629,-125.95C629,-114.98 629,-102.87 629,-91.3"/>
<polygon fill="none" stroke="#63b8ff" points="629,-91.03 625,-85.03 629,-79.03 633,-85.03 629,-91.03"/>
</a>
</g>
<text text-anchor="middle" x="678.5" y="-100" font-family="Helvetica,sans-Serif" font-size="10.00" fill="grey"> +thickness_texture</text>
</g>
<!-- Node3 -->
<g id="Node000003" class="node">
<title>Node3</title>
<g id="a_Node000003"><a xlink:href="structcgltf__texture.html" target="_top" xlink:title=" ">
<polygon fill="white" stroke="transparent" points="583.5,-353.5 476.5,-353.5 476.5,-259.5 583.5,-259.5 583.5,-353.5"/>
<text text-anchor="start" x="499" y="-341.5" font-family="Helvetica,sans-Serif" font-size="10.00">cgltf_texture</text>
<text text-anchor="start" x="481" y="-326.5" font-family="Helvetica,sans-Serif" font-size="10.00">+</text>
<text text-anchor="start" x="494" y="-326.5" font-family="Helvetica,sans-Serif" font-size="10.00">name</text>
<text text-anchor="start" x="481" y="-311.5" font-family="Helvetica,sans-Serif" font-size="10.00">+</text>
<text text-anchor="start" x="494" y="-311.5" font-family="Helvetica,sans-Serif" font-size="10.00">has_basisu</text>
<text text-anchor="start" x="481" y="-296.5" font-family="Helvetica,sans-Serif" font-size="10.00">+</text>
<text text-anchor="start" x="494" y="-296.5" font-family="Helvetica,sans-Serif" font-size="10.00">has_webp</text>
<text text-anchor="start" x="481" y="-281.5" font-family="Helvetica,sans-Serif" font-size="10.00">+</text>
<text text-anchor="start" x="494" y="-281.5" font-family="Helvetica,sans-Serif" font-size="10.00">extensions_count</text>
<text text-anchor="start" x="528.5" y="-266.5" font-family="Helvetica,sans-Serif" font-size="10.00"> </text>
<polygon fill="#666666" stroke="#666666" points="477,-336.5 477,-336.5 584,-336.5 584,-336.5 477,-336.5"/>
<polygon fill="#666666" stroke="#666666" points="477,-276.5 477,-276.5 492,-276.5 492,-276.5 477,-276.5"/>
<polygon fill="#666666" stroke="#666666" points="492,-276.5 492,-276.5 584,-276.5 584,-276.5 492,-276.5"/>
<polygon fill="none" stroke="#666666" points="476.5,-259.5 476.5,-353.5 583.5,-353.5 583.5,-259.5 476.5,-259.5"/>
</a>
</g>
</g>
<!-- Node3&#45;&gt;Node2 -->
<g id="edge2_Node000002_Node000003" class="edge">
<title>Node3&#45;&gt;Node2</title>
<g id="a_edge2_Node000002_Node000003"><a xlink:title=" ">
<path fill="none" stroke="#63b8ff" d="M562.97,-259.22C573.01,-245.11 584.09,-229.56 594.25,-215.29"/>
<polygon fill="none" stroke="#63b8ff" points="594.5,-214.94 594.72,-207.73 601.46,-205.16 601.24,-212.37 594.5,-214.94"/>
</a>
</g>
<text text-anchor="middle" x="612.5" y="-226" font-family="Helvetica,sans-Serif" font-size="10.00" fill="grey"> +texture</text>
</g>
<!-- Node4 -->
<g id="Node000004" class="node">
<title>Node4</title>
<g id="a_Node000004"><a xlink:href="structcgltf__image.html" target="_top" xlink:title=" ">
<polygon fill="white" stroke="transparent" points="411.5,-524 304.5,-524 304.5,-430 411.5,-430 411.5,-524"/>
<text text-anchor="start" x="329.5" y="-512" font-family="Helvetica,sans-Serif" font-size="10.00">cgltf_image</text>
<text text-anchor="start" x="309" y="-497" font-family="Helvetica,sans-Serif" font-size="10.00">+</text>
<text text-anchor="start" x="322" y="-497" font-family="Helvetica,sans-Serif" font-size="10.00">name</text>
<text text-anchor="start" x="309" y="-482" font-family="Helvetica,sans-Serif" font-size="10.00">+</text>
<text text-anchor="start" x="322" y="-482" font-family="Helvetica,sans-Serif" font-size="10.00">uri</text>
<text text-anchor="start" x="309" y="-467" font-family="Helvetica,sans-Serif" font-size="10.00">+</text>
<text text-anchor="start" x="322" y="-467" font-family="Helvetica,sans-Serif" font-size="10.00">mime_type</text>
<text text-anchor="start" x="309" y="-452" font-family="Helvetica,sans-Serif" font-size="10.00">+</text>
<text text-anchor="start" x="322" y="-452" font-family="Helvetica,sans-Serif" font-size="10.00">extensions_count</text>
<text text-anchor="start" x="356.5" y="-437" font-family="Helvetica,sans-Serif" font-size="10.00"> </text>
<polygon fill="#666666" stroke="#666666" points="305,-507 305,-507 412,-507 412,-507 305,-507"/>
<polygon fill="#666666" stroke="#666666" points="305,-447 305,-447 320,-447 320,-447 305,-447"/>
<polygon fill="#666666" stroke="#666666" points="320,-447 320,-447 412,-447 412,-447 320,-447"/>
<polygon fill="none" stroke="#666666" points="304.5,-430 304.5,-524 411.5,-524 411.5,-430 304.5,-430"/>
</a>
</g>
</g>
<!-- Node4&#45;&gt;Node3 -->
<g id="edge3_Node000003_Node000004" class="edge">
<title>Node4&#45;&gt;Node3</title>
<g id="a_edge3_Node000003_Node000004"><a xlink:title=" ">
<path fill="none" stroke="#63b8ff" d="M403.67,-429.89C419.8,-413.71 438.13,-395.47 455,-379 460.49,-373.64 466.23,-368.08 471.99,-362.54"/>
<polygon fill="none" stroke="#63b8ff" points="472.36,-362.18 473.92,-355.14 481.02,-353.87 479.46,-360.91 472.36,-362.18"/>
</a>
</g>
<text text-anchor="middle" x="494.5" y="-404" font-family="Helvetica,sans-Serif" font-size="10.00" fill="grey"> +basisu_image</text>
<text text-anchor="middle" x="494.5" y="-393" font-family="Helvetica,sans-Serif" font-size="10.00" fill="grey">+image</text>
<text text-anchor="middle" x="494.5" y="-382" font-family="Helvetica,sans-Serif" font-size="10.00" fill="grey">+webp_image</text>
</g>
<!-- Node5 -->
<g id="Node000005" class="node">
<title>Node5</title>
<g id="a_Node000005"><a xlink:href="structcgltf__buffer__view.html" target="_top" xlink:title=" ">
<polygon fill="white" stroke="transparent" points="349,-725 195,-725 195,-571 349,-571 349,-725"/>
<text text-anchor="start" x="229.5" y="-713" font-family="Helvetica,sans-Serif" font-size="10.00">cgltf_buffer_view</text>
<text text-anchor="start" x="199" y="-698" font-family="Helvetica,sans-Serif" font-size="10.00">+</text>
<text text-anchor="start" x="212" y="-698" font-family="Helvetica,sans-Serif" font-size="10.00">name</text>
<text text-anchor="start" x="199" y="-683" font-family="Helvetica,sans-Serif" font-size="10.00">+</text>
<text text-anchor="start" x="212" y="-683" font-family="Helvetica,sans-Serif" font-size="10.00">offset</text>
<text text-anchor="start" x="199" y="-668" font-family="Helvetica,sans-Serif" font-size="10.00">+</text>
<text text-anchor="start" x="212" y="-668" font-family="Helvetica,sans-Serif" font-size="10.00">size</text>
<text text-anchor="start" x="199" y="-653" font-family="Helvetica,sans-Serif" font-size="10.00">+</text>
<text text-anchor="start" x="212" y="-653" font-family="Helvetica,sans-Serif" font-size="10.00">stride</text>
<text text-anchor="start" x="199" y="-638" font-family="Helvetica,sans-Serif" font-size="10.00">+</text>
<text text-anchor="start" x="212" y="-638" font-family="Helvetica,sans-Serif" font-size="10.00">type</text>
<text text-anchor="start" x="199" y="-623" font-family="Helvetica,sans-Serif" font-size="10.00">+</text>
<text text-anchor="start" x="212" y="-623" font-family="Helvetica,sans-Serif" font-size="10.00">data</text>
<text text-anchor="start" x="199" y="-608" font-family="Helvetica,sans-Serif" font-size="10.00">+</text>
<text text-anchor="start" x="212" y="-608" font-family="Helvetica,sans-Serif" font-size="10.00">has_meshopt_compression</text>
<text text-anchor="start" x="199" y="-593" font-family="Helvetica,sans-Serif" font-size="10.00">+</text>
<text text-anchor="start" x="212" y="-593" font-family="Helvetica,sans-Serif" font-size="10.00">extensions_count</text>
<text text-anchor="start" x="270" y="-578" font-family="Helvetica,sans-Serif" font-size="10.00"> </text>
<polygon fill="#666666" stroke="#666666" points="195,-708 195,-708 349,-708 349,-708 195,-708"/>
<polygon fill="#666666" stroke="#666666" points="195,-588 195,-588 210,-588 210,-588 195,-588"/>
<polygon fill="#666666" stroke="#666666" points="210,-588 210,-588 349,-588 349,-588 210,-588"/>
<polygon fill="none" stroke="#666666" points="195,-571 195,-725 349,-725 349,-571 195,-571"/>
</a>
</g>
</g>
<!-- Node5&#45;&gt;Node4 -->
<g id="edge4_Node000004_Node000005" class="edge">
<title>Node5&#45;&gt;Node4</title>
<g id="a_edge4_Node000004_Node000005"><a xlink:title=" ">
<path fill="none" stroke="#63b8ff" d="M310.72,-570.9C316.87,-558.82 323.14,-546.51 329.01,-534.96"/>
<polygon fill="none" stroke="#63b8ff" points="329.07,-534.86 328.22,-527.69 334.51,-524.16 335.35,-531.32 329.07,-534.86"/>
</a>
</g>
<text text-anchor="middle" x="360.5" y="-545" font-family="Helvetica,sans-Serif" font-size="10.00" fill="grey"> +buffer_view</text>
</g>
<!-- Node6 -->
<g id="Node000006" class="node">
<title>Node6</title>
<g id="a_Node000006"><a xlink:href="structcgltf__buffer.html" target="_top" xlink:title=" ">
<polygon fill="white" stroke="transparent" points="300.5,-1082 189.5,-1082 189.5,-958 300.5,-958 300.5,-1082"/>
<text text-anchor="start" x="217.5" y="-1070" font-family="Helvetica,sans-Serif" font-size="10.00">cgltf_buffer</text>
<text text-anchor="start" x="194" y="-1055" font-family="Helvetica,sans-Serif" font-size="10.00">+</text>
<text text-anchor="start" x="207" y="-1055" font-family="Helvetica,sans-Serif" font-size="10.00">name</text>
<text text-anchor="start" x="194" y="-1040" font-family="Helvetica,sans-Serif" font-size="10.00">+</text>
<text text-anchor="start" x="207" y="-1040" font-family="Helvetica,sans-Serif" font-size="10.00">size</text>
<text text-anchor="start" x="194" y="-1025" font-family="Helvetica,sans-Serif" font-size="10.00">+</text>
<text text-anchor="start" x="207" y="-1025" font-family="Helvetica,sans-Serif" font-size="10.00">uri</text>
<text text-anchor="start" x="194" y="-1010" font-family="Helvetica,sans-Serif" font-size="10.00">+</text>
<text text-anchor="start" x="207" y="-1010" font-family="Helvetica,sans-Serif" font-size="10.00">data</text>
<text text-anchor="start" x="194" y="-995" font-family="Helvetica,sans-Serif" font-size="10.00">+</text>
<text text-anchor="start" x="207" y="-995" font-family="Helvetica,sans-Serif" font-size="10.00">data_free_method</text>
<text text-anchor="start" x="194" y="-980" font-family="Helvetica,sans-Serif" font-size="10.00">+</text>
<text text-anchor="start" x="207" y="-980" font-family="Helvetica,sans-Serif" font-size="10.00">extensions_count</text>
<text text-anchor="start" x="243.5" y="-965" font-family="Helvetica,sans-Serif" font-size="10.00"> </text>
<polygon fill="#666666" stroke="#666666" points="190,-1065 190,-1065 301,-1065 301,-1065 190,-1065"/>
<polygon fill="#666666" stroke="#666666" points="190,-975 190,-975 205,-975 205,-975 190,-975"/>
<polygon fill="#666666" stroke="#666666" points="205,-975 205,-975 301,-975 301,-975 205,-975"/>
<polygon fill="none" stroke="#666666" points="189.5,-958 189.5,-1082 300.5,-1082 300.5,-958 189.5,-958"/>
</a>
</g>
</g>
<!-- Node6&#45;&gt;Node5 -->
<g id="edge5_Node000005_Node000006" class="edge">
<title>Node6&#45;&gt;Node5</title>
<g id="a_edge5_Node000005_Node000006"><a xlink:title=" ">
<path fill="none" stroke="#63b8ff" d="M203.42,-957.96C195.41,-943.2 188.22,-927.04 184,-911 168.29,-851.25 165.12,-830.82 184,-772 187.99,-759.56 193.76,-747.31 200.46,-735.64"/>
<polygon fill="none" stroke="#63b8ff" points="200.63,-735.36 200.32,-728.16 206.85,-725.1 207.16,-732.3 200.63,-735.36"/>
</a>
</g>
<text text-anchor="middle" x="204" y="-839" font-family="Helvetica,sans-Serif" font-size="10.00" fill="grey"> +buffer</text>
</g>
<!-- Node9 -->
<g id="Node000009" class="node">
<title>Node9</title>
<g id="a_Node000009"><a xlink:href="structcgltf__meshopt__compression.html" target="_top" xlink:title=" ">
<polygon fill="white" stroke="transparent" points="381,-911 233,-911 233,-772 381,-772 381,-911"/>
<text text-anchor="start" x="238" y="-898.5" font-family="Helvetica,sans-Serif" font-size="10.00">cgltf_meshopt_compression</text>
<text text-anchor="start" x="261" y="-883.5" font-family="Helvetica,sans-Serif" font-size="10.00">+</text>
<text text-anchor="start" x="298" y="-883.5" font-family="Helvetica,sans-Serif" font-size="10.00">offset</text>
<text text-anchor="start" x="261" y="-868.5" font-family="Helvetica,sans-Serif" font-size="10.00">+</text>
<text text-anchor="start" x="298" y="-868.5" font-family="Helvetica,sans-Serif" font-size="10.00">size</text>
<text text-anchor="start" x="261" y="-853.5" font-family="Helvetica,sans-Serif" font-size="10.00">+</text>
<text text-anchor="start" x="298" y="-853.5" font-family="Helvetica,sans-Serif" font-size="10.00">stride</text>
<text text-anchor="start" x="261" y="-838.5" font-family="Helvetica,sans-Serif" font-size="10.00">+</text>
<text text-anchor="start" x="298" y="-838.5" font-family="Helvetica,sans-Serif" font-size="10.00">count</text>
<text text-anchor="start" x="261" y="-823.5" font-family="Helvetica,sans-Serif" font-size="10.00">+</text>
<text text-anchor="start" x="298" y="-823.5" font-family="Helvetica,sans-Serif" font-size="10.00">mode</text>
<text text-anchor="start" x="261" y="-808.5" font-family="Helvetica,sans-Serif" font-size="10.00">+</text>
<text text-anchor="start" x="298" y="-808.5" font-family="Helvetica,sans-Serif" font-size="10.00">filter</text>
<text text-anchor="start" x="261" y="-793.5" font-family="Helvetica,sans-Serif" font-size="10.00">+</text>
<text text-anchor="start" x="298" y="-793.5" font-family="Helvetica,sans-Serif" font-size="10.00">is_khr</text>
<text text-anchor="start" x="305" y="-778.5" font-family="Helvetica,sans-Serif" font-size="10.00"> </text>
<polygon fill="#666666" stroke="#666666" points="233,-893.5 233,-893.5 381,-893.5 381,-893.5 233,-893.5"/>
<polygon fill="#666666" stroke="#666666" points="233,-788.5 233,-788.5 296,-788.5 296,-788.5 233,-788.5"/>
<polygon fill="#666666" stroke="#666666" points="296,-788.5 296,-788.5 381,-788.5 381,-788.5 296,-788.5"/>
<polygon fill="none" stroke="#666666" points="233,-772 233,-911 381,-911 381,-772 233,-772"/>
</a>
</g>
</g>
<!-- Node6&#45;&gt;Node9 -->
<g id="edge9_Node000009_Node000006" class="edge">
<title>Node6&#45;&gt;Node9</title>
<g id="a_edge9_Node000009_Node000006"><a xlink:title=" ">
<path fill="none" stroke="#63b8ff" d="M266.51,-957.76C270.47,-946.49 274.66,-934.56 278.78,-922.82"/>
<polygon fill="none" stroke="#63b8ff" points="278.9,-922.5 277.11,-915.51 282.87,-911.18 284.66,-918.17 278.9,-922.5"/>
</a>
</g>
<text text-anchor="middle" x="296" y="-932" font-family="Helvetica,sans-Serif" font-size="10.00" fill="grey"> +buffer</text>
</g>
<!-- Node7 -->
<g id="Node000007" class="node">
<title>Node7</title>
<g id="a_Node000007"><a xlink:href="structcgltf__extras.html" target="_top" xlink:title=" ">
<polygon fill="white" stroke="transparent" points="167.5,-1208 90.5,-1208 90.5,-1129 167.5,-1129 167.5,-1208"/>
<text text-anchor="start" x="100.5" y="-1195.5" font-family="Helvetica,sans-Serif" font-size="10.00">cgltf_extras</text>
<text text-anchor="start" x="95" y="-1180.5" font-family="Helvetica,sans-Serif" font-size="10.00">+</text>
<text text-anchor="start" x="108" y="-1180.5" font-family="Helvetica,sans-Serif" font-size="10.00">start_offset</text>
<text text-anchor="start" x="95" y="-1165.5" font-family="Helvetica,sans-Serif" font-size="10.00">+</text>
<text text-anchor="start" x="108" y="-1165.5" font-family="Helvetica,sans-Serif" font-size="10.00">end_offset</text>
<text text-anchor="start" x="95" y="-1150.5" font-family="Helvetica,sans-Serif" font-size="10.00">+</text>
<text text-anchor="start" x="108" y="-1150.5" font-family="Helvetica,sans-Serif" font-size="10.00">data</text>
<text text-anchor="start" x="127.5" y="-1135.5" font-family="Helvetica,sans-Serif" font-size="10.00"> </text>
<polygon fill="#666666" stroke="#666666" points="91,-1190.5 91,-1190.5 168,-1190.5 168,-1190.5 91,-1190.5"/>
<polygon fill="#666666" stroke="#666666" points="91,-1145.5 91,-1145.5 106,-1145.5 106,-1145.5 91,-1145.5"/>
<polygon fill="#666666" stroke="#666666" points="106,-1145.5 106,-1145.5 168,-1145.5 168,-1145.5 106,-1145.5"/>
<polygon fill="none" stroke="#666666" points="90.5,-1129 90.5,-1208 167.5,-1208 167.5,-1129 90.5,-1129"/>
</a>
</g>
</g>
<!-- Node7&#45;&gt;Node3 -->
<g id="edge17_Node000003_Node000007" class="edge">
<title>Node7&#45;&gt;Node3</title>
<g id="a_edge17_Node000003_Node000007"><a xlink:title=" ">
<path fill="none" stroke="#63b8ff" d="M90.3,-1145.42C52.3,-1120.53 0,-1076.24 0,-1021 0,-1021 0,-1021 0,-476 0,-379.6 322.45,-331.07 464.33,-314.38"/>
<polygon fill="none" stroke="#63b8ff" points="464.34,-314.38 469.84,-309.72 476.26,-313 470.76,-317.66 464.34,-314.38"/>
</a>
</g>
<text text-anchor="middle" x="21.5" y="-746" font-family="Helvetica,sans-Serif" font-size="10.00" fill="grey"> +extras</text>
</g>
<!-- Node7&#45;&gt;Node4 -->
<g id="edge12_Node000004_Node000007" class="edge">
<title>Node7&#45;&gt;Node4</title>
<g id="a_edge12_Node000004_Node000007"><a xlink:title=" ">
<path fill="none" stroke="#63b8ff" d="M98.48,-1128.89C79.23,-1100.67 58,-1060.57 58,-1021 58,-1021 58,-1021 58,-647 58,-540.23 204.02,-500.18 292.31,-485.73"/>
<polygon fill="none" stroke="#63b8ff" points="292.51,-485.69 297.82,-480.82 304.37,-483.85 299.05,-488.73 292.51,-485.69"/>
</a>
</g>
<text text-anchor="middle" x="79.5" y="-839" font-family="Helvetica,sans-Serif" font-size="10.00" fill="grey"> +extras</text>
</g>
<!-- Node7&#45;&gt;Node5 -->
<g id="edge10_Node000005_Node000007" class="edge">
<title>Node7&#45;&gt;Node5</title>
<g id="a_edge10_Node000005_Node000007"><a xlink:title=" ">
<path fill="none" stroke="#63b8ff" d="M125.93,-1128.79C121.63,-1056.04 119.14,-895.13 168,-772 173.07,-759.23 180.01,-746.84 187.94,-735.14"/>
<polygon fill="none" stroke="#63b8ff" points="188.17,-734.82 188.39,-727.62 195.13,-725.05 194.91,-732.26 188.17,-734.82"/>
</a>
</g>
<text text-anchor="middle" x="152.5" y="-932" font-family="Helvetica,sans-Serif" font-size="10.00" fill="grey"> +extras</text>
</g>
<!-- Node7&#45;&gt;Node6 -->
<g id="edge6_Node000006_Node000007" class="edge">
<title>Node7&#45;&gt;Node6</title>
<g id="a_edge6_Node000006_Node000007"><a xlink:title=" ">
<path fill="none" stroke="#63b8ff" d="M159.78,-1128.63C168.77,-1117.28 178.88,-1104.5 188.92,-1091.83"/>
<polygon fill="none" stroke="#63b8ff" points="189.11,-1091.59 189.7,-1084.4 196.56,-1082.18 195.97,-1089.37 189.11,-1091.59"/>
</a>
</g>
<text text-anchor="middle" x="202.5" y="-1103" font-family="Helvetica,sans-Serif" font-size="10.00" fill="grey"> +extras</text>
</g>
<!-- Node10 -->
<g id="Node000010" class="node">
<title>Node10</title>
<g id="a_Node000010"><a xlink:href="structcgltf__sampler.html" target="_top" xlink:title=" ">
<polygon fill="white" stroke="transparent" points="595.5,-1082 488.5,-1082 488.5,-958 595.5,-958 595.5,-1082"/>
<text text-anchor="start" x="509" y="-1070" font-family="Helvetica,sans-Serif" font-size="10.00">cgltf_sampler</text>
<text text-anchor="start" x="493" y="-1055" font-family="Helvetica,sans-Serif" font-size="10.00">+</text>
<text text-anchor="start" x="506" y="-1055" font-family="Helvetica,sans-Serif" font-size="10.00">name</text>
<text text-anchor="start" x="493" y="-1040" font-family="Helvetica,sans-Serif" font-size="10.00">+</text>
<text text-anchor="start" x="506" y="-1040" font-family="Helvetica,sans-Serif" font-size="10.00">mag_filter</text>
<text text-anchor="start" x="493" y="-1025" font-family="Helvetica,sans-Serif" font-size="10.00">+</text>
<text text-anchor="start" x="506" y="-1025" font-family="Helvetica,sans-Serif" font-size="10.00">min_filter</text>
<text text-anchor="start" x="493" y="-1010" font-family="Helvetica,sans-Serif" font-size="10.00">+</text>
<text text-anchor="start" x="506" y="-1010" font-family="Helvetica,sans-Serif" font-size="10.00">wrap_s</text>
<text text-anchor="start" x="493" y="-995" font-family="Helvetica,sans-Serif" font-size="10.00">+</text>
<text text-anchor="start" x="506" y="-995" font-family="Helvetica,sans-Serif" font-size="10.00">wrap_t</text>
<text text-anchor="start" x="493" y="-980" font-family="Helvetica,sans-Serif" font-size="10.00">+</text>
<text text-anchor="start" x="506" y="-980" font-family="Helvetica,sans-Serif" font-size="10.00">extensions_count</text>
<text text-anchor="start" x="540.5" y="-965" font-family="Helvetica,sans-Serif" font-size="10.00"> </text>
<polygon fill="#666666" stroke="#666666" points="489,-1065 489,-1065 596,-1065 596,-1065 489,-1065"/>
<polygon fill="#666666" stroke="#666666" points="489,-975 489,-975 504,-975 504,-975 489,-975"/>
<polygon fill="#666666" stroke="#666666" points="504,-975 504,-975 596,-975 596,-975 504,-975"/>
<polygon fill="none" stroke="#666666" points="488.5,-958 488.5,-1082 595.5,-1082 595.5,-958 488.5,-958"/>
</a>
</g>
</g>
<!-- Node7&#45;&gt;Node10 -->
<g id="edge15_Node000010_Node000007" class="edge">
<title>Node7&#45;&gt;Node10</title>
<g id="a_edge15_Node000010_Node000007"><a xlink:title=" ">
<path fill="none" stroke="#63b8ff" d="M167.86,-1161.5C216.24,-1153.32 300.92,-1136.7 370,-1111 406.87,-1097.28 445.88,-1077.36 477.41,-1059.75"/>
<polygon fill="none" stroke="#63b8ff" points="477.79,-1059.53 481.05,-1053.1 488.24,-1053.62 484.98,-1060.06 477.79,-1059.53"/>
</a>
</g>
<text text-anchor="middle" x="416.5" y="-1103" font-family="Helvetica,sans-Serif" font-size="10.00" fill="grey"> +extras</text>
</g>
<!-- Node8 -->
<g id="Node000008" class="node">
<title>Node8</title>
<g id="a_Node000008"><a xlink:href="structcgltf__extension.html" target="_top" xlink:title=" ">
<polygon fill="white" stroke="transparent" points="514,-1200.5 428,-1200.5 428,-1136.5 514,-1136.5 514,-1200.5"/>
<text text-anchor="start" x="433" y="-1188.5" font-family="Helvetica,sans-Serif" font-size="10.00">cgltf_extension</text>
<text text-anchor="start" x="441" y="-1173.5" font-family="Helvetica,sans-Serif" font-size="10.00">+</text>
<text text-anchor="start" x="463" y="-1173.5" font-family="Helvetica,sans-Serif" font-size="10.00">name</text>
<text text-anchor="start" x="441" y="-1158.5" font-family="Helvetica,sans-Serif" font-size="10.00">+</text>
<text text-anchor="start" x="463" y="-1158.5" font-family="Helvetica,sans-Serif" font-size="10.00">data</text>
<text text-anchor="start" x="469" y="-1143.5" font-family="Helvetica,sans-Serif" font-size="10.00"> </text>
<polygon fill="#666666" stroke="#666666" points="428,-1183.5 428,-1183.5 514,-1183.5 514,-1183.5 428,-1183.5"/>
<polygon fill="#666666" stroke="#666666" points="428,-1153.5 428,-1153.5 461,-1153.5 461,-1153.5 428,-1153.5"/>
<polygon fill="#666666" stroke="#666666" points="461,-1153.5 461,-1153.5 514,-1153.5 514,-1153.5 461,-1153.5"/>
<polygon fill="none" stroke="#666666" points="428,-1136.5 428,-1200.5 514,-1200.5 514,-1136.5 428,-1136.5"/>
</a>
</g>
</g>
<!-- Node8&#45;&gt;Node3 -->
<g id="edge18_Node000003_Node000008" class="edge">
<title>Node8&#45;&gt;Node3</title>
<g id="a_edge18_Node000003_Node000008"><a xlink:title=" ">
<path fill="none" stroke="#63b8ff" d="M514.32,-1149.47C560.79,-1126.89 628,-1083.44 628,-1021 628,-1021 628,-1021 628,-476 628,-434.47 605.48,-394.04 582.03,-363.19"/>
<polygon fill="none" stroke="#63b8ff" points="581.84,-362.95 574.98,-360.71 574.41,-353.52 581.27,-355.76 581.84,-362.95"/>
</a>
</g>
<text text-anchor="middle" x="660.5" y="-746" font-family="Helvetica,sans-Serif" font-size="10.00" fill="grey"> +extensions</text>
</g>
<!-- Node8&#45;&gt;Node4 -->
<g id="edge13_Node000004_Node000008" class="edge">
<title>Node8&#45;&gt;Node4</title>
<g id="a_edge13_Node000004_Node000008"><a xlink:title=" ">
<path fill="none" stroke="#63b8ff" d="M472.34,-1136.43C475.36,-1043.23 477.07,-759.03 399,-542 398.2,-539.76 397.3,-537.53 396.34,-535.3"/>
<polygon fill="none" stroke="#63b8ff" points="396.23,-535.08 390,-531.44 390.97,-524.29 397.19,-527.93 396.23,-535.08"/>
</a>
</g>
<text text-anchor="middle" x="500.5" y="-839" font-family="Helvetica,sans-Serif" font-size="10.00" fill="grey"> +extensions</text>
</g>
<!-- Node8&#45;&gt;Node5 -->
<g id="edge11_Node000005_Node000008" class="edge">
<title>Node8&#45;&gt;Node5</title>
<g id="a_edge11_Node000005_Node000008"><a xlink:title=" ">
<path fill="none" stroke="#63b8ff" d="M427.82,-1145.46C414.75,-1136.58 401.81,-1125.06 394,-1111 357,-1044.36 383.89,-1016.16 381,-940 380.81,-935.11 379.88,-933.76 381,-929 383.05,-920.29 387.81,-919.67 390,-911 408.32,-838.58 428.1,-809.96 395,-743 386.6,-726 373.49,-711.24 358.9,-698.76"/>
<polygon fill="none" stroke="#63b8ff" points="358.48,-698.42 351.29,-697.77 349.13,-690.89 356.31,-691.54 358.48,-698.42"/>
</a>
</g>
<text text-anchor="middle" x="413.5" y="-932" font-family="Helvetica,sans-Serif" font-size="10.00" fill="grey"> +extensions</text>
</g>
<!-- Node8&#45;&gt;Node6 -->
<g id="edge7_Node000006_Node000008" class="edge">
<title>Node8&#45;&gt;Node6</title>
<g id="a_edge7_Node000006_Node000008"><a xlink:title=" ">
<path fill="none" stroke="#63b8ff" d="M427.64,-1161.52C390.75,-1154.6 338,-1140.17 301,-1111 294.14,-1105.6 287.91,-1099.1 282.29,-1092.11"/>
<polygon fill="none" stroke="#63b8ff" points="282.18,-1091.96 275.39,-1089.53 275.03,-1082.33 281.81,-1084.76 282.18,-1091.96"/>
</a>
</g>
<text text-anchor="middle" x="333.5" y="-1103" font-family="Helvetica,sans-Serif" font-size="10.00" fill="grey"> +extensions</text>
</g>
<!-- Node8&#45;&gt;Node10 -->
<g id="edge16_Node000010_Node000008" class="edge">
<title>Node8&#45;&gt;Node10</title>
<g id="a_edge16_Node000010_Node000008"><a xlink:title=" ">
<path fill="none" stroke="#63b8ff" d="M486.06,-1136.43C492.22,-1123.72 499.62,-1108.45 506.99,-1093.23"/>
<polygon fill="none" stroke="#63b8ff" points="507.11,-1093 506.12,-1085.86 512.34,-1082.2 513.32,-1089.34 507.11,-1093"/>
</a>
</g>
<text text-anchor="middle" x="535.5" y="-1103" font-family="Helvetica,sans-Serif" font-size="10.00" fill="grey"> +extensions</text>
</g>
<!-- Node9&#45;&gt;Node5 -->
<g id="edge8_Node000005_Node000009" class="edge">
<title>Node9&#45;&gt;Node5</title>
<g id="a_edge8_Node000005_Node000009"><a xlink:title=" ">
<path fill="none" stroke="#63b8ff" d="M277.43,-771.77C275.66,-765.83 274.14,-759.86 273,-754 271.95,-748.62 271.14,-743.06 270.52,-737.43"/>
<polygon fill="none" stroke="#63b8ff" points="270.48,-736.99 265.98,-731.36 269.45,-725.04 273.95,-730.67 270.48,-736.99"/>
</a>
</g>
<text text-anchor="middle" x="334" y="-746" font-family="Helvetica,sans-Serif" font-size="10.00" fill="grey"> +meshopt_compression</text>
</g>
<!-- Node10&#45;&gt;Node3 -->
<g id="edge14_Node000003_Node000010" class="edge">
<title>Node10&#45;&gt;Node3</title>
<g id="a_edge14_Node000003_Node000010"><a xlink:title=" ">
<path fill="none" stroke="#63b8ff" d="M545.11,-957.75C546.57,-923.8 548,-880.83 548,-842.5 548,-842.5 548,-842.5 548,-476 548,-439.22 543.71,-398.17 539.31,-365.8"/>
<polygon fill="none" stroke="#63b8ff" points="539.3,-365.73 534.51,-360.34 537.63,-353.85 542.43,-359.23 539.3,-365.73"/>
</a>
</g>
<text text-anchor="middle" x="574" y="-645.5" font-family="Helvetica,sans-Serif" font-size="10.00" fill="grey"> +sampler</text>
</g>
<!-- Node11 -->
<g id="Node000011" class="node">
<title>Node11</title>
<g id="a_Node000011"><a xlink:href="structcgltf__texture__transform.html" target="_top" xlink:title=" ">
<polygon fill="white" stroke="transparent" points="728,-361 602,-361 602,-252 728,-252 728,-361"/>
<text text-anchor="start" x="607" y="-348.5" font-family="Helvetica,sans-Serif" font-size="10.00">cgltf_texture_transform</text>
<text text-anchor="start" x="615.5" y="-333.5" font-family="Helvetica,sans-Serif" font-size="10.00">+</text>
<text text-anchor="start" x="638" y="-333.5" font-family="Helvetica,sans-Serif" font-size="10.00">offset</text>
<text text-anchor="start" x="615.5" y="-318.5" font-family="Helvetica,sans-Serif" font-size="10.00">+</text>
<text text-anchor="start" x="638" y="-318.5" font-family="Helvetica,sans-Serif" font-size="10.00">rotation</text>
<text text-anchor="start" x="615.5" y="-303.5" font-family="Helvetica,sans-Serif" font-size="10.00">+</text>
<text text-anchor="start" x="638" y="-303.5" font-family="Helvetica,sans-Serif" font-size="10.00">scale</text>
<text text-anchor="start" x="615.5" y="-288.5" font-family="Helvetica,sans-Serif" font-size="10.00">+</text>
<text text-anchor="start" x="638" y="-288.5" font-family="Helvetica,sans-Serif" font-size="10.00">has_texcoord</text>
<text text-anchor="start" x="615.5" y="-273.5" font-family="Helvetica,sans-Serif" font-size="10.00">+</text>
<text text-anchor="start" x="638" y="-273.5" font-family="Helvetica,sans-Serif" font-size="10.00">texcoord</text>
<text text-anchor="start" x="663" y="-258.5" font-family="Helvetica,sans-Serif" font-size="10.00"> </text>
<polygon fill="#666666" stroke="#666666" points="602,-343.5 602,-343.5 728,-343.5 728,-343.5 602,-343.5"/>
<polygon fill="#666666" stroke="#666666" points="602,-268.5 602,-268.5 636,-268.5 636,-268.5 602,-268.5"/>
<polygon fill="#666666" stroke="#666666" points="636,-268.5 636,-268.5 728,-268.5 728,-268.5 636,-268.5"/>
<polygon fill="none" stroke="#666666" points="602,-252 602,-361 728,-361 728,-252 602,-252"/>
</a>
</g>
</g>
<!-- Node11&#45;&gt;Node2 -->
<g id="edge19_Node000002_Node000011" class="edge">
<title>Node11&#45;&gt;Node2</title>
<g id="a_edge19_Node000002_Node000011"><a xlink:title=" ">
<path fill="none" stroke="#63b8ff" d="M651.08,-251.76C648.12,-240.31 645,-228.27 642.07,-216.95"/>
<polygon fill="none" stroke="#63b8ff" points="641.99,-216.64 636.61,-211.83 638.98,-205.02 644.35,-209.83 641.99,-216.64"/>
</a>
</g>
<text text-anchor="middle" x="675" y="-226" font-family="Helvetica,sans-Serif" font-size="10.00" fill="grey"> +transform</text>
</g>
</g>
</svg>
