{
  "accessors": [
    {
      "bufferView": 3,
      "componentType": 5126,
      "count": 18154,
      "max": [
        68.70323944091797,
        90.03471374511719,
        15.503888130187988
      ],
      "min": [
        29.57355499267578,
        70.27706909179688,
        -7.285886764526367
      ],
      "type": "VEC3"
    },
    {
      "bufferView": 3,
      "byteOffset": 217848,
      "componentType": 5126,
      "count": 18154,
      "max": [
        0.9952483177185059,
        0.998826801776886,
        0.9999531507492065
      ],
      "min": [
        -0.9982786774635315,
        -0.9997704029083252,
        -0.9992468953132629
      ],
      "type": "VEC3"
    },
    {
      "bufferView": 2,
      "componentType": 5126,
      "count": 18154,
      "max": [
        0.9910566806793213,
        0.9980079531669617
      ],
      "min": [
        0.001978157088160515,
        0.00199203216470778
      ],
      "type": "VEC2"
    },
    {
      "bufferView": 1,
      "componentType": 5125,
      "count": 27240,
      "type": "SCALAR"
    },
    {
      "bufferView": 3,
      "byteOffset": 435696,
      "componentType": 5126,
      "count": 18108,
      "max": [
        -14.841581344604492,
        86.660888671875,
        13.806564331054688
      ],
      "min": [
        -32.475948333740234,
        72.26803588867188,
        -1.7509900331497192
      ],
      "type": "VEC3"
    },
    {
      "bufferView": 3,
      "byteOffset": 652992,
      "componentType": 5126,
      "count": 18108,
      "max": [
        0.9937447309494019,
        0.9984780550003052,
        0.9998483061790466
      ],
      "min": [
        -0.9999539256095886,
        -0.9994205236434937,
        -0.999995768070221
      ],
      "type": "VEC3"
    },
    {
      "bufferView": 2,
      "byteOffset": 145232,
      "componentType": 5126,
      "count": 18108,
      "max": [
        0.9409235715866089,
        0.9980079531669617
      ],
      "min": [
        0.001878091017715633,
        0.0019920319318771362
      ],
      "type": "VEC2"
    },
    {
      "bufferView": 1,
      "byteOffset": 108960,
      "componentType": 5125,
      "count": 27168,
      "type": "SCALAR"
    },
    {
      "bufferView": 3,
      "byteOffset": 870288,
      "componentType": 5126,
      "count": 22200,
      "max": [
        32.227317810058594,
        87.00347137451172,
        13.102057456970215
      ],
      "min": [
        14.52669906616211,
        72.71070861816406,
        -3.3949930667877197
      ],
      "type": "VEC3"
    },
    {
      "bufferView": 3,
      "byteOffset": 1136688,
      "componentType": 5126,
      "count": 22200,
      "max": [
        0.9999802112579346,
        0.9993277788162231,
        0.9999885559082031
      ],
      "min": [
        -0.9977229237556458,
        -0.998145580291748,
        -0.9968700408935547
      ],
      "type": "VEC3"
    },
    {
      "bufferView": 2,
      "byteOffset": 290096,
      "componentType": 5126,
      "count": 22200,
      "max": [
        0.9362473487854004,
        0.9980080127716064
      ],
      "min": [
        0.0018687574192881584,
        0.0019920319318771362
      ],
      "type": "VEC2"
    },
    {
      "bufferView": 1,
      "byteOffset": 217632,
      "componentType": 5125,
      "count": 33300,
      "type": "SCALAR"
    },
    {
      "bufferView": 3,
      "byteOffset": 1403088,
      "componentType": 5126,
      "count": 27400,
      "max": [
        19.43133544921875,
        99.83231353759766,
        30.51598358154297
      ],
      "min": [
        -19.200937271118164,
        39.35173797607422,
        -7.945562839508057
      ],
      "type": "VEC3"
    },
    {
      "bufferView": 3,
      "byteOffset": 1731888,
      "componentType": 5126,
      "count": 27400,
      "max": [
        0.9999256730079651,
        0.9973085522651672,
        0.9999412894248962
      ],
      "min": [
        -0.999651312828064,
        -0.9962783455848694,
        -0.9997600317001343
      ],
      "type": "VEC3"
    },
    {
      "bufferView": 2,
      "byteOffset": 467696,
      "componentType": 5126,
      "count": 27400,
      "max": [
        0.9980079531669617,
        0.9585248827934265
      ],
      "min": [
        0.0019920319318771362,
        0.0019132232991978526
      ],
      "type": "VEC2"
    },
    {
      "bufferView": 1,
      "byteOffset": 350832,
      "componentType": 5125,
      "count": 41100,
      "type": "SCALAR"
    },
    {
      "bufferView": 3,
      "byteOffset": 2060688,
      "componentType": 5126,
      "count": 19392,
      "max": [
        -6.087009429931641,
        31.6337947845459,
        17.689361572265625
      ],
      "min": [
        -27.77469253540039,
        -0.8895187377929688,
        -4.35448694229126
      ],
      "type": "VEC3"
    },
    {
      "bufferView": 3,
      "byteOffset": 2293392,
      "componentType": 5126,
      "count": 19392,
      "max": [
        0.9999161958694458,
        0.9988322257995605,
        0.9999504089355469
      ],
      "min": [
        -0.9995693564414978,
        -0.9999871253967285,
        -0.9995659589767456
      ],
      "type": "VEC3"
    },
    {
      "bufferView": 2,
      "byteOffset": 686896,
      "componentType": 5126,
      "count": 19392,
      "max": [
        0.9980080723762512,
        0.9727798700332642
      ],
      "min": [
        0.00199203216470778,
        0.0019416764844208956
      ],
      "type": "VEC2"
    },
    {
      "bufferView": 1,
      "byteOffset": 515232,
      "componentType": 5125,
      "count": 29088,
      "type": "SCALAR"
    },
    {
      "bufferView": 3,
      "byteOffset": 2526096,
      "componentType": 5126,
      "count": 19360,
      "max": [
        -7.286240577697754,
        54.26559829711914,
        13.598015785217285
      ],
      "min": [
        -19.97869110107422,
        28.865596771240234,
        -3.739490032196045
      ],
      "type": "VEC3"
    },
    {
      "bufferView": 3,
      "byteOffset": 2758416,
      "componentType": 5126,
      "count": 19360,
      "max": [
        0.99978107213974,
        0.9997901320457458,
        0.9999678134918213
      ],
      "min": [
        -0.9993895292282104,
        -0.9999021887779236,
        -0.9990156292915344
      ],
      "type": "VEC3"
    },
    {
      "bufferView": 2,
      "byteOffset": 842032,
      "componentType": 5126,
      "count": 19360,
      "max": [
        0.9068095684051514,
        0.9980080127716064
      ],
      "min": [
        0.0018099991139024496,
        0.0019920319318771362
      ],
      "type": "VEC2"
    },
    {
      "bufferView": 1,
      "byteOffset": 631584,
      "componentType": 5125,
      "count": 29040,
      "type": "SCALAR"
    },
    {
      "bufferView": 3,
      "byteOffset": 2990736,
      "componentType": 5126,
      "count": 19680,
      "max": [
        24.13572883605957,
        32.01415252685547,
        16.68231964111328
      ],
      "min": [
        5.058684825897217,
        -1.3991584777832031,
        -4.543790817260742
      ],
      "type": "VEC3"
    },
    {
      "bufferView": 3,
      "byteOffset": 3226896,
      "componentType": 5126,
      "count": 19680,
      "max": [
        0.9996586441993713,
        0.9994757175445557,
        0.9999252557754517
      ],
      "min": [
        -0.9997867345809937,
        -0.9998199939727783,
        -0.9994316697120667
      ],
      "type": "VEC3"
    },
    {
      "bufferView": 2,
      "byteOffset": 996912,
      "componentType": 5126,
      "count": 19680,
      "max": [
        0.978722095489502,
        0.9980080723762512
      ],
      "min": [
        0.001953537343069911,
        0.00199203216470778
      ],
      "type": "VEC2"
    },
    {
      "bufferView": 1,
      "byteOffset": 747744,
      "componentType": 5125,
      "count": 29520,
      "type": "SCALAR"
    },
    {
      "bufferView": 3,
      "byteOffset": 3463056,
      "componentType": 5126,
      "count": 19180,
      "max": [
        19.860301971435547,
        54.60004425048828,
        10.897016525268555
      ],
      "min": [
        5.843735218048096,
        27.197193145751953,
        -3.2881360054016113
      ],
      "type": "VEC3"
    },
    {
      "bufferView": 3,
      "byteOffset": 3693216,
      "componentType": 5126,
      "count": 19180,
      "max": [
        0.9999703764915466,
        0.9996570944786072,
        0.999342679977417
      ],
      "min": [
        -0.9997323155403137,
        -0.9999256730079651,
        -0.9998232126235962
      ],
      "type": "VEC3"
    },
    {
      "bufferView": 2,
      "byteOffset": 1154352,
      "componentType": 5126,
      "count": 19180,
      "max": [
        0.9980080127716064,
        0.9640480279922485
      ],
      "min": [
        0.00199203216470778,
        0.0019242475973442197
      ],
      "type": "VEC2"
    },
    {
      "bufferView": 1,
      "byteOffset": 865824,
      "componentType": 5125,
      "count": 28770,
      "type": "SCALAR"
    },
    {
      "bufferView": 3,
      "byteOffset": 3923376,
      "componentType": 5126,
      "count": 19626,
      "max": [
        7.328558444976807,
        106.36579132080078,
        5.683279037475586
      ],
      "min": [
        -7.347895622253418,
        79.03742980957031,
        -13.17847728729248
      ],
      "type": "VEC3"
    },
    {
      "bufferView": 3,
      "byteOffset": 4158888,
      "componentType": 5126,
      "count": 19626,
      "max": [
        0.9990937113761902,
        0.9999873042106628,
        0.9999909400939941
      ],
      "min": [
        -0.9997984170913696,
        -0.9992381930351257,
        -0.9964571595191956
      ],
      "type": "VEC3"
    },
    {
      "bufferView": 2,
      "byteOffset": 1307792,
      "componentType": 5126,
      "count": 19626,
      "max": [
        0.973164975643158,
        0.9980080127716064
      ],
      "min": [
        0.001942445058375597,
        0.0019920319318771362
      ],
      "type": "VEC2"
    },
    {
      "bufferView": 1,
      "byteOffset": 980904,
      "componentType": 5125,
      "count": 29442,
      "type": "SCALAR"
    },
    {
      "bufferView": 3,
      "byteOffset": 4394400,
      "componentType": 5126,
      "count": 21038,
      "max": [
        -29.963411331176758,
        91.5264892578125,
        14.316407203674316
      ],
      "min": [
        -65.16761779785156,
        70.20780944824219,
        -7.82128381729126
      ],
      "type": "VEC3"
    },
    {
      "bufferView": 3,
      "byteOffset": 4646856,
      "componentType": 5126,
      "count": 21038,
      "max": [
        0.9997490048408508,
        0.999697208404541,
        0.9995736479759216
      ],
      "min": [
        -0.9978500008583069,
        -0.9999969005584717,
        -0.9977515935897827
      ],
      "type": "VEC3"
    },
    {
      "bufferView": 2,
      "byteOffset": 1464800,
      "componentType": 5126,
      "count": 21038,
      "max": [
        0.9980080127716064,
        0.9165481328964233
      ],
      "min": [
        0.0019920319318771362,
        0.0018294373294338584
      ],
      "type": "VEC2"
    },
    {
      "bufferView": 1,
      "byteOffset": 1098672,
      "componentType": 5125,
      "count": 31566,
      "type": "SCALAR"
    },
    {
      "bufferView": 5,
      "componentType": 5126,
      "count": 26,
      "max": [
        1.0,
        0.9991128444671631,
        0.9321626424789429,
        0.0,
        0.10665930062532425,
        1.0,
        0.997306764125824,
        0.0,
        0.9998582601547241,
        0.20567800104618073,
        1.0,
        0.0,
        18.04364013671875,
        55.19654846191406,
        82.77478790283203,
        1.0
      ],
      "min": [
        -0.9974544048309326,
        -0.9973207116127014,
        -0.2698651850223541,
        0.0,
        -0.974550187587738,
        -0.9971203207969666,
        -0.9992690086364746,
        0.0,
        -0.9997351169586182,
        -0.9939077496528625,
        -0.03642256185412407,
        0.0,
        -17.43352699279785,
        -89.68052673339844,
        -17.08478355407715,
        1.0
      ],
      "type": "MAT4"
    },
    {
      "bufferView": 0,
      "componentType": 5123,
      "count": 18154,
      "type": "VEC4"
    },
    {
      "bufferView": 4,
      "componentType": 5126,
      "count": 18154,
      "max": [
        1.0,
        0.49977484345436096,
        0.023824842646718025,
        0.0
      ],
      "min": [
        0.5002251267433167,
        0.0,
        0.0,
        0.0
      ],
      "type": "VEC4"
    },
    {
      "bufferView": 0,
      "byteOffset": 145232,
      "componentType": 5123,
      "count": 18108,
      "type": "VEC4"
    },
    {
      "bufferView": 4,
      "byteOffset": 290464,
      "componentType": 5126,
      "count": 18108,
      "max": [
        0.953076183795929,
        0.4998481571674347,
        0.14220061898231506,
        0.0
      ],
      "min": [
        0.4938703179359436,
        0.030595481395721436,
        0.0,
        0.0
      ],
      "type": "VEC4"
    },
    {
      "bufferView": 0,
      "byteOffset": 290096,
      "componentType": 5123,
      "count": 22200,
      "type": "VEC4"
    },
    {
      "bufferView": 4,
      "byteOffset": 580192,
      "componentType": 5126,
      "count": 22200,
      "max": [
        0.9336793422698975,
        0.49934858083724976,
        0.20471225678920746,
        0.0
      ],
      "min": [
        0.48556774854660034,
        0.03744106367230415,
        0.0,
        0.0
      ],
      "type": "VEC4"
    },
    {
      "bufferView": 0,
      "byteOffset": 467696,
      "componentType": 5123,
      "count": 27400,
      "type": "VEC4"
    },
    {
      "bufferView": 4,
      "byteOffset": 935392,
      "componentType": 5126,
      "count": 27400,
      "max": [
        1.0,
        0.499942809343338,
        0.32967615127563477,
        0.18793943524360657
      ],
      "min": [
        0.31009432673454285,
        0.0,
        0.0,
        0.0
      ],
      "type": "VEC4"
    },
    {
      "bufferView": 0,
      "byteOffset": 686896,
      "componentType": 5123,
      "count": 19392,
      "type": "VEC4"
    },
    {
      "bufferView": 4,
      "byteOffset": 1373792,
      "componentType": 5126,
      "count": 19392,
      "max": [
        1.0,
        0.49903368949890137,
        0.3267890512943268,
        0.0
      ],
      "min": [
        0.3383159637451172,
        0.0,
        0.0,
        0.0
      ],
      "type": "VEC4"
    },
    {
      "bufferView": 0,
      "byteOffset": 842032,
      "componentType": 5123,
      "count": 19360,
      "type": "VEC4"
    },
    {
      "bufferView": 4,
      "byteOffset": 1684064,
      "componentType": 5126,
      "count": 19360,
      "max": [
        1.0,
        0.4998076558113098,
        0.050662118941545486,
        0.0
      ],
      "min": [
        0.5001923441886902,
        0.0,
        0.0,
        0.0
      ],
      "type": "VEC4"
    },
    {
      "bufferView": 0,
      "byteOffset": 996912,
      "componentType": 5123,
      "count": 19680,
      "type": "VEC4"
    },
    {
      "bufferView": 4,
      "byteOffset": 1993824,
      "componentType": 5126,
      "count": 19680,
      "max": [
        1.0,
        0.49994850158691406,
        0.3239215910434723,
        0.0
      ],
      "min": [
        0.341014564037323,
        0.0,
        0.0,
        0.0
      ],
      "type": "VEC4"
    },
    {
      "bufferView": 0,
      "byteOffset": 1154352,
      "componentType": 5123,
      "count": 19180,
      "type": "VEC4"
    },
    {
      "bufferView": 4,
      "byteOffset": 2308704,
      "componentType": 5126,
      "count": 19180,
      "max": [
        0.9854109883308411,
        0.49996641278266907,
        0.10768884420394897,
        0.013112526386976242
      ],
      "min": [
        0.5000335574150085,
        0.012210131622850895,
        0.0,
        0.0
      ],
      "type": "VEC4"
    },
    {
      "bufferView": 0,
      "byteOffset": 1307792,
      "componentType": 5123,
      "count": 19626,
      "type": "VEC4"
    },
    {
      "bufferView": 4,
      "byteOffset": 2615584,
      "componentType": 5126,
      "count": 19626,
      "max": [
        1.0,
        0.49086445569992065,
        0.3061612546443939,
        0.02557280845940113
      ],
      "min": [
        0.36107391119003296,
        0.0,
        0.0,
        0.0
      ],
      "type": "VEC4"
    },
    {
      "bufferView": 0,
      "byteOffset": 1464800,
      "componentType": 5123,
      "count": 21038,
      "type": "VEC4"
    },
    {
      "bufferView": 4,
      "byteOffset": 2929600,
      "componentType": 5126,
      "count": 21038,
      "max": [
        1.0,
        0.4998718202114105,
        0.016322869807481766,
        0.0
      ],
      "min": [
        0.5001281499862671,
        0.0,
        0.0,
        0.0
      ],
      "type": "VEC4"
    },
    {
      "bufferView": 6,
      "componentType": 5126,
      "count": 46,
      "max": [
        1.5666667222976685
      ],
      "min": [
        0.0
      ],
      "type": "SCALAR"
    },
    {
      "bufferView": 7,
      "componentType": 5126,
      "count": 46,
      "max": [
        1.7763568394002505e-15,
        3.786163330078125,
        -2.837777614593506
      ],
      "min": [
        -1.9984014443252818e-15,
        3.786163330078125,
        -2.837777614593506
      ],
      "type": "VEC3"
    },
    {
      "bufferView": 6,
      "byteOffset": 184,
      "componentType": 5126,
      "count": 48,
      "max": [
        1.5666667222976685
      ],
      "min": [
        0.0
      ],
      "type": "SCALAR"
    },
    {
      "bufferView": 8,
      "componentType": 5126,
      "count": 48,
      "max": [
        0.26230162382125854,
        0.14210978150367737,
        0.06548864394426346,
        0.9815523624420166
      ],
      "min": [
        0.1669940948486328,
        -0.1424078345298767,
        -0.06984799355268478,
        0.9556668996810913
      ],
      "type": "VEC4"
    },
    {
      "bufferView": 6,
      "byteOffset": 376,
      "componentType": 5126,
      "count": 47,
      "max": [
        1.5666667222976685
      ],
      "min": [
        0.0
      ],
      "type": "SCALAR"
    },
    {
      "bufferView": 7,
      "byteOffset": 552,
      "componentType": 5126,
      "count": 47,
      "max": [
        1.3322676295501878e-15,
        7.98508358001709,
        2.213707830378553e-07
      ],
      "min": [
        -1.1102230246251565e-15,
        7.98508358001709,
        2.2137075461614586e-07
      ],
      "type": "VEC3"
    },
    {
      "bufferView": 6,
      "byteOffset": 564,
      "componentType": 5126,
      "count": 48,
      "max": [
        1.5666667222976685
      ],
      "min": [
        0.0
      ],
      "type": "SCALAR"
    },
    {
      "bufferView": 8,
      "byteOffset": 768,
      "componentType": 5126,
      "count": 48,
      "max": [
        0.08971136063337326,
        0.027252376079559326,
        0.017871083691716194,
        0.9994927644729614
      ],
      "min": [
        0.019437799230217934,
        -0.025239497423171997,
        -0.012853100895881653,
        0.9956793189048767
      ],
      "type": "VEC4"
    },
    {
      "bufferView": 6,
      "byteOffset": 756,
      "componentType": 5126,
      "count": 47,
      "max": [
        1.5666667222976685
      ],
      "min": [
        0.0
      ],
      "type": "SCALAR"
    },
    {
      "bufferView": 7,
      "byteOffset": 1116,
      "componentType": 5126,
      "count": 47,
      "max": [
        3.552713678800501e-15,
        12.039783477783203,
        3.552713678800501e-14
      ],
      "min": [
        -7.105427357601002e-15,
        12.039783477783203,
        0.0
      ],
      "type": "VEC3"
    },
    {
      "bufferView": 6,
      "byteOffset": 944,
      "componentType": 5126,
      "count": 48,
      "max": [
        1.5666667222976685
      ],
      "min": [
        0.0
      ],
      "type": "SCALAR"
    },
    {
      "bufferView": 8,
      "byteOffset": 1536,
      "componentType": 5126,
      "count": 48,
      "max": [
        0.005216133780777454,
        -0.01279580406844616,
        0.4581971764564514,
        0.9576815366744995
      ],
      "min": [
        0.003273479640483856,
        -0.01889204978942871,
        0.2875266671180725,
        0.8886345028877258
      ],
      "type": "VEC4"
    },
    {
      "bufferView": 6,
      "byteOffset": 1136,
      "componentType": 5126,
      "count": 48,
      "max": [
        1.5666667222976685
      ],
      "min": [
        0.0
      ],
      "type": "SCALAR"
    },
    {
      "bufferView": 7,
      "byteOffset": 1680,
      "componentType": 5126,
      "count": 48,
      "max": [
        1.4210854715202004e-14,
        13.002734184265137,
        1.4210854715202004e-14
      ],
      "min": [
        -7.105427357601002e-15,
        13.002734184265137,
        -1.4210854715202004e-14
      ],
      "type": "VEC3"
    },
    {
      "bufferView": 6,
      "byteOffset": 1328,
      "componentType": 5126,
      "count": 48,
      "max": [
        1.5666667222976685
      ],
      "min": [
        0.0
      ],
      "type": "SCALAR"
    },
    {
      "bufferView": 8,
      "byteOffset": 2304,
      "componentType": 5126,
      "count": 48,
      "max": [
        0.332948237657547,
        -0.0229190681129694,
        0.3688490390777588,
        0.9887873530387878
      ],
      "min": [
        0.12665827572345734,
        -0.164062038064003,
        -0.021634839475154877,
        0.857180118560791
      ],
      "type": "VEC4"
    },
    {
      "bufferView": 6,
      "byteOffset": 1520,
      "componentType": 5126,
      "count": 48,
      "max": [
        1.5666667222976685
      ],
      "min": [
        0.0
      ],
      "type": "SCALAR"
    },
    {
      "bufferView": 8,
      "byteOffset": 3072,
      "componentType": 5126,
      "count": 48,
      "max": [
        0.60708087682724,
        -0.36159640550613403,
        0.5993840098381042,
        0.42006275057792664
      ],
      "min": [
        0.5284855365753174,
        -0.4515205919742584,
        0.5820417404174805,
        0.3760845959186554
      ],
      "type": "VEC4"
    },
    {
      "bufferView": 6,
      "byteOffset": 1712,
      "componentType": 5126,
      "count": 48,
      "max": [
        1.5666667222976685
      ],
      "min": [
        0.0
      ],
      "type": "SCALAR"
    },
    {
      "bufferView": 7,
      "byteOffset": 2256,
      "componentType": 5126,
      "count": 48,
      "max": [
        7.105427357601002e-15,
        12.07012939453125,
        7.105427357601002e-15
      ],
      "min": [
        -7.105427357601002e-15,
        12.07012939453125,
        -7.105427357601002e-15
      ],
      "type": "VEC3"
    },
    {
      "bufferView": 6,
      "byteOffset": 1904,
      "componentType": 5126,
      "count": 48,
      "max": [
        1.5666667222976685
      ],
      "min": [
        0.0
      ],
      "type": "SCALAR"
    },
    {
      "bufferView": 8,
      "byteOffset": 3840,
      "componentType": 5126,
      "count": 48,
      "max": [
        0.009288229048252106,
        0.008430863730609417,
        -0.13383561372756958,
        0.9909860491752625
      ],
      "min": [
        0.004683075938373804,
        0.0035657361149787903,
        -0.2654324173927307,
        0.9640478491783142
      ],
      "type": "VEC4"
    },
    {
      "bufferView": 6,
      "byteOffset": 2096,
      "componentType": 5126,
      "count": 47,
      "max": [
        1.5666667222976685
      ],
      "min": [
        0.0
      ],
      "type": "SCALAR"
    },
    {
      "bufferView": 7,
      "byteOffset": 2832,
      "componentType": 5126,
      "count": 47,
      "max": [
        1.4210854715202004e-14,
        13.00273323059082,
        -7.105427357601002e-15
      ],
      "min": [
        -7.105427357601002e-15,
        13.00273323059082,
        -2.842170943040401e-14
      ],
      "type": "VEC3"
    },
    {
      "bufferView": 6,
      "byteOffset": 2284,
      "componentType": 5126,
      "count": 48,
      "max": [
        1.5666667222976685
      ],
      "min": [
        0.0
      ],
      "type": "SCALAR"
    },
    {
      "bufferView": 8,
      "byteOffset": 4608,
      "componentType": 5126,
      "count": 48,
      "max": [
        0.28186047077178955,
        0.14824141561985016,
        -0.10248443484306335,
        0.954442024230957
      ],
      "min": [
        0.12087340652942657,
        0.05547492206096649,
        -0.3548961579799652,
        0.9119176864624023
      ],
      "type": "VEC4"
    },
    {
      "bufferView": 6,
      "byteOffset": 2476,
      "componentType": 5126,
      "count": 48,
      "max": [
        1.5666667222976685
      ],
      "min": [
        0.0
      ],
      "type": "SCALAR"
    },
    {
      "bufferView": 8,
      "byteOffset": 5376,
      "componentType": 5126,
      "count": 48,
      "max": [
        0.6172223687171936,
        0.37594401836395264,
        0.6626871824264526,
        0.39125528931617737
      ],
      "min": [
        -0.5989582538604736,
        -0.4263351559638977,
        -0.5961902737617493,
        -0.38939395546913147
      ],
      "type": "VEC4"
    },
    {
      "bufferView": 6,
      "byteOffset": 2668,
      "componentType": 5126,
      "count": 48,
      "max": [
        1.5666667222976685
      ],
      "min": [
        0.0
      ],
      "type": "SCALAR"
    },
    {
      "bufferView": 7,
      "byteOffset": 3396,
      "componentType": 5126,
      "count": 48,
      "max": [
        8.881784197001252e-16,
        7.0978546142578125,
        7.105427357601002e-15
      ],
      "min": [
        -8.881784197001252e-16,
        7.0978546142578125,
        -7.105427357601002e-15
      ],
      "type": "VEC3"
    },
    {
      "bufferView": 6,
      "byteOffset": 2860,
      "componentType": 5126,
      "count": 48,
      "max": [
        1.5666667222976685
      ],
      "min": [
        0.0
      ],
      "type": "SCALAR"
    },
    {
      "bufferView": 8,
      "byteOffset": 6144,
      "componentType": 5126,
      "count": 48,
      "max": [
        -0.09116492420434952,
        0.07785003632307053,
        0.056885477155447006,
        0.995733380317688
      ],
      "min": [
        -0.11322268843650818,
        -0.06659497320652008,
        -0.035686247050762177,
        0.9900473356246948
      ],
      "type": "VEC4"
    },
    {
      "bufferView": 6,
      "byteOffset": 3052,
      "componentType": 5126,
      "count": 48,
      "max": [
        1.5666667222976685
      ],
      "min": [
        0.0
      ],
      "type": "SCALAR"
    },
    {
      "bufferView": 7,
      "byteOffset": 3972,
      "componentType": 5126,
      "count": 48,
      "max": [
        1.7763568394002505e-15,
        6.210618019104004,
        3.552713678800501e-15
      ],
      "min": [
        -2.220446049250313e-15,
        6.210618019104004,
        -3.552713678800501e-15
      ],
      "type": "VEC3"
    },
    {
      "bufferView": 6,
      "byteOffset": 3244,
      "componentType": 5126,
      "count": 48,
      "max": [
        1.5666667222976685
      ],
      "min": [
        0.0
      ],
      "type": "SCALAR"
    },
    {
      "bufferView": 8,
      "byteOffset": 6912,
      "componentType": 5126,
      "count": 48,
      "max": [
        -0.0911610946059227,
        0.0779055655002594,
        0.05665634945034981,
        0.9957335591316223
      ],
      "min": [
        -0.11302617937326431,
        -0.06653935462236404,
        -0.035895995795726776,
        0.9900472164154053
      ],
      "type": "VEC4"
    },
    {
      "bufferView": 6,
      "byteOffset": 3436,
      "componentType": 5126,
      "count": 46,
      "max": [
        1.5666667222976685
      ],
      "min": [
        0.0
      ],
      "type": "SCALAR"
    },
    {
      "bufferView": 7,
      "byteOffset": 4548,
      "componentType": 5126,
      "count": 46,
      "max": [
        1.7763568394002505e-15,
        5.322803497314453,
        0.07922077178955078
      ],
      "min": [
        -8.881784197001252e-16,
        5.322803497314453,
        0.07922077178955078
      ],
      "type": "VEC3"
    },
    {
      "bufferView": 6,
      "byteOffset": 3620,
      "componentType": 5126,
      "count": 48,
      "max": [
        1.5666667222976685
      ],
      "min": [
        0.0
      ],
      "type": "SCALAR"
    },
    {
      "bufferView": 8,
      "byteOffset": 7680,
      "componentType": 5126,
      "count": 48,
      "max": [
        -0.037977054715156555,
        0.042923398315906525,
        0.02129438892006874,
        0.9991955161094666
      ],
      "min": [
        -0.050414685159921646,
        -0.03254561871290207,
        -0.025521351024508476,
        0.9978893399238586
      ],
      "type": "VEC4"
    },
    {
      "bufferView": 6,
      "byteOffset": 3812,
      "componentType": 5126,
      "count": 48,
      "max": [
        1.5666667222976685
      ],
      "min": [
        0.0
      ],
      "type": "SCALAR"
    },
    {
      "bufferView": 7,
      "byteOffset": 5100,
      "componentType": 5126,
      "count": 48,
      "max": [
        3.552713678800501e-15,
        8.648550033569336,
        7.105427357601002e-15
      ],
      "min": [
        -7.105427357601002e-15,
        8.648550033569336,
        -3.552713678800501e-15
      ],
      "type": "VEC3"
    },
    {
      "bufferView": 6,
      "byteOffset": 4004,
      "componentType": 5126,
      "count": 48,
      "max": [
        1.5666667222976685
      ],
      "min": [
        0.0
      ],
      "type": "SCALAR"
    },
    {
      "bufferView": 8,
      "byteOffset": 8448,
      "componentType": 5126,
      "count": 48,
      "max": [
        0.22748100757598877,
        -0.004403439816087484,
        0.15941396355628967,
        0.9889198541641235
      ],
      "min": [
        -0.040966324508190155,
        -0.04337374493479729,
        0.1455642133951187,
        0.9602460861206055
      ],
      "type": "VEC4"
    },
    {
      "bufferView": 6,
      "byteOffset": 4196,
      "componentType": 5126,
      "count": 48,
      "max": [
        1.5666667222976685
      ],
      "min": [
        0.0
      ],
      "type": "SCALAR"
    },
    {
      "bufferView": 7,
      "byteOffset": 5676,
      "componentType": 5126,
      "count": 48,
      "max": [
        1.0658141036401503e-14,
        31.262535095214844,
        4.440892098500626e-15
      ],
      "min": [
        -3.552713678800501e-15,
        31.262535095214844,
        -3.552713678800501e-15
      ],
      "type": "VEC3"
    },
    {
      "bufferView": 6,
      "byteOffset": 4388,
      "componentType": 5126,
      "count": 48,
      "max": [
        1.5666667222976685
      ],
      "min": [
        0.0
      ],
      "type": "SCALAR"
    },
    {
      "bufferView": 8,
      "byteOffset": 9216,
      "componentType": 5126,
      "count": 48,
      "max": [
        0.0715206116437912,
        0.7501349449157715,
        0.9150298833847046,
        0.05249258130788803
      ],
      "min": [
        -0.023938044905662537,
        -0.6774415969848633,
        -0.7036123275756836,
        -0.02100958675146103
      ],
      "type": "VEC4"
    },
    {
      "bufferView": 6,
      "byteOffset": 4580,
      "componentType": 5126,
      "count": 48,
      "max": [
        1.5666667222976685
      ],
      "min": [
        0.0
      ],
      "type": "SCALAR"
    },
    {
      "bufferView": 7,
      "byteOffset": 6252,
      "componentType": 5126,
      "count": 48,
      "max": [
        3.552713678800501e-15,
        25.526193618774414,
        7.105427357601002e-15
      ],
      "min": [
        -3.552713678800501e-15,
        25.526193618774414,
        -7.105427357601002e-15
      ],
      "type": "VEC3"
    },
    {
      "bufferView": 6,
      "byteOffset": 4772,
      "componentType": 5126,
      "count": 48,
      "max": [
        1.5666667222976685
      ],
      "min": [
        0.0
      ],
      "type": "SCALAR"
    },
    {
      "bufferView": 8,
      "byteOffset": 9984,
      "componentType": 5126,
      "count": 48,
      "max": [
        0.6735715270042419,
        0.09135475009679794,
        0.0549565888941288,
        0.9834043383598328
      ],
      "min": [
        0.15755592286586761,
        -0.09156256914138794,
        -0.05093948170542717,
        0.7360593676567078
      ],
      "type": "VEC4"
    },
    {
      "bufferView": 6,
      "byteOffset": 4964,
      "componentType": 5126,
      "count": 48,
      "max": [
        1.5666667222976685
      ],
      "min": [
        0.0
      ],
      "type": "SCALAR"
    },
    {
      "bufferView": 8,
      "byteOffset": 10752,
      "componentType": 5126,
      "count": 48,
      "max": [
        0.11682559549808502,
        0.0977678894996643,
        0.9934852123260498,
        0.12622377276420593
      ],
      "min": [
        0.020688163116574287,
        -0.593708872795105,
        0.7914423942565918,
        -0.02109241671860218
      ],
      "type": "VEC4"
    },
    {
      "bufferView": 6,
      "byteOffset": 5156,
      "componentType": 5126,
      "count": 46,
      "max": [
        1.5666667222976685
      ],
      "min": [
        0.0
      ],
      "type": "SCALAR"
    },
    {
      "bufferView": 7,
      "byteOffset": 6828,
      "componentType": 5126,
      "count": 46,
      "max": [
        3.552713678800501e-15,
        1.6088989973068237,
        3.552713678800501e-15
      ],
      "min": [
        0.0,
        1.6088989973068237,
        -8.881784197001252e-16
      ],
      "type": "VEC3"
    },
    {
      "bufferView": 6,
      "byteOffset": 5340,
      "componentType": 5126,
      "count": 48,
      "max": [
        1.5666667222976685
      ],
      "min": [
        0.0
      ],
      "type": "SCALAR"
    },
    {
      "bufferView": 8,
      "byteOffset": 11520,
      "componentType": 5126,
      "count": 48,
      "max": [
        0.42692458629608154,
        0.7029842138290405,
        -0.15005077421665192,
        0.586919903755188
      ],
      "min": [
        0.26939916610717773,
        0.671375572681427,
        -0.35694268345832825,
        0.5531013607978821
      ],
      "type": "VEC4"
    },
    {
      "bufferView": 6,
      "byteOffset": 5532,
      "componentType": 5126,
      "count": 47,
      "max": [
        1.5666667222976685
      ],
      "min": [
        0.0
      ],
      "type": "SCALAR"
    },
    {
      "bufferView": 7,
      "byteOffset": 7380,
      "componentType": 5126,
      "count": 47,
      "max": [
        3.552713678800501e-15,
        30.5987606048584,
        3.552713678800501e-15
      ],
      "min": [
        -3.552713678800501e-15,
        30.5987606048584,
        -7.105427357601002e-15
      ],
      "type": "VEC3"
    },
    {
      "bufferView": 6,
      "byteOffset": 5720,
      "componentType": 5126,
      "count": 48,
      "max": [
        1.5666667222976685
      ],
      "min": [
        0.0
      ],
      "type": "SCALAR"
    },
    {
      "bufferView": 8,
      "byteOffset": 12288,
      "componentType": 5126,
      "count": 48,
      "max": [
        0.22212739288806915,
        0.6853048205375671,
        0.9297811985015869,
        0.13571956753730774
      ],
      "min": [
        -0.2707781195640564,
        -0.6770161986351013,
        -0.6801447868347168,
        -0.1987263411283493
      ],
      "type": "VEC4"
    },
    {
      "bufferView": 6,
      "byteOffset": 5912,
      "componentType": 5126,
      "count": 46,
      "max": [
        1.5666667222976685
      ],
      "min": [
        0.0
      ],
      "type": "SCALAR"
    },
    {
      "bufferView": 7,
      "byteOffset": 7944,
      "componentType": 5126,
      "count": 46,
      "max": [
        3.552713678800501e-15,
        25.542495727539063,
        7.105427357601002e-15
      ],
      "min": [
        -3.552713678800501e-15,
        25.542495727539063,
        -7.105427357601002e-15
      ],
      "type": "VEC3"
    },
    {
      "bufferView": 6,
      "byteOffset": 6096,
      "componentType": 5126,
      "count": 48,
      "max": [
        1.5666667222976685
      ],
      "min": [
        0.0
      ],
      "type": "SCALAR"
    },
    {
      "bufferView": 8,
      "byteOffset": 13056,
      "componentType": 5126,
      "count": 48,
      "max": [
        0.5874205827713013,
        0.08779209852218628,
        0.07405690103769302,
        0.9901633858680725
      ],
      "min": [
        0.12221178412437439,
        -0.09252062439918518,
        0.026175832375884056,
        0.806602954864502
      ],
      "type": "VEC4"
    },
    {
      "bufferView": 6,
      "byteOffset": 6288,
      "componentType": 5126,
      "count": 48,
      "max": [
        1.5666667222976685
      ],
      "min": [
        0.0
      ],
      "type": "SCALAR"
    },
    {
      "bufferView": 8,
      "byteOffset": 13824,
      "componentType": 5126,
      "count": 48,
      "max": [
        -0.02091696299612522,
        0.17006544768810272,
        0.9943383932113647,
        0.002529791323468089
      ],
      "min": [
        -0.1002606675028801,
        -0.5744097828865051,
        0.8143723011016846,
        -0.15032009780406952
      ],
      "type": "VEC4"
    },
    {
      "bufferView": 6,
      "byteOffset": 6480,
      "componentType": 5126,
      "count": 48,
      "max": [
        1.5666667222976685
      ],
      "min": [
        0.0
      ],
      "type": "SCALAR"
    },
    {
      "bufferView": 7,
      "byteOffset": 8496,
      "componentType": 5126,
      "count": 48,
      "max": [
        6.446953773498535,
        57.29605484008789,
        2.5116629600524902
      ],
      "min": [
        1.668663740158081,
        45.246097564697266,
        -4.473639965057373
      ],
      "type": "VEC3"
    },
    {
      "bufferView": 6,
      "byteOffset": 6672,
      "componentType": 5126,
      "count": 48,
      "max": [
        1.5666667222976685
      ],
      "min": [
        0.0
      ],
      "type": "SCALAR"
    },
    {
      "bufferView": 8,
      "byteOffset": 14592,
      "componentType": 5126,
      "count": 48,
      "max": [
        0.03524604067206383,
        0.9978107810020447,
        0.11097318679094315,
        0.10764430463314056
      ],
      "min": [
        -0.052724577486515045,
        0.9872654676437378,
        0.045285385102033615,
        -0.05709270015358925
      ],
      "type": "VEC4"
    }
  ],
  "animations": [
    {
      "channels": [
        {
          "sampler": 0,
          "target": {
            "node": 31,
            "path": "translation"
          }
        },
        {
          "sampler": 1,
          "target": {
            "node": 31,
            "path": "rotation"
          }
        },
        {
          "sampler": 2,
          "target": {
            "node": 30,
            "path": "translation"
          }
        },
        {
          "sampler": 3,
          "target": {
            "node": 30,
            "path": "rotation"
          }
        },
        {
          "sampler": 4,
          "target": {
            "node": 35,
            "path": "translation"
          }
        },
        {
          "sampler": 5,
          "target": {
            "node": 35,
            "path": "rotation"
          }
        },
        {
          "sampler": 6,
          "target": {
            "node": 34,
            "path": "translation"
          }
        },
        {
          "sampler": 7,
          "target": {
            "node": 34,
            "path": "rotation"
          }
        },
        {
          "sampler": 8,
          "target": {
            "node": 33,
            "path": "rotation"
          }
        },
        {
          "sampler": 9,
          "target": {
            "node": 39,
            "path": "translation"
          }
        },
        {
          "sampler": 10,
          "target": {
            "node": 39,
            "path": "rotation"
          }
        },
        {
          "sampler": 11,
          "target": {
            "node": 38,
            "path": "translation"
          }
        },
        {
          "sampler": 12,
          "target": {
            "node": 38,
            "path": "rotation"
          }
        },
        {
          "sampler": 13,
          "target": {
            "node": 37,
            "path": "rotation"
          }
        },
        {
          "sampler": 14,
          "target": {
            "node": 29,
            "path": "translation"
          }
        },
        {
          "sampler": 15,
          "target": {
            "node": 29,
            "path": "rotation"
          }
        },
        {
          "sampler": 16,
          "target": {
            "node": 28,
            "path": "translation"
          }
        },
        {
          "sampler": 17,
          "target": {
            "node": 28,
            "path": "rotation"
          }
        },
        {
          "sampler": 18,
          "target": {
            "node": 27,
            "path": "translation"
          }
        },
        {
          "sampler": 19,
          "target": {
            "node": 27,
            "path": "rotation"
          }
        },
        {
          "sampler": 20,
          "target": {
            "node": 44,
            "path": "translation"
          }
        },
        {
          "sampler": 21,
          "target": {
            "node": 44,
            "path": "rotation"
          }
        },
        {
          "sampler": 22,
          "target": {
            "node": 43,
            "path": "translation"
          }
        },
        {
          "sampler": 23,
          "target": {
            "node": 43,
            "path": "rotation"
          }
        },
        {
          "sampler": 24,
          "target": {
            "node": 42,
            "path": "translation"
          }
        },
        {
          "sampler": 25,
          "target": {
            "node": 42,
            "path": "rotation"
          }
        },
        {
          "sampler": 26,
          "target": {
            "node": 41,
            "path": "rotation"
          }
        },
        {
          "sampler": 27,
          "target": {
            "node": 49,
            "path": "translation"
          }
        },
        {
          "sampler": 28,
          "target": {
            "node": 49,
            "path": "rotation"
          }
        },
        {
          "sampler": 29,
          "target": {
            "node": 48,
            "path": "translation"
          }
        },
        {
          "sampler": 30,
          "target": {
            "node": 48,
            "path": "rotation"
          }
        },
        {
          "sampler": 31,
          "target": {
            "node": 47,
            "path": "translation"
          }
        },
        {
          "sampler": 32,
          "target": {
            "node": 47,
            "path": "rotation"
          }
        },
        {
          "sampler": 33,
          "target": {
            "node": 46,
            "path": "rotation"
          }
        },
        {
          "sampler": 34,
          "target": {
            "node": 26,
            "path": "translation"
          }
        },
        {
          "sampler": 35,
          "target": {
            "node": 26,
            "path": "rotation"
          }
        }
      ],
      "name": "mixamo.com",
      "samplers": [
        {
          "input": 61,
          "interpolation": "LINEAR",
          "output": 62
        },
        {
          "input": 63,
          "interpolation": "LINEAR",
          "output": 64
        },
        {
          "input": 65,
          "interpolation": "LINEAR",
          "output": 66
        },
        {
          "input": 67,
          "interpolation": "LINEAR",
          "output": 68
        },
        {
          "input": 69,
          "interpolation": "LINEAR",
          "output": 70
        },
        {
          "input": 71,
          "interpolation": "LINEAR",
          "output": 72
        },
        {
          "input": 73,
          "interpolation": "LINEAR",
          "output": 74
        },
        {
          "input": 75,
          "interpolation": "LINEAR",
          "output": 76
        },
        {
          "input": 77,
          "interpolation": "LINEAR",
          "output": 78
        },
        {
          "input": 79,
          "interpolation": "LINEAR",
          "output": 80
        },
        {
          "input": 81,
          "interpolation": "LINEAR",
          "output": 82
        },
        {
          "input": 83,
          "interpolation": "LINEAR",
          "output": 84
        },
        {
          "input": 85,
          "interpolation": "LINEAR",
          "output": 86
        },
        {
          "input": 87,
          "interpolation": "LINEAR",
          "output": 88
        },
        {
          "input": 89,
          "interpolation": "LINEAR",
          "output": 90
        },
        {
          "input": 91,
          "interpolation": "LINEAR",
          "output": 92
        },
        {
          "input": 93,
          "interpolation": "LINEAR",
          "output": 94
        },
        {
          "input": 95,
          "interpolation": "LINEAR",
          "output": 96
        },
        {
          "input": 97,
          "interpolation": "LINEAR",
          "output": 98
        },
        {
          "input": 99,
          "interpolation": "LINEAR",
          "output": 100
        },
        {
          "input": 101,
          "interpolation": "LINEAR",
          "output": 102
        },
        {
          "input": 103,
          "interpolation": "LINEAR",
          "output": 104
        },
        {
          "input": 105,
          "interpolation": "LINEAR",
          "output": 106
        },
        {
          "input": 107,
          "interpolation": "LINEAR",
          "output": 108
        },
        {
          "input": 109,
          "interpolation": "LINEAR",
          "output": 110
        },
        {
          "input": 111,
          "interpolation": "LINEAR",
          "output": 112
        },
        {
          "input": 113,
          "interpolation": "LINEAR",
          "output": 114
        },
        {
          "input": 115,
          "interpolation": "LINEAR",
          "output": 116
        },
        {
          "input": 117,
          "interpolation": "LINEAR",
          "output": 118
        },
        {
          "input": 119,
          "interpolation": "LINEAR",
          "output": 120
        },
        {
          "input": 121,
          "interpolation": "LINEAR",
          "output": 122
        },
        {
          "input": 123,
          "interpolation": "LINEAR",
          "output": 124
        },
        {
          "input": 125,
          "interpolation": "LINEAR",
          "output": 126
        },
        {
          "input": 127,
          "interpolation": "LINEAR",
          "output": 128
        },
        {
          "input": 129,
          "interpolation": "LINEAR",
          "output": 130
        },
        {
          "input": 131,
          "interpolation": "LINEAR",
          "output": 132
        }
      ]
    }
  ],
  "asset": {
    "extras": {
      "author": "Gamboa853 (https://sketchfab.com/Gamboa853)",
      "license": "CC-BY-4.0 (http://creativecommons.org/licenses/by/4.0/)",
      "source": "https://sketchfab.com/3d-models/ice-golem-archie-the-archer-6b57f37f846f4513b09f7ff738e1424d",
      "title": "Ice Golem - Archie & The Archer"
    },
    "generator": "Sketchfab-12.68.0",
    "version": "2.0"
  },
  "bufferViews": [
    {
      "buffer": 0,
      "byteLength": 1633104,
      "byteStride": 8,
      "name": "shortBufferViews",
      "target": 34962
    },
    {
      "buffer": 0,
      "byteLength": 1224936,
      "byteOffset": 1633104,
      "name": "floatBufferViews",
      "target": 34963
    },
    {
      "buffer": 0,
      "byteLength": 1633104,
      "byteOffset": 2858040,
      "byteStride": 8,
      "name": "floatBufferViews",
      "target": 34962
    },
    {
      "buffer": 0,
      "byteLength": 4899312,
      "byteOffset": 4491144,
      "byteStride": 12,
      "name": "floatBufferViews",
      "target": 34962
    },
    {
      "buffer": 0,
      "byteLength": 3266208,
      "byteOffset": 9390456,
      "byteStride": 16,
      "name": "floatBufferViews",
      "target": 34962
    },
    {
      "buffer": 0,
      "byteLength": 1664,
      "byteOffset": 12656664,
      "name": "floatBufferViews"
    },
    {
      "buffer": 0,
      "byteLength": 6864,
      "byteOffset": 12658328,
      "name": "floatBufferViews"
    },
    {
      "buffer": 0,
      "byteLength": 9072,
      "byteOffset": 12665192,
      "byteStride": 12,
      "name": "floatBufferViews"
    },
    {
      "buffer": 0,
      "byteLength": 15360,
      "byteOffset": 12674264,
      "byteStride": 16,
      "name": "floatBufferViews"
    }
  ],
  "buffers": [
    {
      "byteLength": 12689624,
      "uri": "scene.bin"
    }
  ],
  "images": [
    {
      "uri": "textures/lambert2_baseColor.png"
    }
  ],
  "materials": [
    {
      "doubleSided": true,
      "name": "lambert2",
      "pbrMetallicRoughness": {
        "baseColorTexture": {
          "index": 0
        },
        "metallicFactor": 0.0,
        "roughnessFactor": 0.6
      }
    }
  ],
  "meshes": [
    {
      "name": "IceRArmLower_lambert2_0",
      "primitives": [
        {
          "attributes": {
            "JOINTS_0": 41,
            "NORMAL": 1,
            "POSITION": 0,
            "TEXCOORD_0": 2,
            "TEXCOORD_1": 2,
            "WEIGHTS_0": 42
          },
          "indices": 3,
          "material": 0,
          "mode": 4
        }
      ]
    },
    {
      "name": "IceLArmUpper_lambert2_0",
      "primitives": [
        {
          "attributes": {
            "JOINTS_0": 43,
            "NORMAL": 5,
            "POSITION": 4,
            "TEXCOORD_0": 6,
            "TEXCOORD_1": 6,
            "WEIGHTS_0": 44
          },
          "indices": 7,
          "material": 0,
          "mode": 4
        }
      ]
    },
    {
      "name": "IceRArmUpper_lambert2_0",
      "primitives": [
        {
          "attributes": {
            "JOINTS_0": 45,
            "NORMAL": 9,
            "POSITION": 8,
            "TEXCOORD_0": 10,
            "TEXCOORD_1": 10,
            "WEIGHTS_0": 46
          },
          "indices": 11,
          "material": 0,
          "mode": 4
        }
      ]
    },
    {
      "name": "IceBody_lambert2_0",
      "primitives": [
        {
          "attributes": {
            "JOINTS_0": 47,
            "NORMAL": 13,
            "POSITION": 12,
            "TEXCOORD_0": 14,
            "TEXCOORD_1": 14,
            "WEIGHTS_0": 48
          },
          "indices": 15,
          "material": 0,
          "mode": 4
        }
      ]
    },
    {
      "name": "IceLLegLower_lambert2_0",
      "primitives": [
        {
          "attributes": {
            "JOINTS_0": 49,
            "NORMAL": 17,
            "POSITION": 16,
            "TEXCOORD_0": 18,
            "TEXCOORD_1": 18,
            "WEIGHTS_0": 50
          },
          "indices": 19,
          "material": 0,
          "mode": 4
        }
      ]
    },
    {
      "name": "IceLLegUpper_lambert2_0",
      "primitives": [
        {
          "attributes": {
            "JOINTS_0": 51,
            "NORMAL": 21,
            "POSITION": 20,
            "TEXCOORD_0": 22,
            "TEXCOORD_1": 22,
            "WEIGHTS_0": 52
          },
          "indices": 23,
          "material": 0,
          "mode": 4
        }
      ]
    },
    {
      "name": "IceRLegLower_lambert2_0",
      "primitives": [
        {
          "attributes": {
            "JOINTS_0": 53,
            "NORMAL": 25,
            "POSITION": 24,
            "TEXCOORD_0": 26,
            "TEXCOORD_1": 26,
            "WEIGHTS_0": 54
          },
          "indices": 27,
          "material": 0,
          "mode": 4
        }
      ]
    },
    {
      "name": "IceRLegUpper_lambert2_0",
      "primitives": [
        {
          "attributes": {
            "JOINTS_0": 55,
            "NORMAL": 29,
            "POSITION": 28,
            "TEXCOORD_0": 30,
            "TEXCOORD_1": 30,
            "WEIGHTS_0": 56
          },
          "indices": 31,
          "material": 0,
          "mode": 4
        }
      ]
    },
    {
      "name": "IceHead_lambert2_0",
      "primitives": [
        {
          "attributes": {
            "JOINTS_0": 57,
            "NORMAL": 33,
            "POSITION": 32,
            "TEXCOORD_0": 34,
            "TEXCOORD_1": 34,
            "WEIGHTS_0": 58
          },
          "indices": 35,
          "material": 0,
          "mode": 4
        }
      ]
    },
    {
      "name": "IceLArmLower_lambert2_0",
      "primitives": [
        {
          "attributes": {
            "JOINTS_0": 59,
            "NORMAL": 37,
            "POSITION": 36,
            "TEXCOORD_0": 38,
            "TEXCOORD_1": 38,
            "WEIGHTS_0": 60
          },
          "indices": 39,
          "material": 0,
          "mode": 4
        }
      ]
    }
  ],
  "nodes": [
    {
      "children": [
        1
      ],
      "matrix": [
        0.023790813982486725,
        0.0,
        0.0,
        0.0,
        0.0,
        5.2826218915861755e-18,
        -0.023790813982486725,
        0.0,
        0.0,
        0.023790813982486725,
        5.2826218915861755e-18,
        0.0,
        0.0,
        0.0,
        0.0,
        1.0
      ],
      "name": "Sketchfab_model"
    },
    {
      "children": [
        2
      ],
      "matrix": [
        1.0,
        0.0,
        0.0,
        0.0,
        0.0,
        0.0,
        1.0,
        0.0,
        0.0,
        -1.0,
        0.0,
        0.0,
        0.0,
        0.0,
        0.0,
        1.0
      ],
      "name": "b7b67647ac3e465db4a6b30d1c7cd8e4.fbx"
    },
    {
      "children": [
        3
      ],
      "name": "Object_2"
    },
    {
      "children": [
        4
      ],
      "name": "RootNode"
    },
    {
      "children": [
        5,
        7,
        9,
        11,
        13,
        15,
        17,
        19,
        21,
        23,
        25,
        6,
        8,
        10,
        12,
        14,
        16,
        18,
        20,
        22,
        24,
        51,
        52,
        53,
        54,
        55,
        56,
        57,
        58,
        59,
        60
      ],
      "name": "Object_4"
    },
    {
      "children": [
        26
      ],
      "name": "_rootJoint"
    },
    {
      "matrix": [
        0.9999999999999999,
        -6.938893903907228e-18,
        3.903127820947816e-18,
        0.0,
        6.938893903907231e-18,
        1.0000000000000002,
        1.3877787807814457e-17,
        0.0,
        -3.9031278209478175e-18,
        -1.3877787807814457e-17,
        1.0000000000000002,
        0.0,
        -4.578415468813851,
        39.78331834346874,
        0.0,
        1.0
      ],
      "name": "Object_6"
    },
    {
      "mesh": 0,
      "name": "Object_7",
      "skin": 0
    },
    {
      "matrix": [
        1.0000000000000002,
        5.551115123125783e-17,
        4.77048955893622e-18,
        0.0,
        -5.551115123125783e-17,
        1.0000000000000002,
        3.469446951953614e-18,
        0.0,
        -4.7704895589362195e-18,
        -3.4694469519536138e-18,
        1.0,
        0.0,
        -4.578415468813863,
        39.78331834346874,
        8.881784197001252e-16,
        1.0
      ],
      "name": "Object_8"
    },
    {
      "mesh": 1,
      "name": "Object_9",
      "skin": 0
    },
    {
      "matrix": [
        1.0,
        0.0,
        -3.0357660829594124e-18,
        0.0,
        0.0,
        1.0,
        0.0,
        0.0,
        3.0357660829594124e-18,
        0.0,
        1.0,
        0.0,
        -4.578415468813848,
        39.78331834346876,
        8.881784197001252e-16,
        1.0
      ],
      "name": "Object_10"
    },
    {
      "mesh": 2,
      "name": "Object_11",
      "skin": 0
    },
    {
      "matrix": [
        1.0,
        -4.974917787595279e-32,
        -7.703719777548943e-34,
        0.0,
        4.974917787595279e-32,
        1.0,
        0.0,
        0.0,
        7.703719777548943e-34,
        -3.832537255197778e-65,
        1.0,
        0.0,
        -4.578415468813853,
        39.783318343468736,
        -1.7763568394002505e-15,
        1.0
      ],
      "name": "Object_12"
    },
    {
      "mesh": 3,
      "name": "Object_13",
      "skin": 0
    },
    {
      "matrix": [
        1.0,
        2.7755575615628914e-17,
        6.071532165918825e-18,
        0.0,
        -2.7755575615628926e-17,
        1.0000000000000004,
        -3.469446951953614e-18,
        0.0,
        -6.071532165918825e-18,
        3.4694469519536126e-18,
        1.0,
        0.0,
        -4.578415468813844,
        39.783318343468736,
        0.0,
        1.0
      ],
      "name": "Object_14"
    },
    {
      "mesh": 4,
      "name": "Object_15",
      "skin": 0
    },
    {
      "matrix": [
        1.0000000000000004,
        1.3853474969650125e-17,
        -7.269268340095539e-19,
        0.0,
        -1.3853474969650125e-17,
        1.0000000000000004,
        0.0,
        0.0,
        7.269268340095539e-19,
        1.0070462699718361e-35,
        1.0000000000000004,
        0.0,
        -4.5784154688138505,
        39.78331834346873,
        -2.6645352591003757e-15,
        1.0
      ],
      "name": "Object_16"
    },
    {
      "mesh": 5,
      "name": "Object_17",
      "skin": 0
    },
    {
      "matrix": [
        1.0,
        -1.376295830000067e-17,
        8.665162126711622e-19,
        0.0,
        1.376295830000067e-17,
        1.0,
        -2.7755575615628914e-17,
        0.0,
        -8.665162126711617e-19,
        2.775557561562891e-17,
        0.9999999999999999,
        0.0,
        -4.578415468813853,
        39.783318343468736,
        0.0,
        1.0
      ],
      "name": "Object_18"
    },
    {
      "mesh": 6,
      "name": "Object_19",
      "skin": 0
    },
    {
      "matrix": [
        1.0,
        -1.376295830000067e-17,
        8.665162126711622e-19,
        0.0,
        1.376295830000067e-17,
        1.0,
        -2.7755575615628914e-17,
        0.0,
        -8.665162126711617e-19,
        2.775557561562891e-17,
        0.9999999999999999,
        0.0,
        -4.578415468813853,
        39.783318343468736,
        0.0,
        1.0
      ],
      "name": "Object_20"
    },
    {
      "mesh": 7,
      "name": "Object_21",
      "skin": 0
    },
    {
      "matrix": [
        1.0,
        -4.176194859519054e-52,
        0.0,
        0.0,
        4.176194859519054e-52,
        1.0,
        0.0,
        0.0,
        0.0,
        0.0,
        1.0,
        0.0,
        -4.578415468813853,
        39.783318343468736,
        0.0,
        1.0
      ],
      "name": "Object_22"
    },
    {
      "mesh": 8,
      "name": "Object_23",
      "skin": 0
    },
    {
      "matrix": [
        0.9999999999999998,
        6.938893903907228e-18,
        -2.439454888092385e-17,
        0.0,
        -6.938893903907228e-18,
        0.9999999999999998,
        0.0,
        0.0,
        2.4394548880923856e-17,
        1.6927118651840949e-34,
        1.0,
        0.0,
        -4.5784154688138585,
        39.78331834346874,
        -8.881784197001252e-16,
        1.0
      ],
      "name": "Object_24"
    },
    {
      "mesh": 9,
      "name": "Object_25",
      "skin": 0
    },
    {
      "children": [
        27,
        41,
        46
      ],
      "name": "mixamorig:Hips_00",
      "rotation": [
        6.123234262925839e-17,
        1.0,
        6.123234262925839e-17,
        6.123234262925839e-17
      ],
      "translation": [
        0.30415597558021545,
        59.28036117553711,
        5.320783615112305
      ]
    },
    {
      "children": [
        28
      ],
      "name": "mixamorig:Spine_01",
      "rotation": [
        0.007441042922437191,
        -4.656132976624106e-19,
        -6.257192523534107e-17,
        0.9999723434448242
      ],
      "translation": [
        6.661338147750939e-16,
        5.322803497314453,
        0.07922077178955078
      ]
    },
    {
      "children": [
        29
      ],
      "name": "mixamorig:Spine1_02",
      "rotation": [
        -2.9703265624902997e-08,
        3.673674354085865e-24,
        -3.910369787210718e-18,
        1.0
      ],
      "translation": [
        5.551115123125783e-17,
        6.210618019104004,
        0.0
      ]
    },
    {
      "children": [
        30,
        33,
        37
      ],
      "name": "mixamorig:Spine2_03",
      "rotation": [
        8.673617379884035e-19,
        -0.0,
        -7.318533788671496e-33,
        1.0
      ],
      "translation": [
        -5.551115123125783e-17,
        7.0978546142578125,
        0.0
      ]
    },
    {
      "children": [
        31
      ],
      "name": "mixamorig:Neck_04",
      "rotation": [
        -0.007441013120114803,
        1.269533746486812e-18,
        6.646979218759305e-17,
        0.9999723434448242
      ],
      "translation": [
        0.0,
        7.98508358001709,
        2.2137076882700057e-07
      ]
    },
    {
      "children": [
        32
      ],
      "name": "mixamorig:Head_05",
      "rotation": [
        0.0,
        0.0,
        4.782079996457996e-33,
        1.0
      ],
      "translation": [
        -7.216449660063518e-16,
        3.786163330078125,
        -2.837777614593506
      ]
    },
    {
      "name": "mixamorig:HeadTop_End_06",
      "rotation": [
        0.0,
        0.0,
        4.782079996457996e-33,
        1.0
      ],
      "translation": [
        -3.219646771412954e-15,
        15.1585693359375,
        -11.361544609069824
      ]
    },
    {
      "children": [
        34
      ],
      "name": "mixamorig:LeftShoulder_07",
      "rotation": [
        0.5610695481300354,
        -0.42900797724723816,
        0.5659881234169006,
        0.42521828413009644
      ],
      "translation": [
        -6.171890735626221,
        6.139490127563477,
        -0.053769052028656006
      ]
    },
    {
      "children": [
        35
      ],
      "name": "mixamorig:LeftArm_08",
      "rotation": [
        -0.09492693841457367,
        0.001152539043687284,
        -0.012085603550076485,
        0.9954103231430054
      ],
      "translation": [
        -8.881784197001252e-16,
        13.002734184265137,
        0.0
      ]
    },
    {
      "children": [
        36
      ],
      "name": "mixamorig:LeftForeArm_09",
      "rotation": [
        -0.058877862989902496,
        -0.0023454271722584963,
        0.03973473608493805,
        0.9974713325500488
      ],
      "translation": [
        0.0,
        12.039783477783203,
        1.4210854715202004e-14
      ]
    },
    {
      "name": "mixamorig:LeftHand_010",
      "rotation": [
        -7.806255641895632e-17,
        -8.673617379884035e-18,
        2.0816681711721685e-17,
        1.0
      ],
      "translation": [
        0.0,
        23.868911743164063,
        -1.4210854715202004e-14
      ]
    },
    {
      "children": [
        38
      ],
      "name": "mixamorig:RightShoulder_011",
      "rotation": [
        0.5683661103248596,
        0.42362695932388306,
        -0.5584940314292908,
        0.430795282125473
      ],
      "translation": [
        6.171890735626221,
        6.141907691955566,
        0.1086709052324295
      ]
    },
    {
      "children": [
        39
      ],
      "name": "mixamorig:RightArm_012",
      "rotation": [
        -0.09360204637050629,
        0.004203146323561668,
        -0.044661883264780045,
        0.9945985674858093
      ],
      "translation": [
        0.0,
        13.00273323059082,
        -1.4210854715202004e-14
      ]
    },
    {
      "children": [
        40
      ],
      "name": "mixamorig:RightForeArm_013",
      "rotation": [
        -0.060179028660058975,
        -0.0013540225336328149,
        0.02245342545211315,
        0.997934103012085
      ],
      "translation": [
        -8.881784197001252e-16,
        12.07012939453125,
        0.0
      ]
    },
    {
      "name": "mixamorig:RightHand_014",
      "rotation": [
        -2.2887507861169e-16,
        -3.8163916471489756e-17,
        2.42861286636753e-17,
        1.0
      ],
      "translation": [
        8.881784197001252e-16,
        23.82610321044922,
        1.4210854715202004e-14
      ]
    },
    {
      "children": [
        42
      ],
      "name": "mixamorig:LeftUpLeg_015",
      "rotation": [
        -0.00045971732470206916,
        0.012869325466454029,
        0.9992797374725342,
        0.03569621592760086
      ],
      "translation": [
        -12.715171813964844,
        -2.913280487060547,
        -0.5459365844726563
      ]
    },
    {
      "children": [
        43
      ],
      "name": "mixamorig:LeftLeg_016",
      "rotation": [
        0.09063533693552017,
        -0.0016082499641925097,
        -0.0176683459430933,
        0.9957261085510254
      ],
      "translation": [
        -3.552713678800501e-15,
        25.526193618774414,
        -8.881784197001252e-16
      ]
    },
    {
      "children": [
        44
      ],
      "name": "mixamorig:LeftFoot_017",
      "rotation": [
        0.04040836915373802,
        -0.6133360266685486,
        0.7881606817245483,
        0.031445249915122986
      ],
      "translation": [
        3.552713678800501e-15,
        31.262535095214844,
        2.9976021664879227e-15
      ]
    },
    {
      "children": [
        45
      ],
      "name": "mixamorig:LeftToeBase_018",
      "rotation": [
        -0.03229856863617897,
        -0.004777919501066208,
        0.14625924825668335,
        0.9887073636054993
      ],
      "translation": [
        0.0,
        8.648550033569336,
        1.1102230246251565e-16
      ]
    },
    {
      "name": "mixamorig:LeftToe_End_019",
      "rotation": [
        3.122502256758253e-17,
        -1.734723475976807e-18,
        4.163336342344337e-17,
        1.0
      ],
      "translation": [
        0.0,
        4.0689544677734375,
        5.551115123125783e-17
      ]
    },
    {
      "children": [
        47
      ],
      "name": "mixamorig:RightUpLeg_020",
      "rotation": [
        0.0007868765969760716,
        0.0220419242978096,
        0.99912029504776,
        -0.03566768392920494
      ],
      "translation": [
        12.715171813964844,
        -2.913280487060547,
        -1.2150540351867676
      ]
    },
    {
      "children": [
        48
      ],
      "name": "mixamorig:RightLeg_021",
      "rotation": [
        -0.01638246700167656,
        -0.0002959097037091851,
        0.018057215958833694,
        0.9997026920318604
      ],
      "translation": [
        -3.552713678800501e-15,
        25.542495727539063,
        0.0
      ]
    },
    {
      "children": [
        49
      ],
      "name": "mixamorig:RightFoot_022",
      "rotation": [
        -0.23023489117622375,
        -0.5903265476226807,
        0.7522377967834473,
        -0.18067926168441772
      ],
      "translation": [
        3.552713678800501e-15,
        30.5987606048584,
        8.881784197001252e-16
      ]
    },
    {
      "children": [
        50
      ],
      "name": "mixamorig:RightToeBase_023",
      "rotation": [
        0.2758747935295105,
        0.7027453780174255,
        -0.3493185043334961,
        0.5549942255020142
      ],
      "translation": [
        0.0,
        1.6088989973068237,
        3.3306690738754696e-16
      ]
    },
    {
      "name": "mixamorig:RightToe_End_024",
      "rotation": [
        1.5648180798146291e-34,
        -1.1275702593849246e-17,
        1.3877787807814457e-17,
        1.0
      ],
      "translation": [
        0.0,
        2.6862874031066895,
        0.0
      ]
    },
    {
      "name": "IceRArmLower",
      "translation": [
        -4.578415393829346,
        39.78331756591797,
        0.0
      ]
    },
    {
      "name": "IceLArmUpper",
      "translation": [
        -4.578415393829346,
        39.78331756591797,
        0.0
      ]
    },
    {
      "name": "IceRArmUpper",
      "translation": [
        -4.578415393829346,
        39.78331756591797,
        0.0
      ]
    },
    {
      "name": "IceBody",
      "translation": [
        -4.578415393829346,
        39.78331756591797,
        0.0
      ]
    },
    {
      "name": "IceLLegLower",
      "translation": [
        -4.578415393829346,
        39.78331756591797,
        0.0
      ]
    },
    {
      "name": "IceLLegUpper",
      "translation": [
        -4.578415393829346,
        39.78331756591797,
        0.0
      ]
    },
    {
      "name": "IceRLegLower",
      "translation": [
        -4.578415393829346,
        39.78331756591797,
        0.0
      ]
    },
    {
      "name": "IceRLegUpper",
      "translation": [
        -4.578415393829346,
        39.78331756591797,
        0.0
      ]
    },
    {
      "name": "IceHead",
      "translation": [
        -4.578415393829346,
        39.78331756591797,
        0.0
      ]
    },
    {
      "name": "IceLArmLower",
      "translation": [
        -4.578415393829346,
        39.78331756591797,
        0.0
      ]
    }
  ],
  "samplers": [
    {
      "magFilter": 9729,
      "minFilter": 9987,
      "wrapS": 10497,
      "wrapT": 10497
    }
  ],
  "scene": 0,
  "scenes": [
    {
      "name": "Sketchfab_Scene",
      "nodes": [
        0
      ]
    }
  ],
  "skins": [
    {
      "inverseBindMatrices": 40,
      "joints": [
        5,
        26,
        27,
        28,
        29,
        30,
        31,
        32,
        33,
        34,
        35,
        36,
        37,
        38,
        39,
        40,
        41,
        42,
        43,
        44,
        45,
        46,
        47,
        48,
        49,
        50
      ],
      "skeleton": 5
    }
  ],
  "textures": [
    {
      "sampler": 0,
      "source": 0
    }
  ]
}
