{
  "accessors": [
    {
      "bufferView": 3,
      "componentType": 5126,
      "count": 1700,
      "max": [
        2.1114342212677,
        8.665221214294434,
        0.5674325227737427
      ],
      "min": [
        -2.1114342212677,
        -0.04276210814714432,
        -1.2297403812408447
      ],
      "type": "VEC3"
    },
    {
      "bufferView": 3,
      "byteOffset": 20400,
      "componentType": 5126,
      "count": 1700,
      "max": [
        0.9989228844642639,
        0.991625189781189,
        0.999098002910614
      ],
      "min": [
        -0.9989228844642639,
        -0.999224066734314,
        -0.9970113635063171
      ],
      "type": "VEC3"
    },
    {
      "bufferView": 2,
      "componentType": 5126,
      "count": 1700,
      "max": [
        0.9721486568450928,
        0.9811199307441711
      ],
      "min": [
        0.03525669127702713,
        0.00032582879066467285
      ],
      "type": "VEC2"
    },
    {
      "bufferView": 1,
      "componentType": 5125,
      "count": 2508,
      "type": "SCALAR"
    },
    {
      "bufferView": 3,
      "byteOffset": 40800,
      "componentType": 5126,
      "count": 11162,
      "max": [
        45.722190856933594,
        179.44467163085938,
        13.38111400604248
      ],
      "min": [
        -45.99393081665039,
        -2.6924936771392822,
        -26.999439239501953
      ],
      "type": "VEC3"
    },
    {
      "bufferView": 3,
      "byteOffset": 174744,
      "componentType": 5126,
      "count": 11162,
      "max": [
        0.9999999403953552,
        0.9999996423721313,
        1.0
      ],
      "min": [
        -0.9999998211860657,
        -1.0,
        -0.9999998211860657
      ],
      "type": "VEC3"
    },
    {
      "bufferView": 2,
      "byteOffset": 13600,
      "componentType": 5126,
      "count": 11162,
      "max": [
        1.0,
        0.9999999403953552
      ],
      "min": [
        0.0,
        0.0
      ],
      "type": "VEC2"
    },
    {
      "bufferView": 1,
      "byteOffset": 10032,
      "componentType": 5125,
      "count": 18666,
      "type": "SCALAR"
    },
    {
      "bufferView": 3,
      "byteOffset": 308688,
      "componentType": 5126,
      "count": 204,
      "max": [
        -25.01879119873047,
        98.58103942871094,
        0.23144115507602692
      ],
      "min": [
        -42.099945068359375,
        76.52771759033203,
        -16.159568786621094
      ],
      "type": "VEC3"
    },
    {
      "bufferView": 3,
      "byteOffset": 311136,
      "componentType": 5126,
      "count": 204,
      "max": [
        0.9976558685302734,
        0.9227507710456848,
        0.9632352590560913
      ],
      "min": [
        -0.9732377529144287,
        -0.9227507710456848,
        -0.9750262498855591
      ],
      "type": "VEC3"
    },
    {
      "bufferView": 2,
      "byteOffset": 102896,
      "componentType": 5126,
      "count": 204,
      "max": [
        0.9879125356674194,
        0.9861046075820923
      ],
      "min": [
        0.8504358530044556,
        0.027470663189888
      ],
      "type": "VEC2"
    },
    {
      "bufferView": 1,
      "byteOffset": 84696,
      "componentType": 5125,
      "count": 324,
      "type": "SCALAR"
    },
    {
      "bufferView": 3,
      "byteOffset": 313584,
      "componentType": 5126,
      "count": 3936,
      "max": [
        0.8159664869308472,
        8.130779266357422,
        0.3384767174720764
      ],
      "min": [
        -1.4281556606292725,
        3.8408148288726807,
        -1.5150278806686401
      ],
      "type": "VEC3"
    },
    {
      "bufferView": 3,
      "byteOffset": 360816,
      "componentType": 5126,
      "count": 3936,
      "max": [
        0.9998323917388916,
        0.9990432858467102,
        0.9994624257087708
      ],
      "min": [
        -0.9995550513267517,
        -0.9995561242103577,
        -0.9992656707763672
      ],
      "type": "VEC3"
    },
    {
      "bufferView": 2,
      "byteOffset": 104528,
      "componentType": 5126,
      "count": 3936,
      "max": [
        0.8697948455810547,
        0.9884834289550781
      ],
      "min": [
        0.008482450619339943,
        -0.004589070565998554
      ],
      "type": "VEC2"
    },
    {
      "bufferView": 1,
      "byteOffset": 85992,
      "componentType": 5125,
      "count": 4830,
      "type": "SCALAR"
    },
    {
      "bufferView": 5,
      "componentType": 5126,
      "count": 34,
      "max": [
        100.0,
        90.19009399414063,
        94.2546157836914,
        0.0,
        24.688852310180664,
        100.0,
        99.06783294677734,
        0.0,
        99.88836669921875,
        99.98091888427734,
        100.0,
        0.0,
        129.52865600585938,
        529.1221923828125,
        619.7383422851563,
        1.0
      ],
      "min": [
        -99.8905029296875,
        -90.19009399414063,
        -93.888671875,
        0.0,
        -22.469694137573242,
        -99.85064697265625,
        -89.78237915039063,
        0.0,
        -99.98590087890625,
        -67.55559539794922,
        -56.752044677734375,
        0.0,
        -133.54141235351563,
        -746.3358764648438,
        -267.2667236328125,
        1.0
      ],
      "type": "MAT4"
    },
    {
      "bufferView": 0,
      "componentType": 5123,
      "count": 1700,
      "type": "VEC4"
    },
    {
      "bufferView": 4,
      "componentType": 5126,
      "count": 1700,
      "max": [
        1.0,
        0.4937170743942261,
        0.3063982427120209,
        0.11133837699890137
      ],
      "min": [
        0.353832483291626,
        0.0,
        0.0,
        0.0
      ],
      "type": "VEC4"
    },
    {
      "bufferView": 0,
      "byteOffset": 13600,
      "componentType": 5123,
      "count": 11162,
      "type": "VEC4"
    },
    {
      "bufferView": 4,
      "byteOffset": 27200,
      "componentType": 5126,
      "count": 11162,
      "max": [
        1.0,
        0.49942827224731445,
        0.3187948763370514,
        0.15374429523944855
      ],
      "min": [
        0.3407212793827057,
        0.0,
        0.0,
        0.0
      ],
      "type": "VEC4"
    },
    {
      "bufferView": 0,
      "byteOffset": 102896,
      "componentType": 5123,
      "count": 204,
      "type": "VEC4"
    },
    {
      "bufferView": 4,
      "byteOffset": 205792,
      "componentType": 5126,
      "count": 204,
      "max": [
        1.0,
        0.1930602639913559,
        0.0,
        0.0
      ],
      "min": [
        0.8069397211074829,
        0.0,
        0.0,
        0.0
      ],
      "type": "VEC4"
    },
    {
      "bufferView": 0,
      "byteOffset": 104528,
      "componentType": 5123,
      "count": 3936,
      "type": "VEC4"
    },
    {
      "bufferView": 4,
      "byteOffset": 209056,
      "componentType": 5126,
      "count": 3936,
      "max": [
        1.0,
        0.4986444413661957,
        0.30935606360435486,
        0.08723962306976318
      ],
      "min": [
        0.36535683274269104,
        0.0,
        0.0,
        0.0
      ],
      "type": "VEC4"
    },
    {
      "bufferView": 6,
      "componentType": 5126,
      "count": 1,
      "max": [
        0.0
      ],
      "min": [
        0.0
      ],
      "type": "SCALAR"
    },
    {
      "bufferView": 8,
      "componentType": 5126,
      "count": 1,
      "max": [
        0.036520421504974365,
        -0.07164312154054642,
        -0.09924054890871048,
        0.9918088912963867
      ],
      "min": [
        0.036520421504974365,
        -0.07164312154054642,
        -0.09924054890871048,
        0.9918088912963867
      ],
      "type": "VEC4"
    },
    {
      "bufferView": 6,
      "byteOffset": 4,
      "componentType": 5126,
      "count": 1,
      "max": [
        0.0
      ],
      "min": [
        0.0
      ],
      "type": "SCALAR"
    },
    {
      "bufferView": 8,
      "byteOffset": 16,
      "componentType": 5126,
      "count": 1,
      "max": [
        0.0737500786781311,
        -0.10152525454759598,
        0.010248125530779362,
        0.992042601108551
      ],
      "min": [
        0.0737500786781311,
        -0.10152525454759598,
        0.010248125530779362,
        0.992042601108551
      ],
      "type": "VEC4"
    },
    {
      "bufferView": 6,
      "byteOffset": 8,
      "componentType": 5126,
      "count": 1,
      "max": [
        0.0
      ],
      "min": [
        0.0
      ],
      "type": "SCALAR"
    },
    {
      "bufferView": 8,
      "byteOffset": 32,
      "componentType": 5126,
      "count": 1,
      "max": [
        0.43785831332206726,
        0.26135313510894775,
        -0.12743426859378815,
        0.8507262468338013
      ],
      "min": [
        0.43785831332206726,
        0.26135313510894775,
        -0.12743426859378815,
        0.8507262468338013
      ],
      "type": "VEC4"
    },
    {
      "bufferView": 6,
      "byteOffset": 12,
      "componentType": 5126,
      "count": 1,
      "max": [
        0.0
      ],
      "min": [
        0.0
      ],
      "type": "SCALAR"
    },
    {
      "bufferView": 8,
      "byteOffset": 48,
      "componentType": 5126,
      "count": 1,
      "max": [
        0.35296496748924255,
        0.03734460100531578,
        -0.055705416947603226,
        0.9332298636436462
      ],
      "min": [
        0.35296496748924255,
        0.03734460100531578,
        -0.055705416947603226,
        0.9332298636436462
      ],
      "type": "VEC4"
    },
    {
      "bufferView": 6,
      "byteOffset": 16,
      "componentType": 5126,
      "count": 1,
      "max": [
        0.0
      ],
      "min": [
        0.0
      ],
      "type": "SCALAR"
    },
    {
      "bufferView": 8,
      "byteOffset": 64,
      "componentType": 5126,
      "count": 1,
      "max": [
        0.4553056061267853,
        -0.13673755526542664,
        0.07747822999954224,
        0.8763542771339417
      ],
      "min": [
        0.4553056061267853,
        -0.13673755526542664,
        0.07747822999954224,
        0.8763542771339417
      ],
      "type": "VEC4"
    },
    {
      "bufferView": 6,
      "byteOffset": 20,
      "componentType": 5126,
      "count": 1,
      "max": [
        0.0
      ],
      "min": [
        0.0
      ],
      "type": "SCALAR"
    },
    {
      "bufferView": 8,
      "byteOffset": 80,
      "componentType": 5126,
      "count": 1,
      "max": [
        -0.12810452282428741,
        0.03879937529563904,
        -0.1285121738910675,
        0.9826334118843079
      ],
      "min": [
        -0.12810452282428741,
        0.03879937529563904,
        -0.1285121738910675,
        0.9826334118843079
      ],
      "type": "VEC4"
    },
    {
      "bufferView": 6,
      "byteOffset": 24,
      "componentType": 5126,
      "count": 1,
      "max": [
        0.0
      ],
      "min": [
        0.0
      ],
      "type": "SCALAR"
    },
    {
      "bufferView": 8,
      "byteOffset": 96,
      "componentType": 5126,
      "count": 1,
      "max": [
        0.0006991212721914053,
        -0.3505662977695465,
        0.11295696347951889,
        0.9297007322311401
      ],
      "min": [
        0.0006991212721914053,
        -0.3505662977695465,
        0.11295696347951889,
        0.9297007322311401
      ],
      "type": "VEC4"
    },
    {
      "bufferView": 6,
      "byteOffset": 28,
      "componentType": 5126,
      "count": 1,
      "max": [
        0.0
      ],
      "min": [
        0.0
      ],
      "type": "SCALAR"
    },
    {
      "bufferView": 8,
      "byteOffset": 112,
      "componentType": 5126,
      "count": 1,
      "max": [
        -0.11532636731863022,
        -0.06916762888431549,
        -0.12112676352262497,
        0.9834856390953064
      ],
      "min": [
        -0.11532636731863022,
        -0.06916762888431549,
        -0.12112676352262497,
        0.9834856390953064
      ],
      "type": "VEC4"
    },
    {
      "bufferView": 6,
      "byteOffset": 32,
      "componentType": 5126,
      "count": 1,
      "max": [
        0.0
      ],
      "min": [
        0.0
      ],
      "type": "SCALAR"
    },
    {
      "bufferView": 8,
      "byteOffset": 128,
      "componentType": 5126,
      "count": 1,
      "max": [
        -0.5409613847732544,
        -0.4637700319290161,
        0.557573139667511,
        -0.425899475812912
      ],
      "min": [
        -0.5409613847732544,
        -0.4637700319290161,
        0.557573139667511,
        -0.425899475812912
      ],
      "type": "VEC4"
    },
    {
      "bufferView": 6,
      "byteOffset": 36,
      "componentType": 5126,
      "count": 1,
      "max": [
        0.0
      ],
      "min": [
        0.0
      ],
      "type": "SCALAR"
    },
    {
      "bufferView": 8,
      "byteOffset": 144,
      "componentType": 5126,
      "count": 1,
      "max": [
        0.1361636072397232,
        -0.1349811851978302,
        -0.028857043012976646,
        0.981023371219635
      ],
      "min": [
        0.1361636072397232,
        -0.1349811851978302,
        -0.028857043012976646,
        0.981023371219635
      ],
      "type": "VEC4"
    },
    {
      "bufferView": 6,
      "byteOffset": 40,
      "componentType": 5126,
      "count": 1,
      "max": [
        0.0
      ],
      "min": [
        0.0
      ],
      "type": "SCALAR"
    },
    {
      "bufferView": 8,
      "byteOffset": 160,
      "componentType": 5126,
      "count": 1,
      "max": [
        0.26412686705589294,
        -0.043779101222753525,
        0.2844527065753937,
        0.9205471277236938
      ],
      "min": [
        0.26412686705589294,
        -0.043779101222753525,
        0.2844527065753937,
        0.9205471277236938
      ],
      "type": "VEC4"
    },
    {
      "bufferView": 6,
      "byteOffset": 44,
      "componentType": 5126,
      "count": 1,
      "max": [
        0.0
      ],
      "min": [
        0.0
      ],
      "type": "SCALAR"
    },
    {
      "bufferView": 8,
      "byteOffset": 176,
      "componentType": 5126,
      "count": 1,
      "max": [
        0.07833722978830338,
        -0.16525442898273468,
        -0.01863805577158928,
        0.982958197593689
      ],
      "min": [
        0.07833722978830338,
        -0.16525442898273468,
        -0.01863805577158928,
        0.982958197593689
      ],
      "type": "VEC4"
    },
    {
      "bufferView": 6,
      "byteOffset": 48,
      "componentType": 5126,
      "count": 1,
      "max": [
        0.0
      ],
      "min": [
        0.0
      ],
      "type": "SCALAR"
    },
    {
      "bufferView": 8,
      "byteOffset": 192,
      "componentType": 5126,
      "count": 1,
      "max": [
        0.15965886414051056,
        -0.28731876611709595,
        0.0840006172657013,
        0.9406917095184326
      ],
      "min": [
        0.15965886414051056,
        -0.28731876611709595,
        0.0840006172657013,
        0.9406917095184326
      ],
      "type": "VEC4"
    },
    {
      "bufferView": 6,
      "byteOffset": 52,
      "componentType": 5126,
      "count": 1,
      "max": [
        0.0
      ],
      "min": [
        0.0
      ],
      "type": "SCALAR"
    },
    {
      "bufferView": 8,
      "byteOffset": 208,
      "componentType": 5126,
      "count": 1,
      "max": [
        -0.05211199074983597,
        -0.19882619380950928,
        -0.30784595012664795,
        0.9289689660072327
      ],
      "min": [
        -0.05211199074983597,
        -0.19882619380950928,
        -0.30784595012664795,
        0.9289689660072327
      ],
      "type": "VEC4"
    },
    {
      "bufferView": 6,
      "byteOffset": 56,
      "componentType": 5126,
      "count": 1,
      "max": [
        0.0
      ],
      "min": [
        0.0
      ],
      "type": "SCALAR"
    },
    {
      "bufferView": 8,
      "byteOffset": 224,
      "componentType": 5126,
      "count": 1,
      "max": [
        0.06767185777425766,
        -0.33018767833709717,
        0.0711229220032692,
        0.9387961030006409
      ],
      "min": [
        0.06767185777425766,
        -0.33018767833709717,
        0.0711229220032692,
        0.9387961030006409
      ],
      "type": "VEC4"
    },
    {
      "bufferView": 6,
      "byteOffset": 60,
      "componentType": 5126,
      "count": 1,
      "max": [
        0.0
      ],
      "min": [
        0.0
      ],
      "type": "SCALAR"
    },
    {
      "bufferView": 8,
      "byteOffset": 240,
      "componentType": 5126,
      "count": 1,
      "max": [
        -0.4410453140735626,
        0.6485247611999512,
        -0.5656741261482239,
        -0.2547692656517029
      ],
      "min": [
        -0.4410453140735626,
        0.6485247611999512,
        -0.5656741261482239,
        -0.2547692656517029
      ],
      "type": "VEC4"
    },
    {
      "bufferView": 6,
      "byteOffset": 64,
      "componentType": 5126,
      "count": 1,
      "max": [
        0.0
      ],
      "min": [
        0.0
      ],
      "type": "SCALAR"
    },
    {
      "bufferView": 8,
      "byteOffset": 256,
      "componentType": 5126,
      "count": 1,
      "max": [
        -0.004403104539960623,
        -0.11362627148628235,
        0.06641357392072678,
        0.9912915229797363
      ],
      "min": [
        -0.004403104539960623,
        -0.11362627148628235,
        0.06641357392072678,
        0.9912915229797363
      ],
      "type": "VEC4"
    },
    {
      "bufferView": 6,
      "byteOffset": 68,
      "componentType": 5126,
      "count": 1,
      "max": [
        0.0
      ],
      "min": [
        0.0
      ],
      "type": "SCALAR"
    },
    {
      "bufferView": 8,
      "byteOffset": 272,
      "componentType": 5126,
      "count": 1,
      "max": [
        0.009996922686696053,
        -0.11522341519594193,
        0.09237301349639893,
        0.9889847636222839
      ],
      "min": [
        0.009996922686696053,
        -0.11522341519594193,
        0.09237301349639893,
        0.9889847636222839
      ],
      "type": "VEC4"
    },
    {
      "bufferView": 6,
      "byteOffset": 72,
      "componentType": 5126,
      "count": 1,
      "max": [
        0.0
      ],
      "min": [
        0.0
      ],
      "type": "SCALAR"
    },
    {
      "bufferView": 8,
      "byteOffset": 288,
      "componentType": 5126,
      "count": 1,
      "max": [
        -0.0862194076180458,
        -0.10443804413080215,
        0.01864483952522278,
        0.9906115531921387
      ],
      "min": [
        -0.0862194076180458,
        -0.10443804413080215,
        0.01864483952522278,
        0.9906115531921387
      ],
      "type": "VEC4"
    },
    {
      "bufferView": 6,
      "byteOffset": 76,
      "componentType": 5126,
      "count": 1,
      "max": [
        0.0
      ],
      "min": [
        0.0
      ],
      "type": "SCALAR"
    },
    {
      "bufferView": 8,
      "byteOffset": 304,
      "componentType": 5126,
      "count": 1,
      "max": [
        0.4712132513523102,
        -0.07253900915384293,
        0.0026631243526935577,
        0.8790273666381836
      ],
      "min": [
        0.4712132513523102,
        -0.07253900915384293,
        0.0026631243526935577,
        0.8790273666381836
      ],
      "type": "VEC4"
    },
    {
      "bufferView": 6,
      "byteOffset": 80,
      "componentType": 5126,
      "count": 1,
      "max": [
        0.0
      ],
      "min": [
        0.0
      ],
      "type": "SCALAR"
    },
    {
      "bufferView": 8,
      "byteOffset": 320,
      "componentType": 5126,
      "count": 1,
      "max": [
        0.5643481016159058,
        -0.08865093439817429,
        -0.07432032376527786,
        0.8173913955688477
      ],
      "min": [
        0.5643481016159058,
        -0.08865093439817429,
        -0.07432032376527786,
        0.8173913955688477
      ],
      "type": "VEC4"
    },
    {
      "bufferView": 6,
      "byteOffset": 84,
      "componentType": 5126,
      "count": 1,
      "max": [
        0.0
      ],
      "min": [
        0.0
      ],
      "type": "SCALAR"
    },
    {
      "bufferView": 8,
      "byteOffset": 336,
      "componentType": 5126,
      "count": 1,
      "max": [
        -0.40682467818260193,
        0.020936816930770874,
        0.014160161837935448,
        0.9131565093994141
      ],
      "min": [
        -0.40682467818260193,
        0.020936816930770874,
        0.014160161837935448,
        0.9131565093994141
      ],
      "type": "VEC4"
    },
    {
      "bufferView": 6,
      "byteOffset": 88,
      "componentType": 5126,
      "count": 1,
      "max": [
        0.0
      ],
      "min": [
        0.0
      ],
      "type": "SCALAR"
    },
    {
      "bufferView": 8,
      "byteOffset": 352,
      "componentType": 5126,
      "count": 1,
      "max": [
        0.08693042397499084,
        -0.033260561525821686,
        0.9700796604156494,
        -0.22423706948757172
      ],
      "min": [
        0.08693042397499084,
        -0.033260561525821686,
        0.9700796604156494,
        -0.22423706948757172
      ],
      "type": "VEC4"
    },
    {
      "bufferView": 6,
      "byteOffset": 92,
      "componentType": 5126,
      "count": 1,
      "max": [
        0.0
      ],
      "min": [
        0.0
      ],
      "type": "SCALAR"
    },
    {
      "bufferView": 8,
      "byteOffset": 368,
      "componentType": 5126,
      "count": 1,
      "max": [
        0.29215362668037415,
        0.01648130640387535,
        0.011883554980158806,
        0.95615553855896
      ],
      "min": [
        0.29215362668037415,
        0.01648130640387535,
        0.011883554980158806,
        0.95615553855896
      ],
      "type": "VEC4"
    },
    {
      "bufferView": 6,
      "byteOffset": 96,
      "componentType": 5126,
      "count": 1,
      "max": [
        0.0
      ],
      "min": [
        0.0
      ],
      "type": "SCALAR"
    },
    {
      "bufferView": 8,
      "byteOffset": 384,
      "componentType": 5126,
      "count": 1,
      "max": [
        0.5433928966522217,
        0.07555723190307617,
        0.12032870203256607,
        0.8273670673370361
      ],
      "min": [
        0.5433928966522217,
        0.07555723190307617,
        0.12032870203256607,
        0.8273670673370361
      ],
      "type": "VEC4"
    },
    {
      "bufferView": 6,
      "byteOffset": 100,
      "componentType": 5126,
      "count": 1,
      "max": [
        0.0
      ],
      "min": [
        0.0
      ],
      "type": "SCALAR"
    },
    {
      "bufferView": 8,
      "byteOffset": 400,
      "componentType": 5126,
      "count": 1,
      "max": [
        -0.3249044120311737,
        0.06898101419210434,
        -0.04266303777694702,
        0.9422624707221985
      ],
      "min": [
        -0.3249044120311737,
        0.06898101419210434,
        -0.04266303777694702,
        0.9422624707221985
      ],
      "type": "VEC4"
    },
    {
      "bufferView": 6,
      "byteOffset": 104,
      "componentType": 5126,
      "count": 1,
      "max": [
        0.0
      ],
      "min": [
        0.0
      ],
      "type": "SCALAR"
    },
    {
      "bufferView": 8,
      "byteOffset": 416,
      "componentType": 5126,
      "count": 1,
      "max": [
        -0.1527489274740219,
        0.03643285110592842,
        0.9602831602096558,
        0.2306441217660904
      ],
      "min": [
        -0.1527489274740219,
        0.03643285110592842,
        0.9602831602096558,
        0.2306441217660904
      ],
      "type": "VEC4"
    },
    {
      "bufferView": 6,
      "byteOffset": 108,
      "componentType": 5126,
      "count": 1,
      "max": [
        0.0
      ],
      "min": [
        0.0
      ],
      "type": "SCALAR"
    },
    {
      "bufferView": 7,
      "componentType": 5126,
      "count": 1,
      "max": [
        0.7464752197265625,
        452.7923583984375,
        1.3387868404388428
      ],
      "min": [
        0.7464752197265625,
        452.7923583984375,
        1.3387868404388428
      ],
      "type": "VEC3"
    },
    {
      "bufferView": 6,
      "byteOffset": 112,
      "componentType": 5126,
      "count": 1,
      "max": [
        0.0
      ],
      "min": [
        0.0
      ],
      "type": "SCALAR"
    },
    {
      "bufferView": 8,
      "byteOffset": 432,
      "componentType": 5126,
      "count": 1,
      "max": [
        -0.10784196853637695,
        0.34719008207321167,
        0.02709374949336052,
        0.931179404258728
      ],
      "min": [
        -0.10784196853637695,
        0.34719008207321167,
        0.02709374949336052,
        0.931179404258728
      ],
      "type": "VEC4"
    }
  ],
  "animations": [
    {
      "channels": [
        {
          "sampler": 0,
          "target": {
            "node": 19,
            "path": "rotation"
          }
        },
        {
          "sampler": 1,
          "target": {
            "node": 18,
            "path": "rotation"
          }
        },
        {
          "sampler": 2,
          "target": {
            "node": 27,
            "path": "rotation"
          }
        },
        {
          "sampler": 3,
          "target": {
            "node": 26,
            "path": "rotation"
          }
        },
        {
          "sampler": 4,
          "target": {
            "node": 25,
            "path": "rotation"
          }
        },
        {
          "sampler": 5,
          "target": {
            "node": 24,
            "path": "rotation"
          }
        },
        {
          "sampler": 6,
          "target": {
            "node": 23,
            "path": "rotation"
          }
        },
        {
          "sampler": 7,
          "target": {
            "node": 22,
            "path": "rotation"
          }
        },
        {
          "sampler": 8,
          "target": {
            "node": 21,
            "path": "rotation"
          }
        },
        {
          "sampler": 9,
          "target": {
            "node": 35,
            "path": "rotation"
          }
        },
        {
          "sampler": 10,
          "target": {
            "node": 34,
            "path": "rotation"
          }
        },
        {
          "sampler": 11,
          "target": {
            "node": 33,
            "path": "rotation"
          }
        },
        {
          "sampler": 12,
          "target": {
            "node": 32,
            "path": "rotation"
          }
        },
        {
          "sampler": 13,
          "target": {
            "node": 31,
            "path": "rotation"
          }
        },
        {
          "sampler": 14,
          "target": {
            "node": 30,
            "path": "rotation"
          }
        },
        {
          "sampler": 15,
          "target": {
            "node": 29,
            "path": "rotation"
          }
        },
        {
          "sampler": 16,
          "target": {
            "node": 17,
            "path": "rotation"
          }
        },
        {
          "sampler": 17,
          "target": {
            "node": 16,
            "path": "rotation"
          }
        },
        {
          "sampler": 18,
          "target": {
            "node": 15,
            "path": "rotation"
          }
        },
        {
          "sampler": 19,
          "target": {
            "node": 40,
            "path": "rotation"
          }
        },
        {
          "sampler": 20,
          "target": {
            "node": 39,
            "path": "rotation"
          }
        },
        {
          "sampler": 21,
          "target": {
            "node": 38,
            "path": "rotation"
          }
        },
        {
          "sampler": 22,
          "target": {
            "node": 37,
            "path": "rotation"
          }
        },
        {
          "sampler": 23,
          "target": {
            "node": 45,
            "path": "rotation"
          }
        },
        {
          "sampler": 24,
          "target": {
            "node": 44,
            "path": "rotation"
          }
        },
        {
          "sampler": 25,
          "target": {
            "node": 43,
            "path": "rotation"
          }
        },
        {
          "sampler": 26,
          "target": {
            "node": 42,
            "path": "rotation"
          }
        },
        {
          "sampler": 27,
          "target": {
            "node": 14,
            "path": "translation"
          }
        },
        {
          "sampler": 28,
          "target": {
            "node": 14,
            "path": "rotation"
          }
        }
      ],
      "name": "pose",
      "samplers": [
        {
          "input": 25,
          "interpolation": "LINEAR",
          "output": 26
        },
        {
          "input": 27,
          "interpolation": "LINEAR",
          "output": 28
        },
        {
          "input": 29,
          "interpolation": "LINEAR",
          "output": 30
        },
        {
          "input": 31,
          "interpolation": "LINEAR",
          "output": 32
        },
        {
          "input": 33,
          "interpolation": "LINEAR",
          "output": 34
        },
        {
          "input": 35,
          "interpolation": "LINEAR",
          "output": 36
        },
        {
          "input": 37,
          "interpolation": "LINEAR",
          "output": 38
        },
        {
          "input": 39,
          "interpolation": "LINEAR",
          "output": 40
        },
        {
          "input": 41,
          "interpolation": "LINEAR",
          "output": 42
        },
        {
          "input": 43,
          "interpolation": "LINEAR",
          "output": 44
        },
        {
          "input": 45,
          "interpolation": "LINEAR",
          "output": 46
        },
        {
          "input": 47,
          "interpolation": "LINEAR",
          "output": 48
        },
        {
          "input": 49,
          "interpolation": "LINEAR",
          "output": 50
        },
        {
          "input": 51,
          "interpolation": "LINEAR",
          "output": 52
        },
        {
          "input": 53,
          "interpolation": "LINEAR",
          "output": 54
        },
        {
          "input": 55,
          "interpolation": "LINEAR",
          "output": 56
        },
        {
          "input": 57,
          "interpolation": "LINEAR",
          "output": 58
        },
        {
          "input": 59,
          "interpolation": "LINEAR",
          "output": 60
        },
        {
          "input": 61,
          "interpolation": "LINEAR",
          "output": 62
        },
        {
          "input": 63,
          "interpolation": "LINEAR",
          "output": 64
        },
        {
          "input": 65,
          "interpolation": "LINEAR",
          "output": 66
        },
        {
          "input": 67,
          "interpolation": "LINEAR",
          "output": 68
        },
        {
          "input": 69,
          "interpolation": "LINEAR",
          "output": 70
        },
        {
          "input": 71,
          "interpolation": "LINEAR",
          "output": 72
        },
        {
          "input": 73,
          "interpolation": "LINEAR",
          "output": 74
        },
        {
          "input": 75,
          "interpolation": "LINEAR",
          "output": 76
        },
        {
          "input": 77,
          "interpolation": "LINEAR",
          "output": 78
        },
        {
          "input": 79,
          "interpolation": "LINEAR",
          "output": 80
        },
        {
          "input": 81,
          "interpolation": "LINEAR",
          "output": 82
        }
      ]
    }
  ],
  "asset": {
    "extras": {
      "author": "morion tutoriales (https://sketchfab.com/morion2013)",
      "license": "CC-BY-4.0 (http://creativecommons.org/licenses/by/4.0/)",
      "source": "https://sketchfab.com/3d-models/personaje-elemental-roca-b1a7b643183540a0a7cdab2a22b8b7a6",
      "title": "Personaje Elemental Roca"
    },
    "generator": "Sketchfab-15.49.0",
    "version": "2.0"
  },
  "bufferViews": [
    {
      "buffer": 0,
      "byteLength": 136016,
      "byteStride": 8,
      "name": "shortBufferViews",
      "target": 34962
    },
    {
      "buffer": 0,
      "byteLength": 105312,
      "byteOffset": 136016,
      "name": "floatBufferViews",
      "target": 34963
    },
    {
      "buffer": 0,
      "byteLength": 136016,
      "byteOffset": 241328,
      "byteStride": 8,
      "name": "floatBufferViews",
      "target": 34962
    },
    {
      "buffer": 0,
      "byteLength": 408048,
      "byteOffset": 377344,
      "byteStride": 12,
      "name": "floatBufferViews",
      "target": 34962
    },
    {
      "buffer": 0,
      "byteLength": 272032,
      "byteOffset": 785392,
      "byteStride": 16,
      "name": "floatBufferViews",
      "target": 34962
    },
    {
      "buffer": 0,
      "byteLength": 2176,
      "byteOffset": 1057424,
      "name": "floatBufferViews"
    },
    {
      "buffer": 0,
      "byteLength": 116,
      "byteOffset": 1059600,
      "name": "floatBufferViews"
    },
    {
      "buffer": 0,
      "byteLength": 12,
      "byteOffset": 1059716,
      "byteStride": 12,
      "name": "floatBufferViews"
    },
    {
      "buffer": 0,
      "byteLength": 448,
      "byteOffset": 1059728,
      "byteStride": 16,
      "name": "floatBufferViews"
    }
  ],
  "buffers": [
    {
      "byteLength": 1060176,
      "uri": "scene.bin"
    }
  ],
  "extensionsUsed": [
    "KHR_materials_unlit"
  ],
  "images": [
    {
      "uri": "textures/Cuerpo_baseColor.png"
    },
    {
      "uri": "textures/Rocas_baseColor.png"
    },
    {
      "uri": "textures/Madera_baseColor.png"
    }
  ],
  "materials": [
    {
      "doubleSided": true,
      "emissiveFactor": [
        0.019492298874555863,
        0.20007621951219512,
        0.007422249375128199
      ],
      "extensions": {
        "KHR_materials_unlit": {}
      },
      "name": "Cuerpo",
      "pbrMetallicRoughness": {
        "baseColorTexture": {
          "index": 0
        },
        "metallicFactor": 0.0
      }
    },
    {
      "doubleSided": true,
      "extensions": {
        "KHR_materials_unlit": {}
      },
      "name": "Rocas",
      "pbrMetallicRoughness": {
        "baseColorTexture": {
          "index": 1
        },
        "metallicFactor": 0.0
      }
    },
    {
      "doubleSided": true,
      "extensions": {
        "KHR_materials_unlit": {}
      },
      "name": "Madera",
      "pbrMetallicRoughness": {
        "baseColorTexture": {
          "index": 2
        },
        "metallicFactor": 0.0
      }
    }
  ],
  "meshes": [
    {
      "name": "Cube.001_Cuerpo_0",
      "primitives": [
        {
          "attributes": {
            "JOINTS_0": 17,
            "NORMAL": 1,
            "POSITION": 0,
            "TEXCOORD_0": 2,
            "WEIGHTS_0": 18
          },
          "indices": 3,
          "material": 0,
          "mode": 4
        }
      ]
    },
    {
      "name": "Cube.001_cell.001_Rocas_0",
      "primitives": [
        {
          "attributes": {
            "JOINTS_0": 19,
            "NORMAL": 5,
            "POSITION": 4,
            "TEXCOORD_0": 6,
            "WEIGHTS_0": 20
          },
          "indices": 7,
          "material": 1,
          "mode": 4
        }
      ]
    },
    {
      "name": "Cylinder_Madera_0",
      "primitives": [
        {
          "attributes": {
            "JOINTS_0": 21,
            "NORMAL": 9,
            "POSITION": 8,
            "TEXCOORD_0": 10,
            "WEIGHTS_0": 22
          },
          "indices": 11,
          "material": 2,
          "mode": 4
        }
      ]
    },
    {
      "name": "Plane_Madera_0",
      "primitives": [
        {
          "attributes": {
            "JOINTS_0": 23,
            "NORMAL": 13,
            "POSITION": 12,
            "TEXCOORD_0": 14,
            "WEIGHTS_0": 24
          },
          "indices": 15,
          "material": 2,
          "mode": 4
        }
      ]
    }
  ],
  "nodes": [
    {
      "children": [
        1
      ],
      "matrix": [
        0.002955894684419036,
        0.0,
        0.0,
        0.0,
        0.0,
        6.563404674018249e-19,
        -0.002955894684419036,
        0.0,
        0.0,
        0.002955894684419036,
        6.563404674018249e-19,
        0.0,
        0.0,
        0.0,
        0.0,
        1.0
      ],
      "name": "Sketchfab_model"
    },
    {
      "children": [
        2
      ],
      "matrix": [
        1.0,
        0.0,
        0.0,
        0.0,
        0.0,
        0.0,
        1.0,
        0.0,
        0.0,
        -1.0,
        0.0,
        0.0,
        0.0,
        0.0,
        0.0,
        1.0
      ],
      "name": "da24fffa0c9147d6b9a37c5db7762c32.fbx"
    },
    {
      "children": [
        3
      ],
      "name": "Object_2"
    },
    {
      "children": [
        4
      ],
      "name": "RootNode"
    },
    {
      "children": [
        5,
        7,
        9,
        11,
        13,
        6,
        8,
        10,
        12,
        47,
        48,
        49,
        50
      ],
      "name": "Object_4"
    },
    {
      "children": [
        14
      ],
      "name": "_rootJoint"
    },
    {
      "matrix": [
        100.0,
        0.0,
        0.0,
        0.0,
        0.0,
        -1.6292067955264296e-05,
        -99.99999999999868,
        0.0,
        0.0,
        99.99999999999868,
        -1.6292067955264296e-05,
        0.0,
        0.0,
        0.0,
        -1.4210854715202004e-14,
        1.0
      ],
      "name": "Object_6"
    },
    {
      "mesh": 0,
      "name": "Object_7",
      "skin": 0
    },
    {
      "matrix": [
        124.28783416748047,
        0.0,
        0.0,
        0.0,
        0.0,
        -2.0249058402692112e-05,
        -124.28783416747879,
        0.0,
        0.0,
        124.28783416747879,
        -2.0249058402692112e-05,
        0.0,
        82.96150207519531,
        670.4572143554688,
        -59.6904296875,
        1.0
      ],
      "name": "Object_8"
    },
    {
      "mesh": 1,
      "name": "Object_9",
      "skin": 0
    },
    {
      "matrix": [
        116.42691402177576,
        -34.29614036635717,
        6.757606712017999,
        0.0,
        4.112504527778715,
        -9.897818270130244,
        -121.08771798271499,
        0.0,
        34.7127879265863,
        116.2020784812716,
        -8.319510638089099,
        0.0,
        -189.25961303710938,
        467.70831298828125,
        -34.85332107543945,
        1.0
      ],
      "name": "Object_10"
    },
    {
      "mesh": 2,
      "name": "Object_11",
      "skin": 0
    },
    {
      "matrix": [
        100.00000000000006,
        1.4210854715202004e-14,
        8.881784197001252e-16,
        0.0,
        8.881807349422205e-16,
        -1.6292067955264302e-05,
        -99.9999999999987,
        0.0,
        -1.4210854570499176e-14,
        99.99999999999868,
        -1.6292067955264296e-05,
        0.0,
        -27.022075653076154,
        696.5086669921873,
        -78.42283630371091,
        1.0
      ],
      "name": "Object_12"
    },
    {
      "mesh": 3,
      "name": "Object_13",
      "skin": 0
    },
    {
      "children": [
        15,
        37,
        42
      ],
      "name": "mixamorig:Hips_01",
      "translation": [
        -0.14059193432331085,
        497.1609802246094,
        -42.2882080078125
      ]
    },
    {
      "children": [
        16
      ],
      "name": "mixamorig:Spine_02",
      "rotation": [
        -0.04394476115703583,
        -0.0,
        0.0,
        0.9990339875221252
      ],
      "translation": [
        0.0,
        37.169219970703125,
        -3.2762908935546875
      ]
    },
    {
      "children": [
        17
      ],
      "name": "mixamorig:Spine1_03",
      "rotation": [
        -2.5039774698143447e-08,
        -0.0,
        0.0,
        1.0
      ],
      "translation": [
        0.0,
        43.53226852416992,
        -7.105427357601002e-15
      ]
    },
    {
      "children": [
        18,
        21,
        29
      ],
      "name": "mixamorig:Spine2_04",
      "rotation": [
        6.938893903907228e-18,
        0.0,
        0.0,
        1.0
      ],
      "translation": [
        0.0,
        49.75117492675781,
        0.0
      ]
    },
    {
      "children": [
        19
      ],
      "name": "mixamorig:Neck_05",
      "rotation": [
        0.04394478723406792,
        0.0,
        0.0,
        0.9990339875221252
      ],
      "translation": [
        0.0,
        55.97001647949219,
        -7.539248144894373e-06
      ]
    },
    {
      "children": [
        20
      ],
      "name": "mixamorig:Head_06",
      "translation": [
        0.0,
        63.32867431640625,
        12.724048614501953
      ]
    },
    {
      "name": "mixamorig:HeadTop_End_07",
      "translation": [
        0.0,
        135.3280029296875,
        27.190217971801758
      ]
    },
    {
      "children": [
        22
      ],
      "name": "mixamorig:LeftShoulder_08",
      "rotation": [
        -0.5907161235809326,
        -0.3819649815559387,
        0.6055729389190674,
        -0.3720734715461731
      ],
      "translation": [
        40.570491790771484,
        36.996376037597656,
        -1.0006494522094727
      ]
    },
    {
      "children": [
        23
      ],
      "name": "mixamorig:LeftArm_09",
      "rotation": [
        0.353313684463501,
        0.03830743208527565,
        -0.014481515623629093,
        0.9346081018447876
      ],
      "translation": [
        -7.105427357601002e-15,
        89.66950988769531,
        1.1368683772161603e-13
      ]
    },
    {
      "children": [
        24
      ],
      "name": "mixamorig:LeftForeArm_010",
      "rotation": [
        0.025856811553239822,
        0.003013740060850978,
        0.11573201417922974,
        0.992939293384552
      ],
      "translation": [
        0.0,
        81.32989501953125,
        5.684341886080802e-14
      ]
    },
    {
      "children": [
        25
      ],
      "name": "mixamorig:LeftHand_011",
      "rotation": [
        0.3355449140071869,
        0.26410290598869324,
        -0.09859037399291992,
        0.8988543748855591
      ],
      "translation": [
        7.105427357601002e-15,
        159.83685302734375,
        0.0
      ]
    },
    {
      "children": [
        26
      ],
      "name": "mixamorig:LeftHandIndex1_012",
      "rotation": [
        0.3043125867843628,
        -0.254290372133255,
        0.08465645462274551,
        0.9140916466712952
      ],
      "translation": [
        0.0,
        89.41944885253906,
        2.1316282072803006e-14
      ]
    },
    {
      "children": [
        27
      ],
      "name": "mixamorig:LeftHandIndex2_013",
      "rotation": [
        1.0061396160665481e-16,
        1.3877787807814457e-17,
        1.3877787807814457e-17,
        1.0
      ],
      "translation": [
        1.4210854715202004e-14,
        12.315042495727539,
        4.263256414560601e-14
      ]
    },
    {
      "children": [
        28
      ],
      "name": "mixamorig:LeftHandIndex3_014",
      "rotation": [
        7.37257477290143e-17,
        1.0408340855860843e-17,
        -1.3877787807814457e-17,
        1.0
      ],
      "translation": [
        -3.6047916412353516,
        21.291961669921875,
        9.53966999053955
      ]
    },
    {
      "name": "mixamorig:LeftHandIndex4_015",
      "rotation": [
        4.423544863740858e-17,
        -1.0408340855860843e-17,
        -2.7755575615628914e-17,
        1.0
      ],
      "translation": [
        -7.652418613433838,
        9.723737716674805,
        4.559959411621094
      ]
    },
    {
      "children": [
        30
      ],
      "name": "mixamorig:RightShoulder_016",
      "rotation": [
        0.5801660418510437,
        -0.388944149017334,
        0.6146225929260254,
        0.366563618183136
      ],
      "translation": [
        -40.570491790771484,
        37.113895416259766,
        -2.3338818550109863
      ]
    },
    {
      "children": [
        31
      ],
      "name": "mixamorig:RightArm_017",
      "rotation": [
        0.35384422540664673,
        -0.027516447007656097,
        0.010415172204375267,
        0.934841513633728
      ],
      "translation": [
        -7.105427357601002e-15,
        89.66951751708984,
        0.0
      ]
    },
    {
      "children": [
        32
      ],
      "name": "mixamorig:RightForeArm_018",
      "rotation": [
        0.03131437301635742,
        -0.003688135650008917,
        -0.11691109091043472,
        0.9926417469978333
      ],
      "translation": [
        0.0,
        81.33302307128906,
        0.0
      ]
    },
    {
      "children": [
        33
      ],
      "name": "mixamorig:RightHand_019",
      "rotation": [
        0.29913294315338135,
        -0.2573152780532837,
        0.08412148058414459,
        0.915003776550293
      ],
      "translation": [
        1.4210854715202004e-14,
        160.13597106933594,
        -1.1368683772161603e-13
      ]
    },
    {
      "children": [
        34
      ],
      "name": "mixamorig:RightHandIndex1_020",
      "rotation": [
        0.4663025736808777,
        -0.13024799525737762,
        0.06963351368904114,
        0.8722090125083923
      ],
      "translation": [
        -1.4210854715202004e-14,
        85.95706939697266,
        0.0
      ]
    },
    {
      "children": [
        35
      ],
      "name": "mixamorig:RightHandIndex2_021",
      "translation": [
        0.0,
        15.937162399291992,
        0.0
      ]
    },
    {
      "children": [
        36
      ],
      "name": "mixamorig:RightHandIndex3_022",
      "rotation": [
        -1.1555579666323415e-33,
        4.163336342344337e-17,
        2.7755575615628914e-17,
        1.0
      ],
      "translation": [
        18.99056625366211,
        17.638444900512695,
        -7.008917331695557
      ]
    },
    {
      "name": "mixamorig:RightHandIndex4_023",
      "rotation": [
        -1.1555579666323415e-33,
        -4.163336342344337e-17,
        -2.7755575615628914e-17,
        1.0
      ],
      "translation": [
        9.866171836853027,
        8.229735374450684,
        -5.530779838562012
      ]
    },
    {
      "children": [
        38
      ],
      "name": "mixamorig:LeftUpLeg_024",
      "rotation": [
        -0.0003714290214702487,
        -0.0158699844032526,
        0.9996002316474915,
        -0.02339514158666134
      ],
      "translation": [
        30.549585342407227,
        -20.744659423828125,
        -1.3147201538085938
      ]
    },
    {
      "children": [
        39
      ],
      "name": "mixamorig:LeftLeg_025",
      "rotation": [
        -0.016376739367842674,
        -0.0004200593975838274,
        0.025637883692979813,
        0.9995370507240295
      ],
      "translation": [
        0.0,
        214.99440002441406,
        0.0
      ]
    },
    {
      "children": [
        40
      ],
      "name": "mixamorig:LeftFoot_00",
      "rotation": [
        0.48614266514778137,
        -0.021835166960954666,
        0.012151960283517838,
        0.8735222220420837
      ],
      "translation": [
        -2.842170943040401e-14,
        214.14727783203125,
        0.0
      ]
    },
    {
      "children": [
        41
      ],
      "name": "mixamorig:LeftToeBase_026",
      "rotation": [
        0.302658349275589,
        0.02227054536342621,
        -0.007074178196489811,
        0.9528127312660217
      ],
      "translation": [
        1.4210854715202004e-14,
        92.59565734863281,
        1.7763568394002505e-14
      ]
    },
    {
      "name": "mixamorig:LeftToe_End_027",
      "rotation": [
        5.984795992119984e-17,
        3.840108569672096e-17,
        1.734723475976807e-18,
        1.0
      ],
      "translation": [
        0.0,
        41.17264175415039,
        3.552713678800501e-15
      ]
    },
    {
      "children": [
        43
      ],
      "name": "mixamorig:RightUpLeg_028",
      "rotation": [
        0.0003304255078546703,
        -0.014116555452346802,
        0.9996265172958374,
        0.023398207500576973
      ],
      "translation": [
        -30.549585342407227,
        -20.744659423828125,
        1.8403091430664063
      ]
    },
    {
      "children": [
        44
      ],
      "name": "mixamorig:RightLeg_029",
      "rotation": [
        -0.060443177819252014,
        0.0015434279339388013,
        -0.02548016421496868,
        0.9978451728820801
      ],
      "translation": [
        -1.4210854715202004e-14,
        214.97183227539063,
        -1.4210854715202004e-14
      ]
    },
    {
      "children": [
        45
      ],
      "name": "mixamorig:RightFoot_030",
      "rotation": [
        0.5493080615997314,
        0.01764756068587303,
        -0.011604612693190575,
        0.8353529572486877
      ],
      "translation": [
        0.0,
        216.09803771972656,
        -1.4210854715202004e-14
      ]
    },
    {
      "children": [
        46
      ],
      "name": "mixamorig:RightToeBase_031",
      "rotation": [
        0.2725200951099396,
        -0.01843233034014702,
        0.005221822299063206,
        0.9619593620300293
      ],
      "translation": [
        2.842170943040401e-14,
        101.79866027832031,
        0.0
      ]
    },
    {
      "name": "mixamorig:RightToe_End_032",
      "rotation": [
        -2.168404344971009e-18,
        2.55465136891897e-18,
        -1.734723475976807e-18,
        1.0
      ],
      "translation": [
        1.4210854715202004e-14,
        43.06014633178711,
        -1.7763568394002505e-15
      ]
    },
    {
      "name": "Cube.001",
      "rotation": [
        -0.7071068286895752,
        0.0,
        0.0,
        0.7071067094802856
      ],
      "scale": [
        100.0,
        100.0,
        100.0
      ]
    },
    {
      "name": "Cube.001_cell.001",
      "rotation": [
        -0.7071068286895752,
        0.0,
        0.0,
        0.7071067094802856
      ],
      "scale": [
        124.28783416748047,
        124.28783416748047,
        124.28783416748047
      ],
      "translation": [
        82.96150207519531,
        670.4572143554688,
        -59.6904296875
      ]
    },
    {
      "name": "Cylinder",
      "rotation": [
        -0.7258831858634949,
        0.08551651239395142,
        -0.11749425530433655,
        0.6722913384437561
      ],
      "scale": [
        121.56116485595703,
        121.5611572265625,
        121.5611572265625
      ],
      "translation": [
        -189.25961303710938,
        467.70831298828125,
        -34.85332107543945
      ]
    },
    {
      "name": "Plane",
      "rotation": [
        -0.7071068286895752,
        0.0,
        0.0,
        0.7071067094802856
      ],
      "scale": [
        100.0,
        100.0,
        100.0
      ],
      "translation": [
        -27.022075653076172,
        696.5086669921875,
        -78.42283630371094
      ]
    }
  ],
  "samplers": [
    {
      "magFilter": 9729,
      "minFilter": 9987,
      "wrapS": 10497,
      "wrapT": 10497
    }
  ],
  "scene": 0,
  "scenes": [
    {
      "name": "Sketchfab_Scene",
      "nodes": [
        0
      ]
    }
  ],
  "skins": [
    {
      "inverseBindMatrices": 16,
      "joints": [
        5,
        14,
        15,
        16,
        17,
        18,
        19,
        20,
        21,
        22,
        23,
        24,
        25,
        26,
        27,
        28,
        29,
        30,
        31,
        32,
        33,
        34,
        35,
        36,
        37,
        38,
        39,
        40,
        41,
        42,
        43,
        44,
        45,
        46
      ],
      "skeleton": 5
    }
  ],
  "textures": [
    {
      "sampler": 0,
      "source": 0
    },
    {
      "sampler": 0,
      "source": 1
    },
    {
      "sampler": 0,
      "source": 2
    }
  ]
}
