{
  "accessors": [
    {
      "bufferView": 2,
      "componentType": 5126,
      "count": 25513,
      "max": [
        0.47326725721359253,
        0.47812944650650024,
        0.49929654598236084
      ],
      "min": [
        -0.46452072262763977,
        -0.4866476058959961,
        -0.6331693530082703
      ],
      "type": "VEC3"
    },
    {
      "bufferView": 2,
      "byteOffset": 306156,
      "componentType": 5126,
      "count": 25513,
      "max": [
        0.9999984502792358,
        0.9999455213546753,
        0.9998989105224609
      ],
      "min": [
        -0.9999816417694092,
        -0.9999916553497314,
        -0.9998856782913208
      ],
      "type": "VEC3"
    },
    {
      "bufferView": 3,
      "componentType": 5126,
      "count": 25513,
      "max": [
        0.9338459968566895,
        0.9904137849807739,
        0.9911174774169922,
        1.0
      ],
      "min": [
        -0.8909943103790283,
        -0.9463135600090027,
        -0.998192310333252,
        1.0
      ],
      "type": "VEC4"
    },
    {
      "bufferView": 1,
      "componentType": 5126,
      "count": 25513,
      "max": [
        0.9999999403953552,
        0.9999999403953552
      ],
      "min": [
        0.0,
        0.0
      ],
      "type": "VEC2"
    },
    {
      "bufferView": 1,
      "byteOffset": 204104,
      "componentType": 5126,
      "count": 25513,
      "max": [
        0.9999999403953552,
        0.9999999403953552
      ],
      "min": [
        0.0,
        0.0
      ],
      "type": "VEC2"
    },
    {
      "bufferView": 0,
      "componentType": 5125,
      "count": 147456,
      "type": "SCALAR"
    },
    {
      "bufferView": 4,
      "componentType": 5126,
      "count": 145,
      "max": [
        8.291666984558105
      ],
      "min": [
        2.0833332538604736
      ],
      "type": "SCALAR"
    },
    {
      "bufferView": 5,
      "componentType": 5126,
      "count": 145,
      "max": [
        0.859831690788269,
        0.028321249410510063,
        0.11065676063299179,
        0.6693610548973083
      ],
      "min": [
        0.7402238845825195,
        -0.12973226606845856,
        -0.024136610329151154,
        0.4976368546485901
      ],
      "type": "VEC4"
    },
    {
      "bufferView": 4,
      "byteOffset": 580,
      "componentType": 5126,
      "count": 164,
      "max": [
        9.625
      ],
      "min": [
        0.7083333134651184
      ],
      "type": "SCALAR"
    },
    {
      "bufferView": 5,
      "byteOffset": 2320,
      "componentType": 5126,
      "count": 164,
      "max": [
        0.8598317503929138,
        0.0283212773501873,
        0.11065673828125,
        0.6693610548973083
      ],
      "min": [
        0.7402238845825195,
        -0.12973226606845856,
        -0.024136630818247795,
        0.4976368844509125
      ],
      "type": "VEC4"
    }
  ],
  "animations": [
    {
      "channels": [
        {
          "sampler": 0,
          "target": {
            "node": 3,
            "path": "rotation"
          }
        }
      ],
      "name": "Action",
      "samplers": [
        {
          "input": 6,
          "interpolation": "LINEAR",
          "output": 7
        }
      ]
    },
    {
      "channels": [
        {
          "sampler": 0,
          "target": {
            "node": 3,
            "path": "rotation"
          }
        }
      ],
      "name": "eggAction.001",
      "samplers": [
        {
          "input": 8,
          "interpolation": "LINEAR",
          "output": 9
        }
      ]
    }
  ],
  "asset": {
    "extras": {
      "author": "Arturo J. Real (https://sketchfab.com/arturojreal)",
      "license": "CC-BY-NC-SA-4.0 (http://creativecommons.org/licenses/by-nc-sa/4.0/)",
      "source": "https://sketchfab.com/3d-models/sculpt-january-2021-dragons-egg-26f24f5defe740ad8964d3fb8f81b6b0",
      "title": "Sculpt January 2021: Dragon's Egg"
    },
    "generator": "Sketchfab-12.66.0",
    "version": "2.0"
  },
  "bufferViews": [
    {
      "buffer": 0,
      "byteLength": 589824,
      "name": "floatBufferViews",
      "target": 34963
    },
    {
      "buffer": 0,
      "byteLength": 408208,
      "byteOffset": 589824,
      "byteStride": 8,
      "name": "floatBufferViews",
      "target": 34962
    },
    {
      "buffer": 0,
      "byteLength": 612312,
      "byteOffset": 998032,
      "byteStride": 12,
      "name": "floatBufferViews",
      "target": 34962
    },
    {
      "buffer": 0,
      "byteLength": 408208,
      "byteOffset": 1610344,
      "byteStride": 16,
      "name": "floatBufferViews",
      "target": 34962
    },
    {
      "buffer": 0,
      "byteLength": 1236,
      "byteOffset": 2018552,
      "name": "floatBufferViews"
    },
    {
      "buffer": 0,
      "byteLength": 4944,
      "byteOffset": 2019788,
      "byteStride": 16,
      "name": "floatBufferViews"
    }
  ],
  "buffers": [
    {
      "byteLength": 2024732,
      "uri": "scene.bin"
    }
  ],
  "images": [
    {
      "uri": "textures/material_baseColor.png"
    },
    {
      "uri": "textures/material_normal.png"
    }
  ],
  "materials": [
    {
      "doubleSided": true,
      "name": "material",
      "normalTexture": {
        "index": 1,
        "scale": 0.900001
      },
      "pbrMetallicRoughness": {
        "baseColorTexture": {
          "index": 0
        },
        "metallicFactor": 0.0,
        "roughnessFactor": 0.5
      }
    }
  ],
  "meshes": [
    {
      "name": "Object_0",
      "primitives": [
        {
          "attributes": {
            "NORMAL": 1,
            "POSITION": 0,
            "TANGENT": 2,
            "TEXCOORD_0": 3,
            "TEXCOORD_1": 4
          },
          "indices": 5,
          "material": 0,
          "mode": 4
        }
      ]
    }
  ],
  "nodes": [
    {
      "children": [
        1
      ],
      "matrix": [
        1.0,
        0.0,
        0.0,
        0.0,
        0.0,
        2.220446049250313e-16,
        -1.0,
        0.0,
        0.0,
        1.0,
        2.220446049250313e-16,
        0.0,
        0.0,
        0.0,
        0.0,
        1.0
      ],
      "name": "Sketchfab_model"
    },
    {
      "children": [
        2
      ],
      "name": "root"
    },
    {
      "children": [
        3
      ],
      "matrix": [
        1.0,
        0.0,
        0.0,
        0.0,
        0.0,
        2.220446049250313e-16,
        1.0,
        0.0,
        0.0,
        -1.0,
        2.220446049250313e-16,
        0.0,
        0.0,
        0.0,
        0.0,
        1.0
      ],
      "name": "GLTF_SceneRootNode"
    },
    {
      "children": [
        4
      ],
      "name": "baked_egg_6",
      "rotation": [
        0.7736823558807373,
        -0.014890730381011963,
        0.07021709531545639,
        0.6294946074485779
      ]
    },
    {
      "mesh": 0,
      "name": "Object_4"
    }
  ],
  "samplers": [
    {
      "magFilter": 9729,
      "minFilter": 9987,
      "wrapS": 10497,
      "wrapT": 10497
    }
  ],
  "scene": 0,
  "scenes": [
    {
      "name": "Sketchfab_Scene",
      "nodes": [
        0
      ]
    }
  ],
  "textures": [
    {
      "sampler": 0,
      "source": 0
    },
    {
      "sampler": 0,
      "source": 1
    }
  ]
}
